{
.formatVersion = 3;
date = "2012-11-24 07:19:00 +0000";
familyName = DonegalOne;
featurePrefixes = (
{
code = "languagesystem DFLT dflt;
languagesystem latn dflt;
languagesystem latn MOL;
languagesystem latn ROM;
languagesystem latn TRK;";
name = LanguageSystems;
},
{
code = "lookup Single_Substitution_lookup_4 {
    sub a by ordfeminine;
    sub o by ordmasculine;
} Single_Substitution_lookup_4;";
name = Single_Substitution_lookup_4;
},
{
code = "lookup _aalt__Access_All_Alternates_in_Latin_lookup_0 {
    sub a by ordfeminine;
    sub o by ordmasculine;
} _aalt__Access_All_Alternates_in_Latin_lookup_0;";
name = _aalt__Access_All_Alternates_in_Latin_lookup_0;
},
{
code = "lookup _sups__Superscript_in_Latin_lookup_2 {
    sub one by onesuperior;
    sub two by twosuperior;
    sub three by threesuperior;
} _sups__Superscript_in_Latin_lookup_2;";
name = _sups__Superscript_in_Latin_lookup_2;
},
{
code = "lookup _frac__Diagonal_Fractions_in_Latin_lookup_3 {
    sub one slash two by onehalf;
    sub one slash four by onequarter;
    sub three slash four by threequarters;
    sub zero slash zero by percent;
    sub zero slash zero zero by perthousand;
} _frac__Diagonal_Fractions_in_Latin_lookup_3;";
name = _frac__Diagonal_Fractions_in_Latin_lookup_3;
},
{
code = "lookup _ordn__Ordinals_in_Latin_lookup_1 {
    sub [zero one two three four five six seven eight nine] a' lookup Single_Substitution_lookup_4;
    sub [zero one two three four five six seven eight nine] o' lookup Single_Substitution_lookup_4;
    sub period [zero one two three four five six seven eight nine] a' lookup Single_Substitution_lookup_4;
    sub period [zero one two three four five six seven eight nine] o' lookup Single_Substitution_lookup_4;
} _ordn__Ordinals_in_Latin_lookup_1;
";
name = _ordn__Ordinals_in_Latin_lookup_1;
}
);
features = (
{
code = "script latn;
language MOL ;
lookup _sups__Superscript_in_Latin_lookup_2;
script latn;
language ROM ;
lookup _sups__Superscript_in_Latin_lookup_2;

glyphs = (
{
glyphname = Thorn;
layers = (
{
layerId = "090b295d-3f71-4cfe-961f-4c3f744a43b8";
name = Fore;
shapes = (
{
closed = 1;
nodes = (
(155,96,o),
(188.5,103.5,q),
(222,111,o),
(241.5,126,q),
(261,141,o),
(268,171.5,q),
(275,202,o),
(275,262,q),
(275,1120,l),
(274,1390,l),
(130,1446,l),
(130,1528,l),
(647,1528,l),
(647,1446,l),
(598,1437,o),
(567,1425,q),
(536,1413,o),
(519,1391,q),
(502,1369,o),
(495.5,1334,q),
(489,1299,o),
(490,1246,q),
(490,1209,l),
(533,1215,o),
(572.5,1220,q),
(612,1225,o),
(653.5,1229,q),
(695,1233,o),
(742,1235.5,q),
(789,1238,o),
(847,1238,q),
(958,1238,o),
(1041.5,1206,q),
(1125,1174,o),
(1181.5,1117.5,q),
(1238,1061,o),
(1266,984,q),
(1294,907,o),
(1294,818,q),
(1294,711,o),
(1247.5,621.5,q),
(1201,532,o),
(1123,467.5,q),
(1045,403,o),
(944,367,q),
(843,331,o),
(735,331,q),
(711,331,o),
(679.5,332.5,q),
(648,334,o),
(614,337.5,q),
(580,341,o),
(548,346.5,q),
(516,352,o),
(491,359,q),
(491,137,l),
(704,82,l),
(704,0,l),
(103,0,l),
(103,82,l)
);
},
{
closed = 1;
nodes = (
(533,488,o),
(586.5,477.5,q),
(640,467,o),
(699.5,464,q),
(759,461,o),
(821,466.5,q),
(883,472,o),
(943,489,q),
(973,513,o),
(997.5,537,q),
(1022,561,o),
(1039.5,592.5,q),
(1057,624,o),
(1066,667.5,q),
(1075,711,o),
(1075,774,q),
(1075,847,o),
(1054,911.5,q),
(1033,976,o),
(989.5,1024,q),
(946,1072,o),
(880,1099.5,q),
(814,1127,o),
(724,1127,q),
(667,1127,o),
(623.5,1115.5,q),
(580,1104,o),
(550.5,1083.5,q),
(521,1063,o),
(506,1036.5,q),
(491,1010,o),
(491,980,q),
(491,504,l)
);
}
);
width = 1347;
}
);
unicode = 222;
},
{
glyphname = thorn;
layers = (
{
layerId = "090b295d-3f71-4cfe-961f-4c3f744a43b8";
name = Fore;
shapes = (
{
closed = 1;
nodes = (
(181,1340,o),
(167,1369.5,q),
(153,1399,o),
(130,1415,q),
(107,1431,o),
(76.5,1438,q),
(46,1445,o),
(13,1454,q),
(13,1526,l),
(58,1537,o),
(93,1545.5,q),
(128,1554,o),
(157,1561.5,q),
(186,1569,o),
(210,1576.5,q),
(234,1584,o),
(259,1593.5,q),
(284,1603,o),
(310.5,1615.5,q),
(337,1628,o),
(371,1645,q),
(408,1624,l),
(407,1613,o),
(406,1579,q),
(405,1545,o),
(403.5,1495,q),
(402,1445,o),
(401,1384.5,q),
(400,1324,o),
(399,1261,q),
(398,1198,o),
(397.5,1136.5,q),
(397,1075,o),
(396,1024,q),
(395,973,o),
(394.5,937,q),
(394,901,o),
(393,888,q),
(421,907,o),
(460,933.5,q),
(499,960,o),
(543,984,q),
(587,1008,o),
(632,1025,q),
(677,1042,o),
(718,1042,q),
(736,1042,o),
(775,1038,q),
(814,1034,o),
(861,1015,q),
(908,996,o),
(957.5,959,q),
(1007,922,o),
(1047,856,q),
(1063,830,o),
(1078,799.5,q),
(1093,769,o),
(1104,733.5,q),
(1115,698,o),
(1122,655.5,q),
(1129,613,o),
(1129,563,q),
(1129,435,o),
(1100,341.5,q),
(1071,248,o),
(1025,183.5,q),
(979,119,o),
(921.5,79,q),
(864,39,o),
(808,17,q),
(752,-5,o),
(702.5,-12.5,q),
(653,-20,o),
(623,-20,q),
(572,-20,o),
(511.5,-15,q),
(451,-10,o),
(391,-3,q),
(391,-348,l),
(616,-404,l),
(616,-486,l),
(30,-486,l),
(30,-404,l),
(75,-393,o),
(103.5,-381.5,q),
(132,-370,o),
(148,-350.5,q),
(164,-331,o),
(170.5,-299,q),
(177,-267,o),
(179,-214,q),
(179,23,l),
(181,1286,l)
);
},
{
closed = 1;
nodes = (
(453,137,o),
(518.5,119.5,q),
(584,102,o),
(657,102,q),
(728,102,o),
(777.5,133,q),
(827,164,o),
(857.5,217,q),
(888,270,o),
(901.5,340.5,q),
(915,411,o),
(915,489,q),
(915,570,o),
(898.5,641.5,q),
(882,713,o),
(852.5,766.5,q),
(823,820,o),
(782.5,850.5,q),
(742,881,o),
(694,881,q),
(658,881,o),
(613.5,869.5,q),
(569,858,o),
(527,842.5,q),
(485,827,o),
(449,810,q),
(413,793,o),
(393,781,q),
(393,168,l)
);
}
);
width = 1219;
}
);
unicode = 254;
},
{
glyphname = Lslash;
layers = (
{
layerId = "090b295d-3f71-4cfe-961f-4c3f744a43b8";
name = Fore;
shapes = (
{
closed = 1;
nodes = (
(165,96,o),
(197,108,q),
(229,120,o),
(246.5,141,q),
(264,162,o),
(269.5,197,q),
(275,232,o),
(275,292,q),
(275,629,l),
(85,533,l),
(41,636,l),
(275,754,l),
(275,1390,l),
(103,1446,l),
(103,1528,l),
(684,1528,l),
(684,1446,l),
(631,1433,o),
(594.5,1421,q),
(558,1409,o),
(535,1388,q),
(512,1367,o),
(501.5,1331.5,q),
(491,1296,o),
(491,1236,q),
(491,864,l),
(865,1054,l),
(910,952,l),
(491,739,l),
(491,112,l),
(1071,143,l),
(1165,466,l),
(1278,466,l),
(1236,-18,l),
(1095,0,l),
(113,0,l),
(113,82,l)
);
}
);
width = 1362;
}
);
unicode = 321;
},
{
glyphname = onequarter;
layers = (
{
layerId = "090b295d-3f71-4cfe-961f-4c3f744a43b8";
name = Fore;
shapes = (
{
closed = 1;
nodes = (
(985,343,o),
(1053.5,428.5,q),
(1122,514,o),
(1193,601,q),
(1264,688,o),
(1335,772.5,q),
(1406,857,o),
(1472,931,q),
(1559,891,l),
(1559,297,l),
(1582,298,o),
(1609.5,300,q),
(1637,302,o),
(1665,305,q),
(1693,308,o),
(1718,313,q),
(1743,318,o),
(1760,325,q),
(1749,198,l),
(1559,198,l),
(1559,-51,l),
(1366,-81,l),
(1367,198,l),
(984,195,l),
(924,267,l)
);
},
{
closed = 1;
nodes = (
(1366,662,l),
(1336,633,o),
(1298,589.5,q),
(1260,546,o),
(1221,496.5,q),
(1182,447,o),
(1144.5,395.5,q),
(1107,344,o),
(1077,298,q),
(1366,298,l)
);
},
{
closed = 1;
nodes = (
(185,758,o),
(214,772.5,q),
(243,787,o),
(259.5,810,q),
(276,833,o),
(282,865,q),
(288,897,o),
(288,941,q),
(290,1273,l),
(290,1296,o),
(284,1310,q),
(278,1324,o),
(260.5,1332,q),
(243,1340,o),
(210.5,1342.5,q),
(178,1345,o),
(124,1345,q),
(124,1428,l),
(162,1436,o),
(210,1454,q),
(252,1468,o),
(309,1493.5,q),
(366,1519,o),
(436,1558,q),
(498,1523,l),
(488,1483,o),
(476.5,1418.5,q),
(465,1354,o),
(467,1273,q),
(470,806,l),
(600,751,l),
(600,679,l),
(138,679,l),
(138,751,l)
);
},
{
closed = 1;
nodes = (
(1376,1410,l),
(495,-80,l),
(383,-32,l),
(1272,1466,l)
);
}
);
width = 1872;
}
);
unicode = 188;
},
{
glyphname = onesuperior;
layers = (
{
layerId = "090b295d-3f71-4cfe-961f-4c3f744a43b8";
name = Fore;
shapes = (
{
closed = 1;
nodes = (
(180,758,o),
(209,772.5,q),
(238,787,o),
(254.5,810,q),
(271,833,o),
(277,865,q),
(283,897,o),
(283,941,q),
(285,1273,l),
(285,1296,o),
(279,1310,q),
(273,1324,o),
(255.5,1332,q),
(238,1340,o),
(205.5,1342.5,q),
(173,1345,o),
(119,1345,q),
(119,1428,l),
(157,1436,o),
(205,1454,q),
(247,1468,o),
(304,1493.5,q),
(361,1519,o),
(431,1558,q),
(493,1523,l),
(483,1483,o),
(471.5,1418.5,q),
(460,1354,o),
(462,1273,q),
(465,806,l),
(595,751,l),
(595,679,l),
(133,679,l),
(133,751,l)
);
}
);
width = 683;
}
);
unicode = 185;
},
{
glyphname = threequarters;
layers = (
{
layerId = "090b295d-3f71-4cfe-961f-4c3f744a43b8";
name = Fore;
shapes = (
{
closed = 1;
nodes = (
(985,343,o),
(1053.5,428.5,q),
(1122,514,o),
(1193,601,q),
(1264,688,o),
(1335,772.5,q),
(1406,857,o),
(1472,931,q),
(1559,891,l),
(1559,297,l),
(1582,298,o),
(1609.5,300,q),
(1637,302,o),
(1665,305,q),
(1693,308,o),
(1718,313,q),
(1743,318,o),
(1760,325,q),
(1749,198,l),
(1559,198,l),
(1559,-51,l),
(1366,-81,l),
(1367,198,l),
(984,195,l),
(924,267,l)
);
},
{
closed = 1;
nodes = (
(1366,662,l),
(1336,633,o),
(1298,589.5,q),
(1260,546,o),
(1221,496.5,q),
(1182,447,o),
(1144.5,395.5,q),
(1107,344,o),
(1077,298,q),
(1366,298,l)
);
},
{
closed = 1;
nodes = (
(242,679,o),
(318.5,692.5,q),
(395,706,o),
(443.5,731.5,q),
(492,757,o),
(514.5,792,q),
(537,827,o),
(537,867,q),
(537,918,o),
(523.5,952.5,q),
(510,987,o),
(484.5,1008.5,q),
(459,1030,o),
(422,1039.5,q),
(385,1049,o),
(337,1049,q),
(319,1049,o),
(291.5,1045.5,q),
(264,1042,o),
(244,1039,q),
(258,1139,l),
(301,1146,o),
(345,1164,q),
(389,1182,o),
(424.5,1210,q),
(460,1238,o),
(482.5,1276.5,q),
(505,1315,o),
(505,1363,q),
(505,1387,o),
(494.5,1403,q),
(484,1419,o),
(467.5,1429.5,q),
(451,1440,o),
(431.5,1444.5,q),
(412,1449,o),
(393,1449,q),
(373,1449,o),
(357,1448,q),
(341,1447,o),
(326,1444,q),
(311,1441,o),
(295,1436.5,q),
(279,1432,o),
(259,1425,q),
(243,1418,o),
(229,1391,q),
(215,1364,o),
(195,1307,q),
(104,1307,l),
(104,1505,l),
(131,1515,o),
(166.5,1524,q),
(202,1533,o),
(243,1539.5,q),
(284,1546,o),
(328.5,1549.5,q),
(373,1553,o),
(417,1553,q),
(467,1553,o),
(517,1542,q),
(567,1531,o),
(606.5,1508.5,q),
(646,1486,o),
(670.5,1453,q),
(695,1420,o),
(695,1375,q),
(695,1332,o),
(678,1293,q),
(661,1254,o),
(634.5,1222,q),
(608,1190,o),
(577,1167,q),
(546,1144,o),
(519,1132,q),
(519,1119,l),
(580,1110,o),
(623,1085.5,q),
(666,1061,o),
(693,1029,q),
(720,997,o),
(732.5,962,q),
(745,927,o),
(745,896,q),
(745,823,o),
(701,760.5,q),
(657,698,o),
(580,655,q),
(503,612,o),
(399,592,q),
(295,572,o),
(175,583,q),
(164,584,o),
(154,586,q),
(144,588,o),
(134,589,q),
(134,683,l)
);
},
{
closed = 1;
nodes = (
(1376,1410,l),
(495,-80,l),
(383,-32,l),
(1272,1466,l)
);
}
);
width = 1872;
}
);
unicode = 190;
},
{
glyphname = threesuperior;
layers = (
{
layerId = "090b295d-3f71-4cfe-961f-4c3f744a43b8";
name = Fore;
shapes = (
{
closed = 1;
nodes = (
(277,679,o),
(353.5,692.5,q),
(430,706,o),
(478.5,731.5,q),
(527,757,o),
(549.5,792,q),
(572,827,o),
(572,867,q),
(572,918,o),
(558.5,952.5,q),
(545,987,o),
(519.5,1008.5,q),
(494,1030,o),
(457,1039.5,q),
(420,1049,o),
(372,1049,q),
(354,1049,o),
(326.5,1045.5,q),
(299,1042,o),
(279,1039,q),
(293,1139,l),
(336,1146,o),
(380,1164,q),
(424,1182,o),
(459.5,1210,q),
(495,1238,o),
(517.5,1276.5,q),
(540,1315,o),
(540,1363,q),
(540,1387,o),
(529.5,1403,q),
(519,1419,o),
(502.5,1429.5,q),
(486,1440,o),
(466.5,1444.5,q),
(447,1449,o),
(428,1449,q),
(408,1449,o),
(392,1448,q),
(376,1447,o),
(361,1444,q),
(346,1441,o),
(330,1436.5,q),
(314,1432,o),
(294,1425,q),
(278,1418,o),
(264,1391,q),
(250,1364,o),
(230,1307,q),
(139,1307,l),
(139,1505,l),
(166,1515,o),
(201.5,1524,q),
(237,1533,o),
(278,1539.5,q),
(319,1546,o),
(363.5,1549.5,q),
(408,1553,o),
(452,1553,q),
(502,1553,o),
(552,1542,q),
(602,1531,o),
(641.5,1508.5,q),
(681,1486,o),
(705.5,1453,q),
(730,1420,o),
(730,1375,q),
(730,1332,o),
(713,1293,q),
(696,1254,o),
(669.5,1222,q),
(643,1190,o),
(612,1167,q),
(581,1144,o),
(554,1132,q),
(554,1119,l),
(615,1110,o),
(658,1085.5,q),
(701,1061,o),
(728,1029,q),
(755,997,o),
(767.5,962,q),
(780,927,o),
(780,896,q),
(780,823,o),
(736,760.5,q),
(692,698,o),
(615,655,q),
(538,612,o),
(434,592,q),
(330,572,o),
(210,583,q),
(199,584,o),
(189,586,q),
(179,588,o),
(169,589,q),
(169,683,l)
);
}
);
width = 853;
}
);
unicode = 179;
},
{
glyphname = twosuperior;
layers = (
{
layerId = "090b295d-3f71-4cfe-961f-4c3f744a43b8";
name = Fore;
shapes = (
{
closed = 1;
nodes = (
(101,694,o),
(97,708,q),
(93,720,o),
(89.5,732.5,q),
(86,745,o),
(86,753,q),
(123,785,o),
(171.5,826,q),
(220,867,o),
(272,913.5,q),
(324,960,o),
(374,1010.5,q),
(424,1061,o),
(463.5,1112.5,q),
(503,1164,o),
(527.5,1214.5,q),
(552,1265,o),
(552,1313,q),
(552,1358,o),
(539,1384.5,q),
(526,1411,o),
(510,1425,q),
(492,1441,o),
(469,1446,q),
(441,1449,o),
(412,1448,q),
(387,1447,o),
(357.5,1443.5,q),
(328,1440,o),
(301,1429,q),
(294,1426,o),
(285,1410.5,q),
(276,1395,o),
(266,1372,q),
(256,1349,o),
(246,1320.5,q),
(236,1292,o),
(227,1263,q),
(128,1263,l),
(122,1504,l),
(178,1526,o),
(246.5,1540.5,q),
(315,1555,o),
(385,1559,q),
(455,1563,o),
(520.5,1553,q),
(586,1543,o),
(637,1515,q),
(688,1487,o),
(718.5,1439.5,q),
(749,1392,o),
(749,1320,q),
(749,1261,o),
(724,1205,q),
(699,1149,o),
(659,1097,q),
(619,1045,o),
(569,998,q),
(519,951,o),
(469,911.5,q),
(419,872,o),
(374,841,q),
(329,810,o),
(299,790,q),
(641,801,l),
(642,802,o),
(646.5,805.5,q),
(651,809,o),
(661,822,q),
(671,835,o),
(685.5,860.5,q),
(700,886,o),
(720,932,q),
(829,933,l),
(818,662,l),
(675,678,l),
(107,678,l),
(107,678,l)
);
}
);
width = 849;
}
);
unicode = 178;
},
{
glyphname = brokenbar;
layers = (
{
layerId = "090b295d-3f71-4cfe-961f-4c3f744a43b8";
name = Fore;
shapes = (
{
closed = 1;
nodes = (
(329,1740,l),
(329,851,l),
(183,851,l),
(183,1732,l)
);
},
{
closed = 1;
nodes = (
(329,511,l),
(329,-360,l),
(183,-360,l),
(183,503,l)
);
}
);
width = 513;
}
);
unicode = 166;
},
{
glyphname = minus;
layers = (
{
layerId = "090b295d-3f71-4cfe-961f-4c3f744a43b8";
name = Fore;
shapes = (
{
closed = 1;
nodes = (
(1001,702,l),
(1001,539,l),
(191,539,l),
(191,702,l)
);
}
);
width = 1193;
}
);
unicode = 8722;
},
{
glyphname = multiply;
layers = (
{
layerId = "090b295d-3f71-4cfe-961f-4c3f744a43b8";
name = Fore;
shapes = (
{
closed = 1;
nodes = (
(467,599,l),
(212,854,l),
(328,969,l),
(582,714,l),
(837,969,l),
(953,854,l),
(698,599,l),
(953,344,l),
(837,229,l),
(582,483,l),
(328,229,l),
(212,344,l)
);
}
);
width = 1196;
}
);
unicode = 215;
},
{
glyphname = lslash;
layers = (
{
layerId = "090b295d-3f71-4cfe-961f-4c3f744a43b8";
name = Fore;
shapes = (
{
closed = 1;
nodes = (
(150,99,o),
(182,111,q),
(214,123,o),
(231,144,q),
(248,165,o),
(253.5,200,q),
(259,235,o),
(259,295,q),
(259,653,l),
(126,578,l),
(70,678,l),
(259,784,l),
(259,1290,l),
(259,1344,o),
(245,1373.5,q),
(231,1403,o),
(208,1419,q),
(185,1435,o),
(155,1442,q),
(125,1449,o),
(92,1457,q),
(92,1530,l),
(137,1539,o),
(171,1546,q),
(205,1553,o),
(231.5,1560,q),
(258,1567,o),
(281,1574.5,q),
(304,1582,o),
(328,1592,q),
(352,1602,o),
(380,1615.5,q),
(408,1629,o),
(445,1648,q),
(482,1627,l),
(475,1557,o),
(472,1469.5,q),
(469,1382,o),
(468,1286.5,q),
(467,1191,o),
(467.5,1093,q),
(468,995,o),
(468,903,q),
(468,902,l),
(619,988,l),
(672,885,l),
(467,770,l),
(467,680,o),
(466.5,599,q),
(466,518,o),
(466,441.5,q),
(466,365,o),
(466,290.5,q),
(466,216,o),
(468,140,q),
(641,85,l),
(641,3,l),
(98,3,l),
(98,85,l)
);
}
);
width = 680;
}
);
unicode = 322;
},
{
glyphname = exclam;
layers = (
{
layerId = "090b295d-3f71-4cfe-961f-4c3f744a43b8";
name = Fore;
shapes = (
{
closed = 1;
nodes = (
(284,710,o),
(274.5,861,q),
(265,1012,o),
(251.5,1134,q),
(238,1256,o),
(217,1356,q),
(196,1456,o),
(161,1546,q),
(161,1563,l),
(200,1575,o),
(238.5,1583,q),
(277,1591,o),
(316,1598,q),
(355,1605,o),
(393.5,1613.5,q),
(432,1622,o),
(471,1636,q),
(475,1632,l),
(475,1550,o),
(470.5,1471,q),
(466,1392,o),
(459.5,1311,q),
(453,1230,o),
(445,1144,q),
(437,1058,o),
(429.5,961.5,q),
(422,865,o),
(415.5,755.5,q),
(409,646,o),
(407,518,q),
(295,518,l)
);
},
{
closed = 1;
nodes = (
(207,144,o),
(218,170.5,q),
(229,197,o),
(249,217.5,q),
(269,238,o),
(296,250,q),
(323,262,o),
(355,262,q),
(388,262,o),
(415,249.5,q),
(442,237,o),
(461.5,216.5,q),
(481,196,o),
(492,169.5,q),
(503,143,o),
(503,115,q),
(503,86,o),
(492,60,q),
(481,34,o),
(461.5,14,q),
(442,-6,o),
(414.5,-18,q),
(387,-30,o),
(355,-30,q),
(323,-30,o),
(296,-18,q),
(269,-6,o),
(249,14,q),
(229,34,o),
(218,60,q),
(207,86,o),
(207,115,q)
);
}
);
width = 683;
}
);
unicode = 33;
},
{
glyphname = numbersign;
layers = (
{
layerId = "090b295d-3f71-4cfe-961f-4c3f744a43b8";
name = Fore;
shapes = (
{
closed = 1;
nodes = (
(50,529,l),
(50,657,l),
(383,657,l),
(427,957,l),
(102,957,l),
(102,1087,l),
(441,1087,l),
(509,1582,l),
(641,1582,l),
(572,1087,l),
(867,1087,l),
(938,1582,l),
(1064,1582,l),
(996,1087,l),
(1314,1087,l),
(1314,957,l),
(984,957,l),
(938,657,l),
(1258,657,l),
(1258,529,l),
(923,529,l),
(849,0,l),
(721,0,l),
(795,529,l),
(496,529,l),
(421,0,l),
(291,0,l),
(367,529,l)
);
},
{
closed = 1;
nodes = (
(854,957,l),
(554,957,l),
(509,657,l),
(813,657,l)
);
}
);
width = 1364;
}
);
unicode = 35;
},
{
glyphname = dollar;
layers = (
{
layerId = "090b295d-3f71-4cfe-961f-4c3f744a43b8";
name = Fore;
shapes = (
{
closed = 1;
nodes = (
(307,497,l),
(349,249,l),
(355,227,o),
(361,213.5,q),
(367,200,o),
(373.5,192,q),
(380,184,o),
(386,179.5,q),
(392,175,o),
(397,172,q),
(414,163,o),
(439.5,155,q),
(465,147,o),
(497,139.5,q),
(529,132,o),
(565.5,126,q),
(602,120,o),
(640,116,q),
(644,670,l),
(587,690,o),
(530,711.5,q),
(473,733,o),
(420.5,760,q),
(368,787,o),
(322,821.5,q),
(276,856,o),
(242.5,902,q),
(209,948,o),
(189.5,1007,q),
(170,1066,o),
(170,1143,q),
(170,1239,o),
(210.5,1311.5,q),
(251,1384,o),
(317.5,1434.5,q),
(384,1485,o),
(470.5,1514.5,q),
(557,1544,o),
(650,1555,q),
(650,1768,l),
(759,1768,l),
(759,1562,l),
(817,1562,o),
(862,1557.5,q),
(907,1553,o),
(949,1545.5,q),
(991,1538,o),
(1036,1529,q),
(1081,1520,o),
(1138,1512,q),
(1109,1116,l),
(1002,1116,l),
(962,1292,l),
(957,1315,o),
(950.5,1330.5,q),
(944,1346,o),
(935,1357.5,q),
(926,1369,o),
(915,1376.5,q),
(904,1384,o),
(890,1391,q),
(836,1412,o),
(759,1420,q),
(755,874,l),
(810,855,o),
(866,835,q),
(922,815,o),
(973,790,q),
(1024,765,o),
(1068,733,q),
(1112,701,o),
(1144.5,658,q),
(1177,615,o),
(1195.5,559,q),
(1214,503,o),
(1214,431,q),
(1214,324,o),
(1178.5,246.5,q),
(1143,169,o),
(1080.5,115.5,q),
(1018,62,o),
(933,31,q),
(848,0,o),
(749,-13,q),
(749,-219,l),
(640,-219,l),
(640,-22,l),
(626,-23,o),
(611,-23.5,q),
(596,-24,o),
(582,-24,q),
(531,-24,o),
(474.5,-14,q),
(418,-4,o),
(361.5,13,q),
(305,30,o),
(251,52.5,q),
(197,75,o),
(149,100,q),
(193,499,l)
);
},
{
closed = 1;
nodes = (
(593,1424,o),
(543.5,1413.5,q),
(494,1403,o),
(461,1383,q),
(450,1369,o),
(435.5,1356.5,q),
(421,1344,o),
(408,1325,q),
(395,1306,o),
(386,1278.5,q),
(377,1251,o),
(377,1209,q),
(377,1147,o),
(398,1101,q),
(419,1055,o),
(455.5,1020.5,q),
(492,986,o),
(541,960,q),
(590,934,o),
(646,913,q),
(650,1425,l)
);
},
{
closed = 1;
nodes = (
(789,113,o),
(824,124.5,q),
(859,136,o),
(888,152.5,q),
(917,169,o),
(939.5,188,q),
(962,207,o),
(978,224,q),
(991,241,o),
(1001.5,268,q),
(1012,295,o),
(1012,348,q),
(1012,405,o),
(992,448.5,q),
(972,492,o),
(936.5,525,q),
(901,558,o),
(854,583.5,q),
(807,609,o),
(753,630,q),
(749,112,l)
);
}
);
width = 1328;
}
);
unicode = 36;
},
{
glyphname = percent;
layers = (
{
layerId = "090b295d-3f71-4cfe-961f-4c3f744a43b8";
name = Fore;
shapes = (
{
closed = 1;
nodes = (
(1358,1576,l),
(779,-166,l),
(636,-166,l),
(1209,1576,l)
);
},
{
closed = 1;
nodes = (
(384,579,o),
(314.5,614.5,q),
(245,650,o),
(202,707,q),
(159,764,o),
(139.5,835.5,q),
(120,907,o),
(120,980,q),
(120,1057,o),
(142.5,1135,q),
(165,1213,o),
(212,1276,q),
(259,1339,o),
(331,1378.5,q),
(403,1418,o),
(501,1418,q),
(597,1418,o),
(666.5,1382,q),
(736,1346,o),
(780.5,1288,q),
(825,1230,o),
(846,1157.5,q),
(867,1085,o),
(867,1012,q),
(867,935,o),
(844.5,858,q),
(822,781,o),
(775.5,719,q),
(729,657,o),
(656.5,618,q),
(584,579,o),
(485,579,q)
);
},
{
closed = 1;
nodes = (
(539,677,o),
(569,684,q),
(599,691,o),
(626,708,q),
(645,736,o),
(657.5,767.5,q),
(670,799,o),
(677,832,q),
(684,865,o),
(687,898,q),
(690,931,o),
(690,961,q),
(690,1029,o),
(681.5,1093.5,q),
(673,1158,o),
(649.5,1208,q),
(626,1258,o),
(585,1288,q),
(544,1318,o),
(479,1318,q),
(476,1318,o),
(460,1317,q),
(444,1316,o),
(424.5,1312.5,q),
(405,1309,o),
(385,1302.5,q),
(365,1296,o),
(353,1286,q),
(333,1258,o),
(321,1227,q),
(309,1196,o),
(302.5,1163.5,q),
(296,1131,o),
(293.5,1098.5,q),
(291,1066,o),
(291,1036,q),
(291,968,o),
(302,903,q),
(313,838,o),
(340,788,q),
(367,738,o),
(412,707.5,q),
(457,677,o),
(525,677,q)
);
},
{
closed = 1;
nodes = (
(1123,458,o),
(1145.5,536,q),
(1168,614,o),
(1215,677,q),
(1262,740,o),
(1334,779.5,q),
(1406,819,o),
(1504,819,q),
(1600,819,o),
(1669.5,783,q),
(1739,747,o),
(1783.5,689,q),
(1828,631,o),
(1849,558.5,q),
(1870,486,o),
(1870,413,q),
(1870,336,o),
(1847.5,259,q),
(1825,182,o),
(1778.5,120,q),
(1732,58,o),
(1659.5,19,q),
(1587,-20,o),
(1488,-20,q),
(1387,-20,o),
(1317.5,15.5,q),
(1248,51,o),
(1205,108,q),
(1162,165,o),
(1142.5,236.5,q),
(1123,308,o),
(1123,381,q)
);
},
{
closed = 1;
nodes = (
(1294,369,o),
(1305,304,q),
(1316,239,o),
(1343,189,q),
(1370,139,o),
(1415,108.5,q),
(1460,78,o),
(1528,78,q),
(1542,78,o),
(1572,85,q),
(1602,92,o),
(1629,109,q),
(1667,166,o),
(1685,233.5,q),
(1703,301,o),
(1703,362,q),
(1703,430,o),
(1693,494.5,q),
(1683,559,o),
(1658,609,q),
(1633,659,o),
(1590,689,q),
(1547,719,o),
(1482,719,q),
(1479,719,o),
(1463,718,q),
(1447,717,o),
(1427.5,713.5,q),
(1408,710,o),
(1388,703.5,q),
(1368,697,o),
(1356,687,q),
(1336,659,o),
(1324,628,q),
(1312,597,o),
(1305.5,564.5,q),
(1299,532,o),
(1296.5,499.5,q),
(1294,467,o),
(1294,437,q)
);
}
);
width = 1990;
}
);
unicode = 37;
},
{
glyphname = ampersand;
layers = (
{
layerId = "090b295d-3f71-4cfe-961f-4c3f744a43b8";
name = Fore;
shapes = (
{
closed = 1;
nodes = (
(130,480,o),
(162.5,546,q),
(195,612,o),
(248,662.5,q),
(301,713,o),
(368.5,750.5,q),
(436,788,o),
(507,821,q),
(493,836,o),
(483,851,q),
(452,891,o),
(427,933,q),
(402,975,o),
(384.5,1020,q),
(367,1065,o),
(358,1113.5,q),
(349,1162,o),
(351,1215,q),
(352,1247,o),
(362.5,1284.5,q),
(373,1322,o),
(393.5,1358.5,q),
(414,1395,o),
(446,1429,q),
(478,1463,o),
(522.5,1489.5,q),
(567,1516,o),
(625.5,1531.5,q),
(684,1547,o),
(757,1547,q),
(832,1547,o),
(896.5,1526,q),
(961,1505,o),
(1009,1467.5,q),
(1057,1430,o),
(1084.5,1378.5,q),
(1112,1327,o),
(1112,1267,q),
(1112,1175,o),
(1081.5,1110,q),
(1051,1045,o),
(1001.5,997.5,q),
(952,950,o),
(889.5,914.5,q),
(827,879,o),
(763,847,q),
(763,847,o),
(764,846,q),
(807,792,o),
(850,739.5,q),
(893,687,o),
(939.5,631,q),
(986,575,o),
(1037.5,513.5,q),
(1089,452,o),
(1149,381,q),
(1172,353,l),
(1242,444,o),
(1288.5,547.5,q),
(1335,651,o),
(1346,751,q),
(1350,790,o),
(1351,823,q),
(1352,856,o),
(1341.5,880,q),
(1331,904,o),
(1305,918.5,q),
(1279,933,o),
(1230,936,q),
(1229,1030,l),
(1395,1030,l),
(1475,1030,o),
(1512,983.5,q),
(1549,937,o),
(1549,861,q),
(1549,800,o),
(1528.5,725.5,q),
(1508,651,o),
(1470,571.5,q),
(1432,492,o),
(1377.5,412,q),
(1323,332,o),
(1256,259,q),
(1297,214,o),
(1328,187,q),
(1359,160,o),
(1385.5,145.5,q),
(1412,131,o),
(1437.5,126,q),
(1463,121,o),
(1494,121,q),
(1519,121,o),
(1548,123.5,q),
(1577,126,o),
(1618,129,q),
(1619,58,l),
(1592,33,o),
(1557,14,q),
(1527,-3,o),
(1483,-16.5,q),
(1439,-30,o),
(1382,-30,q),
(1342,-30,o),
(1301.5,-16,q),
(1261,-2,o),
(1223.5,20,q),
(1186,42,o),
(1153.5,67,q),
(1121,92,o),
(1096,115,q),
(1000,46,o),
(892,4,q),
(784,-38,o),
(666,-38,q),
(542,-38,o),
(443,-4,q),
(344,30,o),
(274.5,88,q),
(205,146,o),
(167.5,224,q),
(130,302,o),
(130,391,q)
);
},
{
closed = 1;
nodes = (
(752,946,o),
(791.5,980.5,q),
(831,1015,o),
(859.5,1054.5,q),
(888,1094,o),
(904,1138.5,q),
(920,1183,o),
(920,1232,q),
(920,1289,o),
(904,1330,q),
(888,1371,o),
(862,1397.5,q),
(836,1424,o),
(803.5,1437,q),
(771,1450,o),
(739,1450,q),
(686,1450,o),
(649.5,1433.5,q),
(613,1417,o),
(589,1389.5,q),
(565,1362,o),
(553.5,1327,q),
(542,1292,o),
(541,1255,q),
(539,1205,o),
(552.5,1160.5,q),
(566,1116,o),
(589,1074.5,q),
(612,1033,o),
(642,994,q),
(672,955,o),
(704,917,q)
);
},
{
closed = 1;
nodes = (
(354,337,o),
(393.5,275,q),
(433,213,o),
(494,175.5,q),
(555,138,o),
(627.5,122,q),
(700,106,o),
(766,106,q),
(829,106,o),
(893,131,q),
(957,156,o),
(1017,201,q),
(998,224,o),
(968,260.5,q),
(938,297,o),
(901.5,341,q),
(865,385,o),
(823,435.5,q),
(781,486,o),
(738,538,q),
(695,590,o),
(652.5,641,q),
(610,692,o),
(573,738,q),
(534,711,o),
(495,678,q),
(456,645,o),
(424.5,606.5,q),
(393,568,o),
(373.5,523.5,q),
(354,479,o),
(354,428,q)
);
}
);
width = 1702;
}
);
unicode = 38;
},
{
glyphname = quotesingle;
layers = (
{
layerId = "090b295d-3f71-4cfe-961f-4c3f744a43b8";
name = Fore;
shapes = (
{
closed = 1;
nodes = (
(263,1202,o),
(247.5,1353.5,q),
(232,1505,o),
(219,1599,q),
(223,1635,l),
(459,1635,l),
(463,1599,l),
(455,1552,o),
(447.5,1490,q),
(440,1428,o),
(432,1353,q),
(424,1278,o),
(415.5,1191.5,q),
(407,1105,o),
(397,1010,q),
(284,1010,l),
(284,1010,l)
);
}
);
width = 683;
}
);
unicode = 39;
},
{
glyphname = parenleft;
layers = (
{
layerId = "090b295d-3f71-4cfe-961f-4c3f744a43b8";
name = Fore;
shapes = (
{
closed = 1;
nodes = (
(225,819,o),
(246.5,939,q),
(268,1059,o),
(304.5,1167.5,q),
(341,1276,o),
(389,1372,q),
(437,1468,o),
(489.5,1548.5,q),
(542,1629,o),
(596.5,1694,q),
(651,1759,o),
(700,1806,q),
(773,1745,l),
(738,1690,o),
(697.5,1624.5,q),
(657,1559,o),
(616,1483.5,q),
(575,1408,o),
(537,1321,q),
(499,1234,o),
(469.5,1136,q),
(440,1038,o),
(422.5,928,q),
(405,818,o),
(405,697,q),
(405,506,o),
(436,355.5,q),
(467,205,o),
(517.5,87,q),
(568,-31,o),
(631,-120,q),
(694,-209,o),
(758,-276,q),
(633,-394,l),
(561,-328,o),
(488,-233,q),
(415,-138,o),
(356.5,-6.5,q),
(298,125,o),
(261.5,297,q),
(225,469,o),
(225,689,q)
);
}
);
width = 853;
}
);
unicode = 40;
},
{
glyphname = asterisk;
layers = (
{
layerId = "090b295d-3f71-4cfe-961f-4c3f744a43b8";
name = Fore;
shapes = (
{
closed = 1;
nodes = (
(288,1376,l),
(604,1147,l),
(564,1536,l),
(753,1536,l),
(710,1147,l),
(1028,1376,l),
(1123,1213,l),
(764,1055,l),
(1122,895,l),
(1027,732,l),
(710,963,l),
(764,1055,l),
(710,1147,l),
(604,1147,l),
(551,1055,l),
(194,1214,l)
);
},
{
closed = 1;
nodes = (
(551,1055,l),
(604,963,l),
(286,733,l),
(192,896,l)
);
},
{
closed = 1;
nodes = (
(710,963,l),
(751,575,l),
(563,575,l),
(604,963,l)
);
}
);
width = 1303;
}
);
unicode = 42;
},
{
glyphname = plus;
layers = (
{
layerId = "090b295d-3f71-4cfe-961f-4c3f744a43b8";
name = Fore;
shapes = (
{
closed = 1;
nodes = (
(171,539,l),
(171,702,l),
(515,702,l),
(515,1057,l),
(678,1057,l),
(678,702,l),
(1021,702,l),
(1021,539,l),
(678,539,l),
(678,173,l),
(515,173,l),
(515,539,l)
);
}
);
width = 1193;
}
);
unicode = 43;
},
{
glyphname = comma;
layers = (
{
layerId = "090b295d-3f71-4cfe-961f-4c3f744a43b8";
name = Fore;
shapes = (
{
closed = 1;
nodes = (
(143,21,o),
(139,59,q),
(137,75,o),
(135.5,90.5,q),
(134,106,o),
(133,118,q),
(132,130,o),
(131.5,137.5,q),
(131,145,o),
(131,146,q),
(132,147,o),
(144.5,157,q),
(157,167,o),
(179,179,q),
(201,191,o),
(231,200.5,q),
(261,210,o),
(296,210,q),
(332,210,o),
(361.5,197,q),
(391,184,o),
(412,161,q),
(433,138,o),
(444.5,107.5,q),
(456,77,o),
(456,41,q),
(456,-14,o),
(444.5,-64.5,q),
(433,-115,o),
(414,-159.5,q),
(395,-204,o),
(371.5,-242.5,q),
(348,-281,o),
(323,-313,q),
(265,-388,o),
(191,-447,q),
(110,-380,l),
(129,-356,o),
(156,-325.5,q),
(183,-295,o),
(207.5,-260,q),
(232,-225,o),
(249,-185,q),
(266,-145,o),
(266,-102,q),
(266,-64,o),
(247.5,-47.5,q),
(229,-31,o),
(207,-26,q),
(181,-21,o),
(148,-26,q)
);
}
);
width = 576;
}
);
unicode = 44;
},
{
glyphname = hyphen;
layers = (
{
layerId = "090b295d-3f71-4cfe-961f-4c3f744a43b8";
name = Fore;
shapes = (
{
closed = 1;
nodes = (
(832,702,l),
(832,539,l),
(191,539,l),
(191,702,l)
);
}
);
width = 1023;
}
);
unicode = 45;
},
{
glyphname = period;
layers = (
{
layerId = "090b295d-3f71-4cfe-961f-4c3f744a43b8";
name = Fore;
shapes = (
{
closed = 1;
nodes = (
(140,144,o),
(151,170.5,q),
(162,197,o),
(182,217.5,q),
(202,238,o),
(229,250,q),
(256,262,o),
(288,262,q),
(321,262,o),
(348,249.5,q),
(375,237,o),
(394.5,216.5,q),
(414,196,o),
(425,169.5,q),
(436,143,o),
(436,115,q),
(436,86,o),
(425,60,q),
(414,34,o),
(394.5,14,q),
(375,-6,o),
(347.5,-18,q),
(320,-30,o),
(288,-30,q),
(256,-30,o),
(229,-18,q),
(202,-6,o),
(182,14,q),
(162,34,o),
(151,60,q),
(140,86,o),
(140,115,q)
);
}
);
width = 576;
}
);
unicode = 46;
},
{
glyphname = slash;
layers = (
{
layerId = "090b295d-3f71-4cfe-961f-4c3f744a43b8";
name = Fore;
shapes = (
{
closed = 1;
nodes = (
(730,1672,l),
(251,-166,l),
(118,-166,l),
(591,1672,l)
);
}
);
width = 849;
}
);
unicode = 47;
},
{
glyphname = zero;
layers = (
{
layerId = "090b295d-3f71-4cfe-961f-4c3f744a43b8";
name = Fore;
shapes = (
{
closed = 1;
nodes = (
(133,740,o),
(147,829,q),
(161,918,o),
(190,999,q),
(219,1080,o),
(264,1150,q),
(309,1220,o),
(371.5,1271.5,q),
(434,1323,o),
(513.5,1352,q),
(593,1381,o),
(692,1381,q),
(789,1381,o),
(866.5,1354.5,q),
(944,1328,o),
(1003.5,1281,q),
(1063,1234,o),
(1106,1170,q),
(1149,1106,o),
(1176,1030.5,q),
(1203,955,o),
(1216,871.5,q),
(1229,788,o),
(1229,703,q),
(1229,613,o),
(1215,524.5,q),
(1201,436,o),
(1172,356,q),
(1143,276,o),
(1098,207,q),
(1053,138,o),
(990.5,87.5,q),
(928,37,o),
(848,8.5,q),
(768,-20,o),
(668,-20,q),
(567,-20,o),
(488,6,q),
(409,32,o),
(349.5,78,q),
(290,124,o),
(249,187,q),
(208,250,o),
(182,324.5,q),
(156,399,o),
(144.5,482,q),
(133,565,o),
(133,650,q)
);
},
{
closed = 1;
nodes = (
(739,127,o),
(758,130,q),
(777,133,o),
(800,139,q),
(823,145,o),
(847.5,155,q),
(872,165,o),
(895,179,q),
(924,227,o),
(947.5,282,q),
(971,337,o),
(988,394,q),
(1005,451,o),
(1014,508,q),
(1023,565,o),
(1023,617,q),
(1023,695,o),
(1015,770.5,q),
(1007,846,o),
(989.5,914.5,q),
(972,983,o),
(944,1040.5,q),
(916,1098,o),
(875.5,1140.5,q),
(835,1183,o),
(781.5,1206.5,q),
(728,1230,o),
(659,1230,q),
(653,1230,o),
(628,1228.5,q),
(603,1227,o),
(570.5,1221.5,q),
(538,1216,o),
(505.5,1205.5,q),
(473,1195,o),
(453,1177,q),
(424,1129,o),
(401,1074.5,q),
(378,1020,o),
(362.5,963.5,q),
(347,907,o),
(338.5,851,q),
(330,795,o),
(330,743,q),
(330,626,o),
(352,515,q),
(374,404,o),
(422,318,q),
(470,232,o),
(545.5,179.5,q),
(621,127,o),
(728,127,q)
);
}
);
width = 1362;
}
);
unicode = 48;
},
{
glyphname = one;
layers = (
{
layerId = "090b295d-3f71-4cfe-961f-4c3f744a43b8";
name = Fore;
shapes = (
{
closed = 1;
nodes = (
(206,99,o),
(249,111.5,q),
(292,124,o),
(321.5,144.5,q),
(351,165,o),
(366.5,199,q),
(382,233,o),
(382,292,q),
(384,1023,l),
(384,1076,o),
(362,1100,q),
(340,1124,o),
(304.5,1131.5,q),
(269,1139,o),
(223.5,1136.5,q),
(178,1134,o),
(131,1134,q),
(131,1206,l),
(205,1231,o),
(280,1262,q),
(344,1288,o),
(418.5,1323,q),
(493,1358,o),
(559,1397,q),
(609,1376,l),
(593,1092,l),
(593,137,l),
(803,82,l),
(803,0,l),
(151,0,l),
(151,82,l)
);
}
);
width = 883;
}
);
unicode = 49;
},
{
glyphname = two;
layers = (
{
layerId = "090b295d-3f71-4cfe-961f-4c3f744a43b8";
name = Fore;
shapes = (
{
closed = 1;
nodes = (
(131,19,o),
(127,37,q),
(124,53,o),
(121.5,69.5,q),
(119,86,o),
(118,98,q),
(171,147,o),
(240.5,209,q),
(310,271,o),
(384,342.5,q),
(458,414,o),
(529.5,493,q),
(601,572,o),
(657.5,655,q),
(714,738,o),
(748.5,823,q),
(783,908,o),
(783,991,q),
(783,1046,o),
(769.5,1090.5,q),
(756,1135,o),
(736,1166.5,q),
(716,1198,o),
(693,1216.5,q),
(670,1235,o),
(651,1239,q),
(625,1245,o),
(592.5,1248,q),
(560,1251,o),
(524,1249,q),
(488,1247,o),
(450,1239,q),
(412,1231,o),
(373,1215,q),
(362,1210,o),
(352,1182.5,q),
(342,1155,o),
(332,1114.5,q),
(322,1074,o),
(311,1025.5,q),
(300,977,o),
(286,931,q),
(166,931,l),
(156,1294,l),
(201,1313,o),
(253,1329.5,q),
(305,1346,o),
(360.5,1357.5,q),
(416,1369,o),
(473.5,1375,q),
(531,1381,o),
(588,1381,q),
(673,1381,o),
(751.5,1363,q),
(830,1345,o),
(889,1304.5,q),
(948,1264,o),
(983.5,1197.5,q),
(1019,1131,o),
(1019,1033,q),
(1019,959,o),
(1000.5,894,q),
(982,829,o),
(949.5,768.5,q),
(917,708,o),
(872,650,q),
(827,592,o),
(774,533,q),
(723,475,o),
(665.5,419,q),
(608,363,o),
(552,312,q),
(496,261,o),
(445.5,215.5,q),
(395,170,o),
(358,132,q),
(887,185,l),
(888,187,o),
(890.5,192.5,q),
(893,198,o),
(902,217.5,q),
(911,237,o),
(928,275.5,q),
(945,314,o),
(976,383,q),
(1082,385,l),
(1065,-24,l),
(908,0,l),
(135,0,l),
(135,0,l)
);
}
);
width = 1193;
}
);
unicode = 50;
},
{
glyphname = three;
layers = (
{
layerId = "090b295d-3f71-4cfe-961f-4c3f744a43b8";
name = Fore;
shapes = (
{
closed = 1;
nodes = (
(250,0,o),
(356,24,q),
(462,48,o),
(540.5,94.5,q),
(619,141,o),
(664,209,q),
(709,277,o),
(709,365,q),
(709,443,o),
(685,495,q),
(661,547,o),
(617.5,577.5,q),
(574,608,o),
(513,621,q),
(452,634,o),
(378,634,q),
(365,634,o),
(347.5,632.5,q),
(330,631,o),
(312,628.5,q),
(294,626,o),
(276.5,623.5,q),
(259,621,o),
(246,618,q),
(267,757,l),
(333,767,o),
(403,793.5,q),
(473,820,o),
(531,864.5,q),
(589,909,o),
(626,972.5,q),
(663,1036,o),
(663,1119,q),
(663,1158,o),
(646,1185,q),
(629,1212,o),
(603,1228.5,q),
(577,1245,o),
(546.5,1252.5,q),
(516,1260,o),
(489,1260,q),
(447,1260,o),
(407,1252,q),
(367,1244,o),
(326,1222,q),
(315,1216,o),
(304.5,1194.5,q),
(294,1173,o),
(283.5,1139.5,q),
(273,1106,o),
(261,1063.5,q),
(249,1021,o),
(235,975,q),
(135,975,l),
(135,1301,l),
(168,1319,o),
(212,1333.5,q),
(256,1348,o),
(307,1358.5,q),
(358,1369,o),
(413,1375,q),
(468,1381,o),
(523,1381,q),
(595,1381,o),
(663,1364.5,q),
(731,1348,o),
(784,1313.5,q),
(837,1279,o),
(869.5,1225.5,q),
(902,1172,o),
(902,1099,q),
(902,1056,o),
(885.5,1018,q),
(869,980,o),
(842.5,946.5,q),
(816,913,o),
(781.5,884.5,q),
(747,856,o),
(711.5,833,q),
(676,810,o),
(642.5,792,q),
(609,774,o),
(583,762,q),
(583,742,l),
(655,744,o),
(710,731,q),
(765,718,o),
(805.5,694,q),
(846,670,o),
(873,638,q),
(900,606,o),
(916.5,570.5,q),
(933,535,o),
(940,498,q),
(947,461,o),
(947,429,q),
(947,349,o),
(920.5,277,q),
(894,205,o),
(845,144,q),
(796,83,o),
(726.5,34.5,q),
(657,-14,o),
(572.5,-48.5,q),
(488,-83,o),
(390,-101.5,q),
(292,-120,o),
(185,-120,q),
(170,-120,o),
(155.5,-120,q),
(141,-120,o),
(127,-118,q),
(127,0,l),
(127,0,l)
);
}
);
width = 1046;
}
);
unicode = 51;
},
{
glyphname = four;
layers = (
{
layerId = "090b295d-3f71-4cfe-961f-4c3f744a43b8";
name = Fore;
shapes = (
{
closed = 1;
nodes = (
(138,565,o),
(231.5,688.5,q),
(325,812,o),
(424,935,q),
(523,1058,o),
(625.5,1180,q),
(728,1302,o),
(830,1420,q),
(899,1388,l),
(899,472,l),
(962,475,o),
(1016.5,485.5,q),
(1071,496,o),
(1119,517,q),
(1104,346,l),
(901,346,l),
(901,-14,l),
(689,-61,l),
(690,346,l),
(54,346,l),
(54,445,l)
);
},
{
closed = 1;
nodes = (
(689,1065,l),
(634,995,o),
(577,921,q),
(520,847,o),
(464.5,772,q),
(409,697,o),
(357,622,q),
(305,547,o),
(261,475,q),
(689,475,l)
);
}
);
width = 1189;
}
);
unicode = 52;
},
{
glyphname = five;
layers = (
{
layerId = "090b295d-3f71-4cfe-961f-4c3f744a43b8";
name = Fore;
shapes = (
{
closed = 1;
nodes = (
(190,3,o),
(256,16,q),
(322,29,o),
(386,53.5,q),
(450,78,o),
(508,114.5,q),
(566,151,o),
(609.5,200.5,q),
(653,250,o),
(679,312,q),
(705,374,o),
(705,451,q),
(705,503,o),
(686.5,549,q),
(668,595,o),
(634,632.5,q),
(600,670,o),
(550.5,697,q),
(501,724,o),
(440,739,q),
(391,751,o),
(340.5,756,q),
(290,761,o),
(247.5,764,q),
(205,767,o),
(175.5,770,q),
(146,773,o),
(139,779,q),
(131,787,o),
(127.5,806.5,q),
(124,826,o),
(132,857,q),
(267,1395,l),
(329,1389,o),
(397.5,1387,q),
(466,1385,o),
(533,1387,q),
(600,1389,o),
(662,1394,q),
(724,1399,o),
(774,1407,q),
(798,1415,o),
(815,1428,q),
(832,1441,o),
(845,1456.5,q),
(858,1472,o),
(869.5,1491,q),
(881,1510,o),
(894,1530,q),
(971,1527,l),
(897,1210,l),
(378,1210,l),
(364,1168,o),
(351.5,1125.5,q),
(339,1083,o),
(329,1046.5,q),
(319,1010,o),
(312,982,q),
(305,954,o),
(302,941,q),
(298,924,o),
(309.5,915.5,q),
(321,907,o),
(352,907,q),
(635,907,o),
(777.5,802.5,q),
(920,698,o),
(920,479,q),
(920,377,o),
(872.5,277,q),
(825,177,o),
(728,94.5,q),
(631,12,o),
(485,-43.5,q),
(339,-99,o),
(142,-111,q),
(129,0,l),
(129,0,l)
);
}
);
width = 1043;
}
);
unicode = 53;
},
{
glyphname = six;
layers = (
{
layerId = "090b295d-3f71-4cfe-961f-4c3f744a43b8";
name = Fore;
shapes = (
{
closed = 1;
nodes = (
(454,147,o),
(504.5,114.5,q),
(555,82,o),
(635,84,q),
(703,85,o),
(750.5,110.5,q),
(798,136,o),
(828,180.5,q),
(858,225,o),
(871.5,287.5,q),
(885,350,o),
(885,426,q),
(885,460,o),
(879,504.5,q),
(873,549,o),
(862,593.5,q),
(851,638,o),
(836,676,q),
(821,714,o),
(804,735,q),
(782,755,o),
(742.5,767,q),
(703,779,o),
(654,779,q),
(624,779,o),
(593,774,q),
(562,769,o),
(536,762.5,q),
(510,756,o),
(490.5,748,q),
(471,740,o),
(462,734,q),
(462,845,l),
(487,855,o),
(521.5,868.5,q),
(556,882,o),
(594.5,894,q),
(633,906,o),
(672.5,914,q),
(712,922,o),
(748,922,q),
(828,922,o),
(892.5,884,q),
(957,846,o),
(1002,784.5,q),
(1047,723,o),
(1071.5,645.5,q),
(1096,568,o),
(1096,488,q),
(1096,426,o),
(1080.5,363,q),
(1065,300,o),
(1035.5,242.5,q),
(1006,185,o),
(964,135,q),
(922,85,o),
(868.5,48.5,q),
(815,12,o),
(751.5,-9,q),
(688,-30,o),
(616,-30,q),
(531,-30,o),
(461,-7,q),
(391,16,o),
(336,55.5,q),
(281,95,o),
(240.5,147.5,q),
(200,200,o),
(173.5,258.5,q),
(147,317,o),
(134,379,q),
(121,441,o),
(121,500,q),
(121,666,o),
(175,817,q),
(229,968,o),
(330.5,1094.5,q),
(432,1221,o),
(578.5,1319,q),
(725,1417,o),
(911,1478,q),
(946,1374,l),
(820,1321,o),
(710,1238,q),
(600,1155,o),
(517.5,1048,q),
(435,941,o),
(387.5,812.5,q),
(340,684,o),
(340,539,q),
(340,498,o),
(344,452.5,q),
(348,407,o),
(357,362,q),
(366,317,o),
(381,275.5,q),
(396,234,o),
(418,201,q)
);
}
);
width = 1193;
}
);
unicode = 54;
},
{
glyphname = seven;
layers = (
{
layerId = "090b295d-3f71-4cfe-961f-4c3f744a43b8";
name = Fore;
shapes = (
{
closed = 1;
nodes = (
(344,118,o),
(374,206.5,q),
(404,295,o),
(442,392,q),
(480,489,o),
(525.5,592.5,q),
(571,696,o),
(621.5,800,q),
(672,904,o),
(726,1006,q),
(780,1108,o),
(835,1204,q),
(820,1195,o),
(786,1190.5,q),
(752,1186,o),
(707.5,1184,q),
(663,1182,o),
(610.5,1181.5,q),
(558,1181,o),
(504.5,1181,q),
(451,1181,o),
(400.5,1179.5,q),
(350,1178,o),
(309,1174,q),
(284,1174,o),
(266,1158.5,q),
(248,1143,o),
(233,1120,q),
(218,1097,o),
(206,1070,q),
(194,1043,o),
(181,1020,q),
(94,1021,l),
(152,1371,l),
(860,1371,l),
(879,1371,o),
(894.5,1371.5,q),
(910,1372,o),
(924.5,1372.5,q),
(939,1373,o),
(953.5,1374,q),
(968,1375,o),
(985,1376,q),
(1028,1306,l),
(963,1204,o),
(905,1086,q),
(847,968,o),
(797,844,q),
(747,720,o),
(705,597,q),
(663,474,o),
(629.5,362.5,q),
(596,251,o),
(571,157.5,q),
(546,64,o),
(531,0,q),
(325,0,l),
(325,44,l)
);
}
);
width = 1043;
}
);
unicode = 55;
},
{
glyphname = eight;
layers = (
{
layerId = "090b295d-3f71-4cfe-961f-4c3f744a43b8";
name = Fore;
shapes = (
{
closed = 1;
nodes = (
(152,371,o),
(180.5,425.5,q),
(209,480,o),
(254.5,523.5,q),
(300,567,o),
(356,600,q),
(412,633,o),
(467,659,q),
(410,690,o),
(361,725.5,q),
(312,761,o),
(276,804.5,q),
(240,848,o),
(220,900,q),
(200,952,o),
(200,1017,q),
(200,1098,o),
(239.5,1165,q),
(279,1232,o),
(342,1280,q),
(405,1328,o),
(482,1354.5,q),
(559,1381,o),
(634,1381,q),
(712,1381,o),
(786,1365.5,q),
(860,1350,o),
(918,1314,q),
(976,1278,o),
(1011.5,1219.5,q),
(1047,1161,o),
(1047,1074,q),
(1047,1004,o),
(1022.5,951.5,q),
(998,899,o),
(956.5,858,q),
(915,817,o),
(860,782.5,q),
(805,748,o),
(743,714,q),
(803,689,o),
(864,655,q),
(925,621,o),
(974,577,q),
(1023,533,o),
(1054,477.5,q),
(1085,422,o),
(1085,355,q),
(1085,265,o),
(1043.5,193.5,q),
(1002,122,o),
(934,72.5,q),
(866,23,o),
(779,-3.5,q),
(692,-30,o),
(601,-30,q),
(512,-30,o),
(431,-10,q),
(350,10,o),
(288,51,q),
(226,92,o),
(189,154.5,q),
(152,217,o),
(152,302,q)
);
},
{
closed = 1;
nodes = (
(702,796,o),
(739,829.5,q),
(776,863,o),
(801.5,903,q),
(827,943,o),
(840,986,q),
(853,1029,o),
(853,1071,q),
(853,1113,o),
(839,1150,q),
(825,1187,o),
(796.5,1214,q),
(768,1241,o),
(724,1257,q),
(680,1273,o),
(619,1273,q),
(593,1273,o),
(573,1270.5,q),
(553,1268,o),
(536.5,1263.5,q),
(520,1259,o),
(506,1253.5,q),
(492,1248,o),
(477,1242,q),
(442,1217,o),
(417.5,1177.5,q),
(393,1138,o),
(393,1080,q),
(393,1023,o),
(413.5,974,q),
(434,925,o),
(469.5,886,q),
(505,847,o),
(552.5,818,q),
(600,789,o),
(654,773,q)
);
},
{
closed = 1;
nodes = (
(348,260,o),
(369.5,214.5,q),
(391,169,o),
(430,139.5,q),
(469,110,o),
(525,96,q),
(581,82,o),
(650,82,q),
(716,82,o),
(769.5,102.5,q),
(823,123,o),
(855,158,q),
(869,182,o),
(880,215.5,q),
(891,249,o),
(891,279,q),
(891,343,o),
(858,391.5,q),
(825,440,o),
(775.5,478.5,q),
(726,517,o),
(668,546,q),
(610,575,o),
(560,600,q),
(528,581,o),
(490.5,559,q),
(453,537,o),
(421.5,506,q),
(390,475,o),
(369,431,q),
(348,387,o),
(348,324,q)
);
}
);
width = 1194;
}
);
unicode = 56;
},
{
glyphname = nine;
layers = (
{
layerId = "090b295d-3f71-4cfe-961f-4c3f744a43b8";
name = Fore;
shapes = (
{
closed = 1;
nodes = (
(427,33,o),
(532.5,118.5,q),
(638,204,o),
(714.5,314.5,q),
(791,425,o),
(834,556,q),
(877,687,o),
(877,832,q),
(877,872,o),
(873,914.5,q),
(869,957,o),
(860,998.5,q),
(851,1040,o),
(836,1078.5,q),
(821,1117,o),
(799,1150,q),
(763,1204,o),
(712.5,1236,q),
(662,1268,o),
(582,1267,q),
(514,1265,o),
(466.5,1243.5,q),
(419,1222,o),
(389,1181,q),
(359,1140,o),
(345.5,1080.5,q),
(332,1021,o),
(332,945,q),
(332,905,o),
(338,859,q),
(344,813,o),
(355,770,q),
(366,727,o),
(381,691,q),
(396,655,o),
(413,636,q),
(438,613,o),
(479,602.5,q),
(520,592,o),
(564,592,q),
(595,592,o),
(625.5,598,q),
(656,604,o),
(682,613,q),
(708,622,o),
(727,631.5,q),
(746,641,o),
(755,648,q),
(755,537,l),
(725,524,o),
(690,509,q),
(655,494,o),
(617.5,480.5,q),
(580,467,o),
(542,458,q),
(504,449,o),
(469,449,q),
(389,449,o),
(324.5,483.5,q),
(260,518,o),
(215,577,q),
(170,636,o),
(145.5,715,q),
(121,794,o),
(121,883,q),
(121,977,o),
(155.5,1066.5,q),
(190,1156,o),
(253,1226,q),
(316,1296,o),
(404.5,1338.5,q),
(493,1381,o),
(601,1381,q),
(686,1381,o),
(756,1359.5,q),
(826,1338,o),
(881,1301,q),
(936,1264,o),
(976.5,1214,q),
(1017,1164,o),
(1043.5,1107.5,q),
(1070,1051,o),
(1083,990,q),
(1096,929,o),
(1096,871,q),
(1096,704,o),
(1047,550.5,q),
(998,397,o),
(902,267.5,q),
(806,138,o),
(664,37.5,q),
(522,-63,o),
(336,-124,q),
(301,-20,l),
(301,-20,l)
);
}
);
width = 1193;
}
);
unicode = 57;
},
{
glyphname = less;
layers = (
{
layerId = "090b295d-3f71-4cfe-961f-4c3f744a43b8";
name = Fore;
shapes = (
{
closed = 1;
nodes = (
(1196,1098,l),
(1196,965,l),
(284,568,l),
(1196,171,l),
(1196,37,l),
(151,502,l),
(151,634,l)
);
}
);
width = 1362;
}
);
unicode = 60;
},
{
glyphname = equal;
layers = (
{
layerId = "090b295d-3f71-4cfe-961f-4c3f744a43b8";
name = Fore;
shapes = (
{
closed = 1;
nodes = (
(1037,899,l),
(1037,777,l),
(158,777,l),
(158,899,l)
);
},
{
closed = 1;
nodes = (
(1037,464,l),
(1037,341,l),
(158,341,l),
(158,464,l)
);
}
);
width = 1195;
}
);
unicode = 61;
},
{
glyphname = question;
layers = (
{
layerId = "090b295d-3f71-4cfe-961f-4c3f744a43b8";
name = Fore;
shapes = (
{
closed = 1;
nodes = (
(573,495,o),
(531,512,q),
(489,529,o),
(457.5,554,q),
(426,579,o),
(408,614.5,q),
(390,650,o),
(390,701,q),
(390,731,o),
(402,762.5,q),
(414,794,o),
(434,826,q),
(458,860,o),
(493.5,902.5,q),
(529,945,o),
(569,993,q),
(609,1041,o),
(648,1091.5,q),
(687,1142,o),
(719,1191.5,q),
(751,1241,o),
(770.5,1287.5,q),
(790,1334,o),
(790,1373,q),
(790,1417,o),
(767,1458.5,q),
(744,1500,o),
(704.5,1529,q),
(665,1558,o),
(613,1569,q),
(561,1580,o),
(503,1563,q),
(462,1543,o),
(421.5,1521,q),
(381,1499,o),
(344,1477,q),
(307,1455,o),
(275,1434.5,q),
(243,1414,o),
(218,1396,q),
(156,1490,l),
(178,1508,o),
(206.5,1533,q),
(235,1558,o),
(267,1584.5,q),
(299,1611,o),
(332.5,1636.5,q),
(366,1662,o),
(398,1682,q),
(467,1708,o),
(529.5,1721.5,q),
(592,1735,o),
(640,1735,q),
(710,1735,o),
(776.5,1711,q),
(843,1687,o),
(895.5,1643,q),
(948,1599,o),
(980,1536,q),
(1012,1473,o),
(1012,1394,q),
(1012,1345,o),
(986,1290.5,q),
(960,1236,o),
(922,1183,q),
(884,1130,o),
(840.5,1083,q),
(797,1036,o),
(761,1002,q),
(731,974,o),
(698.5,938.5,q),
(666,903,o),
(638.5,866.5,q),
(611,830,o),
(593.5,796,q),
(576,762,o),
(576,737,q),
(576,718,o),
(584,699,q),
(592,680,o),
(614.5,667,q),
(637,654,o),
(677,650.5,q),
(717,647,o),
(782,660,q),
(813,580,l),
(622,480,l)
);
},
{
closed = 1;
nodes = (
(449,144,o),
(460,170.5,q),
(471,197,o),
(491,217.5,q),
(511,238,o),
(538,250,q),
(565,262,o),
(597,262,q),
(630,262,o),
(657,249.5,q),
(684,237,o),
(703.5,216.5,q),
(723,196,o),
(734,169.5,q),
(745,143,o),
(745,115,q),
(745,86,o),
(734,60,q),
(723,34,o),
(703.5,14,q),
(684,-6,o),
(656.5,-18,q),
(629,-30,o),
(597,-30,q),
(565,-30,o),
(538,-18,q),
(511,-6,o),
(491,14,q),
(471,34,o),
(460,60,q),
(449,86,o),
(449,115,q)
);
}
);
width = 1126;
}
);
unicode = 63;
},
{
glyphname = at;
layers = (
{
layerId = "090b295d-3f71-4cfe-961f-4c3f744a43b8";
name = Fore;
shapes = (
{
closed = 1;
nodes = (
(123,696,o),
(157.5,819,q),
(192,942,o),
(254.5,1046.5,q),
(317,1151,o),
(405,1234.5,q),
(493,1318,o),
(600,1376,q),
(707,1434,o),
(829.5,1465.5,q),
(952,1497,o),
(1085,1497,q),
(1230,1497,o),
(1360,1462.5,q),
(1490,1428,o),
(1589,1354,q),
(1688,1280,o),
(1746.5,1162.5,q),
(1805,1045,o),
(1806,879,q),
(1807,748,o),
(1766,632.5,q),
(1725,517,o),
(1652,428,q),
(1579,339,o),
(1478,283,q),
(1377,227,o),
(1257,215,q),
(1236,213,o),
(1220,212.5,q),
(1204,212,o),
(1189.5,211,q),
(1175,210,o),
(1159,210,q),
(1143,210,o),
(1121,210,q),
(1086,210,o),
(1069.5,224,q),
(1053,238,o),
(1051,258,q),
(1048,280,o),
(1049,299,q),
(1050,318,o),
(1053.5,337,q),
(1057,356,o),
(1062.5,375.5,q),
(1068,395,o),
(1074,418,q),
(1054,402,o),
(1022.5,379.5,q),
(991,357,o),
(953.5,332.5,q),
(916,308,o),
(876,284.5,q),
(836,261,o),
(800,242.5,q),
(764,224,o),
(735,212.5,q),
(706,201,o),
(691,201,q),
(650,201,o),
(619.5,225,q),
(589,249,o),
(569,286.5,q),
(549,324,o),
(539,370,q),
(529,416,o),
(529,461,q),
(530,551,o),
(550.5,636,q),
(571,721,o),
(608,796,q),
(645,871,o),
(696,934,q),
(747,997,o),
(808,1042.5,q),
(869,1088,o),
(939,1113,q),
(1009,1138,o),
(1084,1138,q),
(1103,1138,o),
(1126,1132,q),
(1149,1126,o),
(1173,1116,q),
(1188,1109,o),
(1204.5,1101,q),
(1221,1093,o),
(1237,1088,q),
(1297,1151,l),
(1389,1137,l),
(1366,1036,o),
(1343,948,q),
(1320,860,o),
(1300,774,q),
(1280,688,o),
(1263.5,599.5,q),
(1247,511,o),
(1236,410,q),
(1234,391,o),
(1241,379.5,q),
(1248,368,o),
(1259,361.5,q),
(1270,355,o),
(1283.5,352.5,q),
(1297,350,o),
(1308,350,q),
(1403,350,o),
(1471,395,q),
(1539,440,o),
(1583,512.5,q),
(1627,585,o),
(1647.5,676,q),
(1668,767,o),
(1668,859,q),
(1668,988,o),
(1621.5,1089.5,q),
(1575,1191,o),
(1495,1260.5,q),
(1415,1330,o),
(1308.5,1366.5,q),
(1202,1403,o),
(1083,1403,q),
(967,1403,o),
(862,1373.5,q),
(757,1344,o),
(667,1290.5,q),
(577,1237,o),
(504.5,1163,q),
(432,1089,o),
(381,1000,q),
(330,911,o),
(302.5,809.5,q),
(275,708,o),
(275,601,q),
(275,427,o),
(327,302,q),
(379,177,o),
(472.5,96.5,q),
(566,16,o),
(696,-21.5,q),
(826,-59,o),
(983,-59,q),
(1087,-59,o),
(1191.5,-43.5,q),
(1296,-28,o),
(1393,6,q),
(1399,-76,l),
(1284,-130,o),
(1158,-153,q),
(1032,-176,o),
(904,-176,q),
(796,-176,o),
(695.5,-156.5,q),
(595,-137,o),
(508.5,-97,q),
(422,-57,o),
(351,3.5,q),
(280,64,o),
(229,145.5,q),
(178,227,o),
(150.5,330,q),
(123,433,o),
(123,558,q)
);
},
{
closed = 1;
nodes = (
(707,495,o),
(712,472,q),
(717,449,o),
(729,434,q),
(741,419,o),
(761.5,412,q),
(782,405,o),
(813,405,q),
(837,405,o),
(874,419.5,q),
(911,434,o),
(949.5,455,q),
(988,476,o),
(1021.5,499,q),
(1055,522,o),
(1070,538,q),
(1079,582,o),
(1086.5,614,q),
(1094,646,o),
(1100.5,671.5,q),
(1107,697,o),
(1112.5,719.5,q),
(1118,742,o),
(1124,768,q),
(1130,794,o),
(1136.5,826,q),
(1143,858,o),
(1151,903,q),
(1129,927,o),
(1109.5,945,q),
(1090,963,o),
(1067,978,q),
(1015,1016,o),
(968.5,1008.5,q),
(922,1001,o),
(882,964.5,q),
(842,928,o),
(809.5,870,q),
(777,812,o),
(754.5,749.5,q),
(732,687,o),
(719.5,627,q),
(707,567,o),
(707,527,q)
);
}
);
width = 1830;
}
);
unicode = 64;
},
{
glyphname = A;
layers = (
{
layerId = "090b295d-3f71-4cfe-961f-4c3f744a43b8";
name = Fore;
shapes = (
{
closed = 1;
nodes = (
(9,96,o),
(49.5,107,q),
(90,118,o),
(119,138,q),
(630,1424,l),
(543,1456,l),
(542,1506,l),
(585,1516,o),
(614.5,1523,q),
(644,1530,o),
(672,1537.5,q),
(700,1545,o),
(733,1554,q),
(766,1563,o),
(817,1578,q),
(830,1543,o),
(841.5,1516,q),
(853,1489,o),
(867,1457.5,q),
(881,1426,o),
(900,1383.5,q),
(919,1341,o),
(947,1276,q),
(975,1211,o),
(1014.5,1117,q),
(1054,1023,o),
(1110,887,q),
(1166,751,o),
(1240.5,567.5,q),
(1315,384,o),
(1413,141,q),
(1402,137,l),
(1568,82,l),
(1568,0,l),
(972,0,l),
(972,82,l),
(1007,91,o),
(1036,99,q),
(1065,107,o),
(1087.5,117,q),
(1110,127,o),
(1127,140.5,q),
(1144,154,o),
(1155,174,q),
(1138,219,o),
(1107,299.5,q),
(1076,380,o),
(1025,510,q),
(425,510,l),
(287,129,l),
(490,82,l),
(490,0,l),
(-42,0,l),
(-42,82,l)
);
},
{
closed = 1;
nodes = (
(713,1297,l),
(701,1274,o),
(688,1235,q),
(469,631,l),
(978,631,l)
);
}
);
width = 1535;
}
);
unicode = 65;
},
{
glyphname = B;
layers = (
{
layerId = "090b295d-3f71-4cfe-961f-4c3f744a43b8";
name = Fore;
shapes = (
{
closed = 1;
nodes = (
(160,92,o),
(192,103.5,q),
(224,115,o),
(242.5,135,q),
(261,155,o),
(268,188.5,q),
(275,222,o),
(275,279,q),
(275,1397,l),
(110,1451,l),
(110,1530,l),
(313,1530,l),
(355,1530,o),
(404,1532,q),
(453,1534,o),
(501,1536,q),
(549,1538,o),
(593,1540,q),
(637,1542,o),
(670,1542,q),
(730,1542,o),
(790.5,1536.5,q),
(851,1531,o),
(907,1517.5,q),
(963,1504,o),
(1012,1480.5,q),
(1061,1457,o),
(1097,1421,q),
(1133,1385,o),
(1154,1335,q),
(1175,1285,o),
(1175,1218,q),
(1175,1134,o),
(1153,1068.5,q),
(1131,1003,o),
(1098.5,952.5,q),
(1066,902,o),
(1028,866.5,q),
(990,831,o),
(957,809,q),
(1024,790,o),
(1085.5,758.5,q),
(1147,727,o),
(1193,679.5,q),
(1239,632,o),
(1266.5,566.5,q),
(1294,501,o),
(1294,415,q),
(1294,332,o),
(1270.5,267,q),
(1247,202,o),
(1207.5,152.5,q),
(1168,103,o),
(1115,68.5,q),
(1062,34,o),
(1003.5,12,q),
(945,-10,o),
(884.5,-20,q),
(824,-30,o),
(768,-30,q),
(735,-30,o),
(683,-25.5,q),
(631,-21,o),
(572,-15,q),
(513,-9,o),
(453,-4.5,q),
(393,0,o),
(345,0,q),
(110,0,l),
(110,78,l)
);
},
{
closed = 1;
nodes = (
(518,840,o),
(562.5,843,q),
(607,846,o),
(667,846,q),
(706,846,o),
(748.5,843.5,q),
(791,841,o),
(835,834,q),
(855,853,o),
(877,881,q),
(899,909,o),
(917,946,q),
(935,983,o),
(947,1028.5,q),
(959,1074,o),
(959,1130,q),
(959,1220,o),
(934,1278.5,q),
(909,1337,o),
(865.5,1370.5,q),
(822,1404,o),
(763,1417.5,q),
(704,1431,o),
(636,1431,q),
(595,1431,o),
(557.5,1427.5,q),
(520,1424,o),
(491,1420,q),
(491,837,l)
);
},
{
closed = 1;
nodes = (
(546,110,o),
(579,104,q),
(612,98,o),
(638,95,q),
(664,92,o),
(690,91.5,q),
(716,91,o),
(758,91,q),
(791,91,o),
(824.5,93.5,q),
(858,96,o),
(889.5,101.5,q),
(921,107,o),
(947.5,114.5,q),
(974,122,o),
(993,132,q),
(1010,153,o),
(1024.5,175,q),
(1039,197,o),
(1050,225.5,q),
(1061,254,o),
(1067.5,291,q),
(1074,328,o),
(1074,379,q),
(1074,445,o),
(1051.5,507.5,q),
(1029,570,o),
(983,618.5,q),
(937,667,o),
(867,696,q),
(797,725,o),
(703,725,q),
(616,725,o),
(567.5,723,q),
(519,721,o),
(491,718,q),
(491,121,l)
);
}
);
width = 1374;
}
);
unicode = 66;
},
{
glyphname = C;
layers = (
{
layerId = "090b295d-3f71-4cfe-961f-4c3f744a43b8";
name = Fore;
shapes = (
{
closed = 1;
nodes = (
(100,838,o),
(122,937.5,q),
(144,1037,o),
(187,1127.5,q),
(230,1218,o),
(294,1295,q),
(358,1372,o),
(443,1428.5,q),
(528,1485,o),
(632.5,1517,q),
(737,1549,o),
(862,1549,q),
(968,1549,o),
(1063.5,1534,q),
(1159,1519,o),
(1233,1502,q),
(1319,1482,o),
(1394,1456,q),
(1346,1080,l),
(1233,1080,l),
(1186,1298,l),
(1147,1328,o),
(1101,1347,q),
(1055,1366,o),
(1004,1377.5,q),
(953,1389,o),
(898,1393.5,q),
(843,1398,o),
(786,1398,q),
(699,1398,o),
(616.5,1374,q),
(534,1350,o),
(471,1307,q),
(431,1260,o),
(401.5,1203,q),
(372,1146,o),
(353,1085,q),
(334,1024,o),
(324.5,961.5,q),
(315,899,o),
(315,841,q),
(315,694,o),
(351.5,568.5,q),
(388,443,o),
(466.5,350.5,q),
(545,258,o),
(669,205.5,q),
(793,153,o),
(968,153,q),
(983,153,o),
(1028,167,q),
(1073,181,o),
(1131.5,202,q),
(1190,223,o),
(1252.5,247,q),
(1315,271,o),
(1364,291,q),
(1403,209,l),
(1267,120,o),
(1169.5,73,q),
(1072,26,o),
(1007.5,5,q),
(943,-16,o),
(907,-18.5,q),
(871,-21,o),
(858,-21,q),
(730,-21,o),
(624.5,8.5,q),
(519,38,o),
(434.5,90,q),
(350,142,o),
(287.5,214,q),
(225,286,o),
(183,370,q),
(141,454,o),
(120.5,547.5,q),
(100,641,o),
(100,737,q)
);
}
);
width = 1511;
}
);
unicode = 67;
},
{
glyphname = D;
layers = (
{
layerId = "090b295d-3f71-4cfe-961f-4c3f744a43b8";
name = Fore;
shapes = (
{
closed = 1;
nodes = (
(154,96,o),
(188,108,q),
(222,120,o),
(241,141,q),
(260,162,o),
(267.5,197,q),
(275,232,o),
(275,292,q),
(275,1392,l),
(102,1448,l),
(102,1530,l),
(380,1530,l),
(440,1530,o),
(492.5,1532,q),
(545,1534,o),
(595.5,1536,q),
(646,1538,o),
(698.5,1540,q),
(751,1542,o),
(811,1542,q),
(1002,1542,o),
(1147,1489.5,q),
(1292,1437,o),
(1390,1345.5,q),
(1488,1254,o),
(1537.5,1129.5,q),
(1587,1005,o),
(1587,861,q),
(1587,743,o),
(1563.5,631.5,q),
(1540,520,o),
(1493.5,422.5,q),
(1447,325,o),
(1378.5,243.5,q),
(1310,162,o),
(1220,104,q),
(1130,46,o),
(1019,13.5,q),
(908,-19,o),
(778,-19,q),
(731,-19,o),
(657.5,-13.5,q),
(584,-8,o),
(507,0,q),
(102,0,l),
(102,82,l)
);
},
{
closed = 1;
nodes = (
(507,169,o),
(535,159.5,q),
(563,150,o),
(601,141,q),
(639,132,o),
(685,126,q),
(731,120,o),
(783,120,q),
(823,120,o),
(870.5,125,q),
(918,130,o),
(966,139,q),
(1014,148,o),
(1057.5,161,q),
(1101,174,o),
(1133,191,q),
(1168,221,o),
(1208.5,268,q),
(1249,315,o),
(1283.5,383,q),
(1318,451,o),
(1341,543.5,q),
(1364,636,o),
(1364,757,q),
(1364,923,o),
(1320.5,1048,q),
(1277,1173,o),
(1194,1256,q),
(1111,1339,o),
(989.5,1381,q),
(868,1423,o),
(712,1423,q),
(697,1423,o),
(655,1421.5,q),
(613,1420,o),
(559,1415,q),
(541,1408,o),
(528.5,1397.5,q),
(516,1387,o),
(507.5,1370.5,q),
(499,1354,o),
(495,1329,q),
(491,1304,o),
(491,1268,q),
(491,177,l)
);
}
);
width = 1701;
}
);
unicode = 68;
},
{
glyphname = E;
layers = (
{
layerId = "090b295d-3f71-4cfe-961f-4c3f744a43b8";
name = Fore;
shapes = (
{
closed = 1;
nodes = (
(165,94,o),
(196.5,105.5,q),
(228,117,o),
(245.5,137,q),
(263,157,o),
(269,190.5,q),
(275,224,o),
(275,281,q),
(275,1396,l),
(110,1450,l),
(110,1530,l),
(1005,1530,l),
(1147,1549,l),
(1147,1137,l),
(1043,1135,l),
(971,1384,l),
(823,1390,o),
(730.5,1393,q),
(638,1396,o),
(584,1398,q),
(522,1400,o),
(491,1399,q),
(491,834,l),
(933,863,l),
(933,673,l),
(491,704,l),
(491,119,l),
(1072,143,l),
(1164,430,l),
(1272,430,l),
(1253,-18,l),
(1112,0,l),
(115,0,l),
(115,80,l)
);
}
);
width = 1366;
}
);
unicode = 69;
},
{
glyphname = F;
layers = (
{
layerId = "090b295d-3f71-4cfe-961f-4c3f744a43b8";
name = Fore;
shapes = (
{
closed = 1;
nodes = (
(175,96,o),
(205.5,108,q),
(236,120,o),
(251.5,141,q),
(267,162,o),
(271,197,q),
(275,232,o),
(275,292,q),
(275,1396,l),
(110,1450,l),
(110,1528,l),
(1133,1529,l),
(1275,1549,l),
(1255,1157,l),
(1150,1155,l),
(1080,1376,l),
(639,1394,l),
(553,1398,o),
(491,1399,q),
(491,834,l),
(1061,863,l),
(1060,673,l),
(491,704,l),
(491,137,l),
(819,89,l),
(819,0,l),
(123,0,l),
(123,82,l)
);
}
);
width = 1355;
}
);
unicode = 70;
},
{
glyphname = G;
layers = (
{
layerId = "090b295d-3f71-4cfe-961f-4c3f744a43b8";
name = Fore;
shapes = (
{
closed = 1;
nodes = (
(100,836,o),
(124,935.5,q),
(148,1035,o),
(194,1125.5,q),
(240,1216,o),
(307.5,1293.5,q),
(375,1371,o),
(462,1428,q),
(549,1485,o),
(654,1517.5,q),
(759,1550,o),
(881,1550,q),
(987,1550,o),
(1080.5,1535.5,q),
(1174,1521,o),
(1246,1504,q),
(1330,1484,o),
(1401,1458,q),
(1363,1080,l),
(1260,1080,l),
(1210,1297,l),
(1169,1330,o),
(1119,1350,q),
(1069,1370,o),
(1013.5,1381,q),
(958,1392,o),
(900,1395.5,q),
(842,1399,o),
(787,1399,q),
(746,1399,o),
(702,1390.5,q),
(658,1382,o),
(616,1366.5,q),
(574,1351,o),
(538,1330.5,q),
(502,1310,o),
(477,1286,q),
(444,1243,o),
(415.5,1192.5,q),
(387,1142,o),
(366,1083.5,q),
(345,1025,o),
(333,959.5,q),
(321,894,o),
(321,822,q),
(321,731,o),
(337,644,q),
(353,557,o),
(384.5,480,q),
(416,403,o),
(464,337.5,q),
(512,272,o),
(575,225,q),
(638,178,o),
(716.5,151.5,q),
(795,125,o),
(889,125,q),
(941,125,o),
(979.5,127,q),
(1018,129,o),
(1049.5,133.5,q),
(1081,138,o),
(1109.5,146,q),
(1138,154,o),
(1170,166,q),
(1170,569,l),
(983,624,l),
(983,707,l),
(1484,707,l),
(1484,624,l),
(1461,618,o),
(1442,610.5,q),
(1423,603,o),
(1409.5,592,q),
(1396,581,o),
(1388,565.5,q),
(1380,550,o),
(1380,528,q),
(1380,319,l),
(1388,119,l),
(1287,62,o),
(1190.5,33.5,q),
(1094,5,o),
(1015.5,-7,q),
(937,-19,o),
(883.5,-19.5,q),
(830,-20,o),
(817,-20,q),
(699,-20,o),
(600,9.5,q),
(501,39,o),
(421.5,91,q),
(342,143,o),
(282,214.5,q),
(222,286,o),
(181.5,370,q),
(141,454,o),
(120.5,547,q),
(100,640,o),
(100,736,q)
);
}
);
width = 1573;
}
);
unicode = 71;
},
{
glyphname = H;
layers = (
{
layerId = "090b295d-3f71-4cfe-961f-4c3f744a43b8";
name = Fore;
shapes = (
{
closed = 1;
nodes = (
(154,96,o),
(188,108,q),
(222,120,o),
(241,141,q),
(260,162,o),
(267.5,197,q),
(275,232,o),
(275,292,q),
(275,1392,l),
(102,1448,l),
(102,1530,l),
(675,1530,l),
(675,1448,l),
(623,1434,o),
(587.5,1422,q),
(552,1410,o),
(530.5,1389,q),
(509,1368,o),
(500,1333,q),
(491,1298,o),
(491,1238,q),
(491,849,l),
(1215,849,l),
(1215,1392,l),
(1042,1448,l),
(1042,1530,l),
(1616,1530,l),
(1616,1448,l),
(1563,1434,o),
(1528,1422,q),
(1493,1410,o),
(1471,1389,q),
(1449,1368,o),
(1440,1333,q),
(1431,1298,o),
(1431,1238,q),
(1431,137,l),
(1628,82,l),
(1628,0,l),
(1042,0,l),
(1042,82,l),
(1094,96,o),
(1128,108,q),
(1162,120,o),
(1181,141,q),
(1200,162,o),
(1207.5,197,q),
(1215,232,o),
(1215,292,q),
(1215,729,l),
(491,729,l),
(491,137,l),
(687,82,l),
(687,0,l),
(102,0,l),
(102,82,l)
);
}
);
width = 1706;
}
);
unicode = 72;
},
{
glyphname = I;
layers = (
{
layerId = "090b295d-3f71-4cfe-961f-4c3f744a43b8";
name = Fore;
shapes = (
{
closed = 1;
nodes = (
(156,96,o),
(186,108,q),
(216,120,o),
(231,141,q),
(246,162,o),
(249.5,197,q),
(253,232,o),
(253,292,q),
(253,1390,l),
(109,1446,l),
(109,1528,l),
(626,1528,l),
(626,1446,l),
(573,1432,o),
(542,1420,q),
(511,1408,o),
(495,1387,q),
(479,1366,o),
(474,1331,q),
(469,1296,o),
(469,1236,q),
(469,137,l),
(626,82,l),
(626,0,l),
(104,0,l),
(104,82,l)
);
}
);
width = 724;
}
);
unicode = 73;
},
{
glyphname = J;
layers = (
{
layerId = "090b295d-3f71-4cfe-961f-4c3f744a43b8";
name = Fore;
shapes = (
{
closed = 1;
nodes = (
(103,1446,l),
(103,1530,l),
(644,1530,l),
(644,1446,l),
(595,1432,o),
(563.5,1420,q),
(532,1408,o),
(513.5,1387,q),
(495,1366,o),
(488,1331,q),
(481,1296,o),
(481,1236,q),
(481,464,l),
(481,334,o),
(480.5,236,q),
(480,138,o),
(477,64,q),
(474,-10,o),
(468.5,-62.5,q),
(463,-115,o),
(454,-153.5,q),
(445,-192,o),
(431,-220,q),
(417,-248,o),
(397,-272,q),
(346,-335,o),
(302,-374,q),
(258,-413,o),
(220.5,-437,q),
(183,-461,o),
(152.5,-475,q),
(122,-489,o),
(97,-502,q),
(38,-447,l),
(91,-398,o),
(133,-344,q),
(175,-290,o),
(204.5,-227,q),
(234,-164,o),
(249.5,-88.5,q),
(265,-13,o),
(265,80,q),
(265,1390,l)
);
}
);
width = 704;
}
);
unicode = 74;
},
{
glyphname = K;
layers = (
{
layerId = "090b295d-3f71-4cfe-961f-4c3f744a43b8";
name = Fore;
shapes = (
{
closed = 1;
nodes = (
(580,712,o),
(565.5,738,q),
(551,764,o),
(546,779,q),
(1016,1396,l),
(864,1446,l),
(864,1530,l),
(1425,1530,l),
(1425,1446,l),
(1389,1436,o),
(1361.5,1428.5,q),
(1334,1421,o),
(1308,1415.5,q),
(1282,1410,o),
(1256,1406,q),
(1230,1402,o),
(1197,1399,q),
(724,823,l),
(735,808,o),
(752,784,q),
(769,760,o),
(799.5,720.5,q),
(830,681,o),
(878,621,q),
(926,561,o),
(998,473,q),
(1031,433,o),
(1070,389,q),
(1109,345,o),
(1151.5,301.5,q),
(1194,258,o),
(1237.5,217.5,q),
(1281,177,o),
(1322.5,144,q),
(1364,111,o),
(1402,87,q),
(1440,63,o),
(1470,54,q),
(1469,-22,l),
(1394,-22,o),
(1320,-20,q),
(1246,-18,o),
(1175,6,q),
(1090,51,o),
(1017,119,q),
(944,187,o),
(875.5,274.5,q),
(807,362,o),
(739,466,q),
(671,570,o),
(597,686,q)
);
},
{
closed = 1;
nodes = (
(155,96,o),
(188.5,108,q),
(222,120,o),
(241.5,141,q),
(261,162,o),
(268,197,q),
(275,232,o),
(275,292,q),
(275,1390,l),
(103,1446,l),
(103,1530,l),
(664,1530,l),
(664,1446,l),
(611,1432,o),
(577.5,1420,q),
(544,1408,o),
(525,1387,q),
(506,1366,o),
(498.5,1331,q),
(491,1296,o),
(491,1236,q),
(491,137,l),
(664,82,l),
(664,0,l),
(103,0,l),
(103,82,l)
);
}
);
width = 1500;
}
);
unicode = 75;
},
{
glyphname = L;
layers = (
{
layerId = "090b295d-3f71-4cfe-961f-4c3f744a43b8";
name = Fore;
shapes = (
{
closed = 1;
nodes = (
(165,96,o),
(197,108,q),
(229,120,o),
(246.5,141,q),
(264,162,o),
(269.5,197,q),
(275,232,o),
(275,292,q),
(275,1390,l),
(103,1446,l),
(103,1530,l),
(684,1530,l),
(684,1446,l),
(631,1433,o),
(594.5,1421,q),
(558,1409,o),
(535,1388,q),
(512,1367,o),
(501.5,1331.5,q),
(491,1296,o),
(491,1236,q),
(491,112,l),
(1072,143,l),
(1165,466,l),
(1278,466,l),
(1236,-18,l),
(1095,0,l),
(113,0,l),
(113,82,l)
);
}
);
width = 1357;
}
);
unicode = 76;
},
{
glyphname = M;
layers = (
{
layerId = "090b295d-3f71-4cfe-961f-4c3f744a43b8";
name = Fore;
shapes = (
{
closed = 1;
nodes = (
(63,96,o),
(91,109,q),
(119,122,o),
(134,143,q),
(149,164,o),
(158.5,198.5,q),
(168,233,o),
(183,292,q),
(196,344,l),
(329,1323,l),
(324,1353,o),
(314,1372.5,q),
(304,1392,o),
(285.5,1405,q),
(267,1418,o),
(239,1427.5,q),
(211,1437,o),
(170,1448,q),
(170,1530,l),
(572,1530,l),
(572,1491,l),
(1025,355,l),
(1452,1504,l),
(1449,1530,l),
(1854,1530,l),
(1854,1446,l),
(1801,1432,o),
(1767.5,1421.5,q),
(1734,1411,o),
(1715,1392,q),
(1696,1373,o),
(1688.5,1340,q),
(1681,1307,o),
(1681,1247,q),
(1848,138,l),
(2031,83,l),
(2031,0,l),
(1460,0,l),
(1460,83,l),
(1512,97,o),
(1544,109,q),
(1576,121,o),
(1593.5,142,q),
(1611,163,o),
(1616.5,198,q),
(1622,233,o),
(1622,293,q),
(1491,1236,l),
(1491,1238,o),
(1490.5,1240.5,q),
(1490,1243,o),
(1490,1245,q),
(1047,54,l),
(1047,46,o),
(1045,38,q),
(1043,30,o),
(1038,25,q),
(946,-10,l),
(455,1250,l),
(344,384,l),
(339,137,l),
(512,82,l),
(512,0,l),
(11,0,l),
(11,82,l)
);
}
);
width = 2043;
}
);
unicode = 77;
},
{
glyphname = N;
layers = (
{
layerId = "090b295d-3f71-4cfe-961f-4c3f744a43b8";
name = Fore;
shapes = (
{
closed = 1;
nodes = (
(133,96,o),
(166,108,q),
(199,120,o),
(219,141,q),
(239,162,o),
(249,197,q),
(259,232,o),
(266,292,q),
(273,353,l),
(273,1315,l),
(268,1348,o),
(257,1368.5,q),
(246,1389,o),
(226,1403,q),
(206,1417,o),
(176,1426.5,q),
(146,1436,o),
(104,1448,q),
(104,1530,l),
(423,1530,l),
(1343,367,l),
(1336,866,l),
(1327,1390,l),
(1155,1446,l),
(1155,1530,l),
(1637,1530,l),
(1637,1446,l),
(1584,1432,o),
(1550.5,1420,q),
(1517,1408,o),
(1498,1387,q),
(1479,1366,o),
(1471.5,1331,q),
(1464,1296,o),
(1464,1236,q),
(1464,0,l),
(1348,0,l),
(1347,13,l),
(1344,0,l),
(413,1200,l),
(427,140,l),
(429,137,l),
(622,82,l),
(622,0,l),
(81,0,l),
(81,82,l)
);
}
);
width = 1706;
}
);
unicode = 78;
},
{
glyphname = O;
layers = (
{
layerId = "090b295d-3f71-4cfe-961f-4c3f744a43b8";
name = Fore;
shapes = (
{
closed = 1;
nodes = (
(100,833,o),
(122,933,q),
(144,1033,o),
(187.5,1124,q),
(231,1215,o),
(295.5,1293,q),
(360,1371,o),
(445.5,1428,q),
(531,1485,o),
(637.5,1517.5,q),
(744,1550,o),
(870,1550,q),
(994,1550,o),
(1097.5,1521,q),
(1201,1492,o),
(1282.5,1440,q),
(1364,1388,o),
(1425,1317,q),
(1486,1246,o),
(1526.5,1162,q),
(1567,1078,o),
(1587,985,q),
(1607,892,o),
(1607,796,q),
(1607,695,o),
(1585,595,q),
(1563,495,o),
(1519.5,404.5,q),
(1476,314,o),
(1411,236,q),
(1346,158,o),
(1260.5,101.5,q),
(1175,45,o),
(1068.5,12.5,q),
(962,-20,o),
(836,-20,q),
(712,-20,o),
(609,9,q),
(506,38,o),
(424,89.5,q),
(342,141,o),
(281,212,q),
(220,283,o),
(180,366.5,q),
(140,450,o),
(120,543,q),
(100,636,o),
(100,732,q)
);
},
{
closed = 1;
nodes = (
(323,748,o),
(338.5,661,q),
(354,574,o),
(385.5,495,q),
(417,416,o),
(465.5,348,q),
(514,280,o),
(580,230.5,q),
(646,181,o),
(731,153,q),
(816,125,o),
(920,125,q),
(1007,125,o),
(1084.5,148,q),
(1162,171,o),
(1225,208,q),
(1265,263,o),
(1295,323.5,q),
(1325,384,o),
(1344.5,446.5,q),
(1364,509,o),
(1374,571,q),
(1384,633,o),
(1384,692,q),
(1384,780,o),
(1368.5,867,q),
(1353,954,o),
(1321.5,1033.5,q),
(1290,1113,o),
(1241.5,1180.5,q),
(1193,1248,o),
(1126.5,1298,q),
(1060,1348,o),
(975,1376,q),
(890,1404,o),
(786,1404,q),
(699,1404,o),
(621.5,1379.5,q),
(544,1355,o),
(481,1315,q),
(441,1260,o),
(411,1200.5,q),
(381,1141,o),
(361.5,1079.5,q),
(342,1018,o),
(332.5,956,q),
(323,894,o),
(323,836,q)
);
}
);
width = 1706;
}
);
unicode = 79;
},
{
glyphname = P;
layers = (
{
layerId = "090b295d-3f71-4cfe-961f-4c3f744a43b8";
name = Fore;
shapes = (
{
closed = 1;
nodes = (
(155,96,o),
(188.5,108,q),
(222,120,o),
(241.5,141,q),
(261,162,o),
(268,197,q),
(275,232,o),
(275,292,q),
(275,1390,l),
(103,1456,l),
(103,1538,l),
(184,1531,o),
(247,1530.5,q),
(310,1530,o),
(362,1530,q),
(435,1530,o),
(491,1533.5,q),
(547,1537,o),
(600.5,1541.5,q),
(654,1546,o),
(712,1550,q),
(770,1554,o),
(847,1554,q),
(958,1554,o),
(1041.5,1519.5,q),
(1125,1485,o),
(1181.5,1425,q),
(1238,1365,o),
(1266,1282.5,q),
(1294,1200,o),
(1294,1104,q),
(1294,1025,o),
(1272.5,954.5,q),
(1251,884,o),
(1213,824.5,q),
(1175,765,o),
(1122.5,717.5,q),
(1070,670,o),
(1008,636.5,q),
(946,603,o),
(876.5,585,q),
(807,567,o),
(735,567,q),
(711,567,o),
(679.5,568.5,q),
(648,570,o),
(614,573.5,q),
(580,577,o),
(548,582.5,q),
(516,588,o),
(491,595,q),
(491,137,l),
(704,82,l),
(704,0,l),
(103,0,l),
(103,82,l)
);
},
{
closed = 1;
nodes = (
(533,724,o),
(586.5,713.5,q),
(640,703,o),
(699.5,700,q),
(759,697,o),
(821,702.5,q),
(883,708,o),
(943,725,q),
(973,753,o),
(997.5,781,q),
(1022,809,o),
(1039.5,846,q),
(1057,883,o),
(1066,934.5,q),
(1075,986,o),
(1075,1060,q),
(1075,1140,o),
(1054,1210,q),
(1033,1280,o),
(989.5,1331.5,q),
(946,1383,o),
(880,1413,q),
(814,1443,o),
(724,1443,q),
(667,1443,o),
(623.5,1435.5,q),
(580,1428,o),
(550.5,1406,q),
(521,1384,o),
(506,1343.5,q),
(491,1303,o),
(491,1236,q),
(491,740,l)
);
}
);
width = 1379;
}
);
unicode = 80;
},
{
glyphname = Q;
layers = (
{
layerId = "090b295d-3f71-4cfe-961f-4c3f744a43b8";
name = Fore;
shapes = (
{
closed = 1;
nodes = (
(100,833,o),
(122,933,q),
(144,1033,o),
(187.5,1124,q),
(231,1215,o),
(295.5,1293,q),
(360,1371,o),
(445.5,1428,q),
(531,1485,o),
(637.5,1517.5,q),
(744,1550,o),
(870,1550,q),
(994,1550,o),
(1097.5,1521,q),
(1201,1492,o),
(1282.5,1440,q),
(1364,1388,o),
(1425,1317,q),
(1486,1246,o),
(1526.5,1162,q),
(1567,1078,o),
(1587,985,q),
(1607,892,o),
(1607,796,q),
(1607,698,o),
(1586.5,601,q),
(1566,504,o),
(1525,415.5,q),
(1484,327,o),
(1423,250.5,q),
(1362,174,o),
(1282,116,q),
(1309,88,o),
(1338,61.5,q),
(1367,35,o),
(1399,9,q),
(1464,-44,o),
(1528,-91.5,q),
(1592,-139,o),
(1652.5,-176.5,q),
(1713,-214,o),
(1768.5,-239.5,q),
(1824,-265,o),
(1872,-274,q),
(1881,-325,l),
(1846,-329,o),
(1803.5,-334,q),
(1761,-339,o),
(1726,-342,q),
(1691,-347,o),
(1656.5,-348,q),
(1622,-349,o),
(1588,-347,q),
(1532,-343,o),
(1480,-322,q),
(1428,-301,o),
(1380,-268,q),
(1332,-235,o),
(1288.5,-193,q),
(1245,-151,o),
(1206,-105,q),
(1178,-72,o),
(1153.5,-40,q),
(1129,-8,o),
(1106,25,q),
(1045,3,o),
(978,-8.5,q),
(911,-20,o),
(836,-20,q),
(712,-20,o),
(609,9,q),
(506,38,o),
(424,89.5,q),
(342,141,o),
(281,212,q),
(220,283,o),
(180,366.5,q),
(140,450,o),
(120,543,q),
(100,636,o),
(100,732,q)
);
},
{
closed = 1;
nodes = (
(323,748,o),
(338.5,661,q),
(354,574,o),
(385.5,495,q),
(417,416,o),
(465.5,348,q),
(514,280,o),
(580,230.5,q),
(646,181,o),
(731,153,q),
(816,125,o),
(920,125,q),
(1007,125,o),
(1084.5,148,q),
(1162,171,o),
(1225,208,q),
(1265,263,o),
(1295,323.5,q),
(1325,384,o),
(1344.5,446.5,q),
(1364,509,o),
(1374,571,q),
(1384,633,o),
(1384,692,q),
(1384,780,o),
(1368.5,867,q),
(1353,954,o),
(1321.5,1033.5,q),
(1290,1113,o),
(1241.5,1180.5,q),
(1193,1248,o),
(1126.5,1298,q),
(1060,1348,o),
(975,1376,q),
(890,1404,o),
(786,1404,q),
(699,1404,o),
(621.5,1379.5,q),
(544,1355,o),
(481,1315,q),
(441,1260,o),
(411,1200.5,q),
(381,1141,o),
(361.5,1079.5,q),
(342,1018,o),
(332.5,956,q),
(323,894,o),
(323,836,q)
);
}
);
width = 1706;
}
);
unicode = 81;
},
{
glyphname = R;
layers = (
{
layerId = "090b295d-3f71-4cfe-961f-4c3f744a43b8";
name = Fore;
shapes = (
{
closed = 1;
nodes = (
(160,93,o),
(192,104.5,q),
(224,116,o),
(242.5,136,q),
(261,156,o),
(268,189.5,q),
(275,223,o),
(275,280,q),
(275,1396,l),
(110,1449,l),
(110,1530,l),
(386,1530,l),
(420,1530,o),
(448,1531.5,q),
(476,1533,o),
(503,1535,q),
(530,1537,o),
(558.5,1540,q),
(587,1543,o),
(624,1545,q),
(661,1547,o),
(708.5,1548.5,q),
(756,1550,o),
(821,1550,q),
(914,1550,o),
(992.5,1526.5,q),
(1071,1503,o),
(1127.5,1456,q),
(1184,1409,o),
(1216,1337.5,q),
(1248,1266,o),
(1248,1170,q),
(1248,1093,o),
(1221,1016,q),
(1194,939,o),
(1146.5,874,q),
(1099,809,o),
(1035,762.5,q),
(971,716,o),
(896,700,q),
(908,672,o),
(926.5,634,q),
(945,596,o),
(969,553,q),
(993,510,o),
(1022.5,465.5,q),
(1052,421,o),
(1086,379,q),
(1134,319,o),
(1185,264.5,q),
(1236,210,o),
(1286,166,q),
(1336,122,o),
(1385.5,90,q),
(1435,58,o),
(1480,44,q),
(1479,-7,l),
(1444,-7,o),
(1401,-7,q),
(1358,-7,o),
(1323,-6,q),
(1288,-6,o),
(1253,-3.5,q),
(1218,-1,o),
(1185,6,q),
(1131,16,o),
(1088.5,44,q),
(1046,72,o),
(1010.5,112,q),
(975,152,o),
(943.5,200.5,q),
(912,249,o),
(878,301,q),
(851,344,o),
(827.5,388.5,q),
(804,433,o),
(782,479.5,q),
(760,526,o),
(738,574.5,q),
(716,623,o),
(692,673,q),
(656,674,o),
(608,678,q),
(560,682,o),
(491,691,q),
(491,132,l),
(679,80,l),
(679,1,l),
(110,1,l),
(110,80,l)
);
},
{
closed = 1;
nodes = (
(544,786,o),
(602,782.5,q),
(660,779,o),
(716.5,783.5,q),
(773,788,o),
(824.5,800,q),
(876,812,o),
(916,834,q),
(939,856,o),
(960,883,q),
(981,910,o),
(997,945,q),
(1013,980,o),
(1022.5,1024.5,q),
(1032,1069,o),
(1032,1126,q),
(1032,1202,o),
(1005.5,1262,q),
(979,1322,o),
(932,1363.5,q),
(885,1405,o),
(820,1427,q),
(755,1449,o),
(678,1449,q),
(612,1449,o),
(574.5,1439.5,q),
(537,1430,o),
(518.5,1405,q),
(500,1380,o),
(495.5,1336.5,q),
(491,1293,o),
(491,1226,q),
(491,796,l)
);
}
);
width = 1462;
}
);
unicode = 82;
},
{
glyphname = S;
layers = (
{
layerId = "090b295d-3f71-4cfe-961f-4c3f744a43b8";
name = Fore;
shapes = (
{
closed = 1;
nodes = (
(317,497,l),
(359,267,l),
(365,245,o),
(371,231.5,q),
(377,218,o),
(383.5,210,q),
(390,202,o),
(396,197.5,q),
(402,193,o),
(407,190,q),
(429,179,o),
(468,165.5,q),
(507,152,o),
(555,140,q),
(603,128,o),
(655,120,q),
(707,112,o),
(757,112,q),
(800,112,o),
(835,122,q),
(870,132,o),
(898,147,q),
(926,162,o),
(947.5,180.5,q),
(969,199,o),
(986,216,q),
(991,225,o),
(997,239.5,q),
(1003,254,o),
(1008.5,271.5,q),
(1014,289,o),
(1018,309,q),
(1022,329,o),
(1022,348,q),
(1022,426,o),
(986,478.5,q),
(950,531,o),
(890.5,568,q),
(831,605,o),
(755.5,632.5,q),
(680,660,o),
(601,688,q),
(522,716,o),
(446.5,750.5,q),
(371,785,o),
(311.5,836,q),
(252,887,o),
(216,959.5,q),
(180,1032,o),
(180,1138,q),
(180,1212,o),
(204,1271,q),
(228,1330,o),
(270,1376,q),
(312,1422,o),
(368.5,1455,q),
(425,1488,o),
(490.5,1509,q),
(556,1530,o),
(627,1540,q),
(698,1550,o),
(769,1550,q),
(827,1550,o),
(872,1545.5,q),
(917,1541,o),
(959,1533.5,q),
(1001,1526,o),
(1046,1517,q),
(1091,1508,o),
(1148,1500,q),
(1119,1104,l),
(1012,1104,l),
(972,1271,l),
(967,1294,o),
(960.5,1309.5,q),
(954,1325,o),
(945,1336.5,q),
(936,1348,o),
(925,1355.5,q),
(914,1363,o),
(900,1370,q),
(858,1387,o),
(799.5,1400,q),
(741,1413,o),
(669,1413,q),
(609,1413,o),
(559.5,1405.5,q),
(510,1398,o),
(475,1378,q),
(464,1364,o),
(448.5,1350,q),
(433,1336,o),
(419.5,1316,q),
(406,1296,o),
(396.5,1267.5,q),
(387,1239,o),
(387,1197,q),
(387,1115,o),
(423,1060.5,q),
(459,1006,o),
(518,968.5,q),
(577,931,o),
(652,905,q),
(727,879,o),
(805.5,853,q),
(884,827,o),
(959,795.5,q),
(1034,764,o),
(1093,717,q),
(1152,670,o),
(1188,601,q),
(1224,532,o),
(1224,431,q),
(1224,303,o),
(1173,215.5,q),
(1122,128,o),
(1035,75,q),
(948,22,o),
(833.5,-1,q),
(719,-24,o),
(592,-24,q),
(541,-24,o),
(484.5,-14,q),
(428,-4,o),
(371.5,13,q),
(315,30,o),
(261,52.5,q),
(207,75,o),
(159,100,q),
(203,499,l)
);
}
);
width = 1334;
}
);
unicode = 83;
},
{
glyphname = T;
layers = (
{
layerId = "090b295d-3f71-4cfe-961f-4c3f744a43b8";
name = Fore;
shapes = (
{
closed = 1;
nodes = (
(410,92,o),
(452.5,103.5,q),
(495,115,o),
(523,137,q),
(551,159,o),
(565,195.5,q),
(579,232,o),
(579,292,q),
(579,1398,l),
(529,1396,o),
(443.5,1393,q),
(358,1390,o),
(223,1384,q),
(131,1136,l),
(37,1136,l),
(57,1549,l),
(189,1530,l),
(1181,1530,l),
(1313,1549,l),
(1287,1136,l),
(1193,1136,l),
(1147,1384,l),
(1026,1389,o),
(945,1392,q),
(864,1395,o),
(812,1397,q),
(802,1383,o),
(798.5,1358,q),
(795,1333,o),
(795,1289,q),
(795,137,l),
(1028,82,l),
(1028,0,l),
(354,0,l),
(354,82,l)
);
}
);
width = 1364;
}
);
unicode = 84;
},
{
glyphname = U;
layers = (
{
layerId = "090b295d-3f71-4cfe-961f-4c3f744a43b8";
name = Fore;
shapes = (
{
closed = 1;
nodes = (
(67,1446,l),
(67,1530,l),
(458,1530,l),
(451,1504,o),
(446.5,1475.5,q),
(442,1447,o),
(439,1409.5,q),
(436,1372,o),
(435,1322,q),
(434,1272,o),
(433.5,1202,q),
(433,1132,o),
(433,1039,q),
(433,946,o),
(433,823,q),
(433,570,l),
(433,464,o),
(445.5,388.5,q),
(458,313,o),
(490,264.5,q),
(522,216,o),
(578.5,193.5,q),
(635,171,o),
(724,171,q),
(791,171,o),
(851,181.5,q),
(911,192,o),
(965.5,213.5,q),
(1020,235,o),
(1071.5,267.5,q),
(1123,300,o),
(1173,344,q),
(1173,1390,l),
(1060,1446,l),
(1060,1530,l),
(1542,1530,l),
(1542,1446,l),
(1516,1435,o),
(1488.5,1428,q),
(1461,1421,o),
(1439,1405,q),
(1417,1389,o),
(1403,1357.5,q),
(1389,1326,o),
(1389,1266,q),
(1389,752,l),
(1390,654,o),
(1391,581,q),
(1392,508,o),
(1392.5,452.5,q),
(1393,397,o),
(1394.5,354.5,q),
(1396,312,o),
(1397.5,276.5,q),
(1399,241,o),
(1402,208,q),
(1405,175,o),
(1409,137,q),
(1555,82,l),
(1555,0,l),
(1195,0,l),
(1193,38,o),
(1192,77,q),
(1190,110,o),
(1189.5,147.5,q),
(1189,185,o),
(1188,217,q),
(1170,197,o),
(1140.5,171.5,q),
(1111,146,o),
(1072.5,120,q),
(1034,94,o),
(987.5,68.5,q),
(941,43,o),
(889.5,23.5,q),
(838,4,o),
(783,-8,q),
(728,-20,o),
(673,-20,q),
(624,-20,o),
(571.5,-16,q),
(519,-12,o),
(468.5,3,q),
(418,18,o),
(372.5,48,q),
(327,78,o),
(292.5,129.5,q),
(258,181,o),
(238,257.5,q),
(218,334,o),
(218,443,q),
(218,1390,l)
);
}
);
width = 1665;
}
);
unicode = 85;
},
{
glyphname = V;
layers = (
{
layerId = "090b295d-3f71-4cfe-961f-4c3f744a43b8";
name = Fore;
shapes = (
{
closed = 1;
nodes = (
(186,1238,l),
(122,1400,l),
(-41,1448,l),
(-41,1530,l),
(553,1530,l),
(553,1448,l),
(514,1437,o),
(486.5,1428.5,q),
(459,1420,o),
(439.5,1408,q),
(420,1396,o),
(407,1379.5,q),
(394,1363,o),
(386,1337,q),
(803,219,l),
(1201,1403,l),
(1016,1448,l),
(1016,1530,l),
(1565,1530,l),
(1565,1448,l),
(1513,1434,o),
(1467.5,1425,q),
(1422,1416,o),
(1385,1399,q),
(885,30,l),
(692,-24,l),
(188,1237,l)
);
}
);
width = 1535;
}
);
unicode = 86;
},
{
glyphname = W;
layers = (
{
layerId = "090b295d-3f71-4cfe-961f-4c3f744a43b8";
name = Fore;
shapes = (
{
closed = 1;
nodes = (
(-10,1448,l),
(-10,1530,l),
(565,1530,l),
(565,1448,l),
(523,1436,o),
(494.5,1426.5,q),
(466,1417,o),
(447,1403,q),
(428,1389,o),
(417.5,1369,q),
(407,1349,o),
(400,1316,q),
(763,219,l),
(1059,1156,l),
(1026,1251,l),
(970,1393,l),
(817,1448,l),
(817,1530,l),
(1429,1530,l),
(1429,1448,l),
(1378,1434,o),
(1338.5,1424,q),
(1299,1414,o),
(1273,1400.5,q),
(1247,1387,o),
(1233,1367,q),
(1219,1347,o),
(1219,1313,q),
(1573,233,l),
(1915,1368,l),
(1915,1393,l),
(1742,1448,l),
(1742,1530,l),
(2267,1530,l),
(2267,1448,l),
(2219,1435,o),
(2174,1426.5,q),
(2129,1418,o),
(2091,1404,q),
(1647,20,l),
(1468,-34,l),
(1129,952,l),
(829,20,l),
(658,-34,l),
(154,1393,l)
);
}
);
width = 2214;
}
);
unicode = 87;
},
{
glyphname = X;
layers = (
{
layerId = "090b295d-3f71-4cfe-961f-4c3f744a43b8";
name = Fore;
shapes = (
{
closed = 1;
nodes = (
(187,137,l),
(273,228,l),
(653,742,l),
(207,1382,l),
(198,1393,l),
(44,1448,l),
(44,1530,l),
(625,1530,l),
(625,1448,l),
(532,1448,o),
(501,1418.5,q),
(470,1389,o),
(491,1338,q),
(790,893,l),
(1137,1396,l),
(988,1448,l),
(988,1530,l),
(1490,1530,l),
(1490,1448,l),
(1442,1443,o),
(1404.5,1431.5,q),
(1367,1420,o),
(1334.5,1399,q),
(1302,1378,o),
(1272,1346,q),
(1242,1314,o),
(1210,1269,q),
(1205,1265,l),
(865,784,l),
(1326,139,l),
(1363,128,o),
(1404,112,q),
(1445,96,o),
(1497,82,q),
(1497,0,l),
(1006,0,l),
(1006,82,l),
(1085,104,l),
(729,631,l),
(459,248,l),
(438,211,o),
(432.5,183.5,q),
(427,156,o),
(443.5,136,q),
(460,116,o),
(501.5,103,q),
(543,90,o),
(615,82,q),
(615,0,l),
(42,0,l),
(42,82,l)
);
}
);
width = 1532;
}
);
unicode = 88;
},
{
glyphname = Y;
layers = (
{
layerId = "090b295d-3f71-4cfe-961f-4c3f744a43b8";
name = Fore;
shapes = (
{
closed = 1;
nodes = (
(471,93,o),
(516.5,104.5,q),
(562,116,o),
(591.5,138,q),
(621,160,o),
(635,196.5,q),
(649,233,o),
(649,293,q),
(649,597,l),
(164,1370,l),
(143,1393,l),
(12,1448,l),
(12,1530,l),
(577,1530,l),
(577,1448,l),
(481,1437,o),
(443,1414,q),
(405,1391,o),
(417,1339,q),
(782,710,l),
(1160,1401,l),
(995,1448,l),
(995,1530,l),
(1463,1530,l),
(1463,1448,l),
(1424,1437,o),
(1391.5,1428,q),
(1359,1419,o),
(1333,1408,q),
(865,597,l),
(865,138,l),
(1108,83,l),
(1108,1,l),
(407,1,l),
(407,83,l)
);
}
);
width = 1474;
}
);
unicode = 89;
},
{
glyphname = Z;
layers = (
{
layerId = "090b295d-3f71-4cfe-961f-4c3f744a43b8";
name = Fore;
shapes = (
{
closed = 1;
nodes = (
(992,1421,l),
(913,1414,o),
(839.5,1408,q),
(766,1402,o),
(688,1396,q),
(610,1390,o),
(524,1384.5,q),
(438,1379,o),
(333,1375,q),
(261,1135,l),
(167,1137,l),
(167,1549,l),
(299,1530,l),
(1254,1530,l),
(1274,1444,l),
(358,118,l),
(461,125,o),
(567.5,132,q),
(674,139,o),
(770.5,145.5,q),
(867,152,o),
(946.5,156.5,q),
(1026,161,o),
(1076,163,q),
(1188,420,l),
(1286,420,l),
(1257,-18,l),
(1126,0,l),
(100,0,l),
(78,87,l)
);
}
);
width = 1366;
}
);
unicode = 90;
},
{
glyphname = bracketleft;
layers = (
{
layerId = "090b295d-3f71-4cfe-961f-4c3f744a43b8";
name = Fore;
shapes = (
{
closed = 1;
nodes = (
(515,1798,l),
(515,1678,l),
(325,1640,l),
(325,-228,l),
(515,-242,l),
(515,-355,l),
(170,-355,l),
(170,1798,l)
);
}
);
width = 683;
}
);
unicode = 91;
},
{
glyphname = asciicircum;
layers = (
{
layerId = "090b295d-3f71-4cfe-961f-4c3f744a43b8";
name = Fore;
shapes = (
{
closed = 1;
nodes = (
(695,1530,l),
(1057,510,l),
(907,510,l),
(596,1311,l),
(296,510,l),
(136,510,l),
(502,1530,l)
);
}
);
width = 1193;
}
);
unicode = 94;
},
{
glyphname = underscore;
layers = (
{
layerId = "090b295d-3f71-4cfe-961f-4c3f744a43b8";
name = Fore;
shapes = (
{
closed = 1;
nodes = (
(1337,-340,l),
(-10,-340,l),
(-10,-177,l),
(1337,-177,l)
);
}
);
width = 1327;
}
);
unicode = 95;
},
{
glyphname = grave;
layers = (
{
layerId = "090b295d-3f71-4cfe-961f-4c3f744a43b8";
name = Fore;
shapes = (
{
closed = 1;
nodes = (
(132,1538,o),
(156.5,1558.5,q),
(181,1579,o),
(207,1597,q),
(233,1615,o),
(259,1628,q),
(285,1641,o),
(306,1645,q),
(383,1539,o),
(456.5,1434,q),
(530,1329,o),
(609,1229,q),
(519,1164,l),
(114,1519,l)
);
}
);
width = 723;
}
);
unicode = 96;
},
{
glyphname = a;
layers = (
{
layerId = "090b295d-3f71-4cfe-961f-4c3f744a43b8";
name = Fore;
shapes = (
{
closed = 1;
nodes = (
(103,296,o),
(110.5,331,q),
(118,366,o),
(140.5,396.5,q),
(163,427,o),
(204.5,454.5,q),
(246,482,o),
(313.5,509,q),
(381,536,o),
(478,564,q),
(575,592,o),
(710,624,q),
(710,777,l),
(710,805,o),
(706.5,830.5,q),
(703,856,o),
(685,875.5,q),
(667,895,o),
(629.5,907.5,q),
(592,920,o),
(525,921,q),
(477,921,o),
(445,907.5,q),
(413,894,o),
(390.5,866,q),
(368,838,o),
(351.5,796.5,q),
(335,755,o),
(318,700,q),
(158,700,l),
(179,906,l),
(212,920,o),
(251,936,q),
(290,952,o),
(330.5,967,q),
(371,982,o),
(411,995.5,q),
(451,1009,o),
(485.5,1019.5,q),
(520,1030,o),
(547,1036,q),
(574,1042,o),
(589,1042,q),
(679,1042,o),
(741.5,1028,q),
(804,1014,o),
(844,980.5,q),
(884,947,o),
(902,891.5,q),
(920,836,o),
(920,754,q),
(920,179,l),
(920,152,o),
(944,140,q),
(968,128,o),
(996.5,124,q),
(1025,120,o),
(1049,120,q),
(1073,120,o),
(1073,118,q),
(1073,35,l),
(1053,27,o),
(1026.5,17.5,q),
(1000,8,o),
(970,0,q),
(940,-8,o),
(909.5,-14,q),
(879,-20,o),
(851,-20,q),
(780,-20,o),
(750,17,q),
(720,54,o),
(720,130,q),
(672,90,o),
(635.5,61.5,q),
(599,33,o),
(564.5,15,q),
(530,-3,o),
(491,-11.5,q),
(452,-20,o),
(400,-20,q),
(348,-20,o),
(295,-4,q),
(242,12,o),
(199.5,45.5,q),
(157,79,o),
(130,131,q),
(103,183,o),
(103,254,q)
);
},
{
closed = 1;
nodes = (
(323,239,o),
(337.5,210.5,q),
(352,182,o),
(377,163.5,q),
(402,145,o),
(436.5,136.5,q),
(471,128,o),
(510,128,q),
(564,128,o),
(616,156.5,q),
(668,185,o),
(710,225,q),
(710,522,l),
(674,509,o),
(631,498.5,q),
(588,488,o),
(545,476.5,q),
(502,465,o),
(462,450,q),
(422,435,o),
(391,412.5,q),
(360,390,o),
(341.5,357.5,q),
(323,325,o),
(323,279,q)
);
}
);
width = 1098;
}
);
unicode = 97;
},
{
glyphname = b;
layers = (
{
layerId = "090b295d-3f71-4cfe-961f-4c3f744a43b8";
name = Fore;
shapes = (
{
closed = 1;
nodes = (
(181,1357,o),
(167,1386.5,q),
(153,1416,o),
(130,1432,q),
(107,1448,o),
(76.5,1455,q),
(46,1462,o),
(13,1471,q),
(13,1543,l),
(58,1554,o),
(93,1562.5,q),
(128,1571,o),
(157,1578.5,q),
(186,1586,o),
(210,1593.5,q),
(234,1601,o),
(259,1610.5,q),
(284,1620,o),
(310.5,1632.5,q),
(337,1645,o),
(371,1662,q),
(408,1641,l),
(407,1630,o),
(406,1595.5,q),
(405,1561,o),
(403.5,1510,q),
(402,1459,o),
(401,1397,q),
(400,1335,o),
(399,1270.5,q),
(398,1206,o),
(397.5,1143.5,q),
(397,1081,o),
(396,1029.5,q),
(395,978,o),
(394.5,941,q),
(394,904,o),
(393,891,q),
(421,909,o),
(460,935,q),
(499,961,o),
(543,985,q),
(587,1009,o),
(632,1025.5,q),
(677,1042,o),
(718,1042,q),
(736,1042,o),
(775,1037.5,q),
(814,1033,o),
(861,1014.5,q),
(908,996,o),
(957.5,960,q),
(1007,924,o),
(1047,862,q),
(1079,808,o),
(1104,732.5,q),
(1129,657,o),
(1129,553,q),
(1129,427,o),
(1100,335.5,q),
(1071,244,o),
(1025,180,q),
(979,116,o),
(921.5,77,q),
(864,38,o),
(808,16.5,q),
(752,-5,o),
(702.5,-12.5,q),
(653,-20,o),
(623,-20,q),
(565,-20,o),
(493,-13.5,q),
(421,-7,o),
(355,1.5,q),
(289,10,o),
(240.5,16.5,q),
(192,23,o),
(181,23,q),
(179,23,l),
(181,1303,l)
);
},
{
closed = 1;
nodes = (
(453,137,o),
(518.5,119.5,q),
(584,102,o),
(657,102,q),
(728,102,o),
(777.5,132,q),
(827,162,o),
(857.5,214,q),
(888,266,o),
(901.5,334,q),
(915,402,o),
(915,479,q),
(915,560,o),
(898.5,633,q),
(882,706,o),
(852.5,761,q),
(823,816,o),
(782.5,848.5,q),
(742,881,o),
(694,881,q),
(658,881,o),
(613.5,870,q),
(569,859,o),
(527,843,q),
(485,827,o),
(449,810.5,q),
(413,794,o),
(393,784,q),
(393,168,l)
);
}
);
width = 1219;
}
);
unicode = 98;
},
{
glyphname = c;
layers = (
{
layerId = "090b295d-3f71-4cfe-961f-4c3f744a43b8";
name = Fore;
shapes = (
{
closed = 1;
nodes = (
(90,600,o),
(136,708.5,q),
(182,817,o),
(259.5,891,q),
(337,965,o),
(438.5,1003.5,q),
(540,1042,o),
(650,1042,q),
(720,1042,o),
(797,1028,q),
(874,1014,o),
(944,986,q),
(943,979,o),
(940,954.5,q),
(937,930,o),
(933,896.5,q),
(929,863,o),
(924.5,826,q),
(920,789,o),
(916,757.5,q),
(912,726,o),
(909.5,705.5,q),
(907,685,o),
(906,685,q),
(812,685,l),
(799,739,o),
(790.5,774,q),
(782,809,o),
(776,830,q),
(770,851,o),
(765.5,860,q),
(761,869,o),
(755,871,q),
(706,882,o),
(658,888.5,q),
(610,895,o),
(558,895,q),
(525,895,o),
(488,889.5,q),
(451,884,o),
(416,874,q),
(396,861,o),
(379,837,q),
(362,813,o),
(348,784,q),
(334,755,o),
(323.5,723,q),
(313,691,o),
(305.5,660.5,q),
(298,630,o),
(294.5,604,q),
(291,578,o),
(291,562,q),
(291,482,o),
(309.5,408,q),
(328,334,o),
(368.5,277,q),
(409,220,o),
(474,186,q),
(539,152,o),
(633,152,q),
(648,152,o),
(682,158.5,q),
(716,165,o),
(757.5,174.5,q),
(799,184,o),
(841,195.5,q),
(883,207,o),
(915,218,q),
(948,134,l),
(892,100,o),
(834.5,72,q),
(777,44,o),
(728,23.5,q),
(679,3,o),
(644.5,-8.5,q),
(610,-20,o),
(602,-20,q),
(494,-20,o),
(400.5,10.5,q),
(307,41,o),
(238,101.5,q),
(169,162,o),
(129.5,252,q),
(90,342,o),
(90,461,q)
);
}
);
width = 1026;
}
);
unicode = 99;
},
{
glyphname = d;
layers = (
{
layerId = "090b295d-3f71-4cfe-961f-4c3f744a43b8";
name = Fore;
shapes = (
{
closed = 1;
nodes = (
(90,579,o),
(118,671.5,q),
(146,764,o),
(199,833,q),
(237,885,o),
(286.5,924,q),
(336,963,o),
(390.5,989,q),
(445,1015,o),
(503,1028.5,q),
(561,1042,o),
(616,1042,q),
(673,1042,o),
(727.5,1033.5,q),
(782,1025,o),
(826,1017,q),
(826,1219,l),
(826,1254,o),
(826,1284.5,q),
(826,1315,o),
(819,1341,q),
(812,1367,o),
(795.5,1388.5,q),
(779,1410,o),
(745,1427,q),
(725,1438,o),
(703.5,1443,q),
(682,1448,o),
(652,1454,q),
(652,1527,l),
(718,1542,o),
(766.5,1554.5,q),
(815,1567,o),
(855.5,1580.5,q),
(896,1594,o),
(933.5,1609.5,q),
(971,1625,o),
(1015,1645,q),
(1053,1624,l),
(1048,1570,o),
(1045,1531,q),
(1042,1492,o),
(1040.5,1456.5,q),
(1039,1421,o),
(1038,1382.5,q),
(1037,1344,o),
(1036,1290,q),
(1036,182,l),
(1036,174,o),
(1039,162,q),
(1042,150,o),
(1047,142,q),
(1053,135,o),
(1066.5,126.5,q),
(1080,118,o),
(1096.5,110,q),
(1113,102,o),
(1132,94.5,q),
(1151,87,o),
(1168,82,q),
(1168,0,l),
(841,0,l),
(838,21,o),
(836,46,q),
(834,66,o),
(833,92.5,q),
(832,119,o),
(832,147,q),
(723,59,o),
(638.5,20,q),
(554,-19,o),
(501,-19,q),
(428,-19,o),
(368.5,2,q),
(309,23,o),
(263.5,58.5,q),
(218,94,o),
(185,142,q),
(152,190,o),
(131,243.5,q),
(110,297,o),
(100,353.5,q),
(90,410,o),
(90,464,q)
);
},
{
closed = 1;
nodes = (
(553,142,o),
(592.5,152,q),
(632,162,o),
(674,177.5,q),
(716,193,o),
(756,212,q),
(796,231,o),
(826,249,q),
(826,850,l),
(780,876,o),
(710.5,894.5,q),
(641,913,o),
(562,915,q),
(512,916,o),
(465.5,896.5,q),
(419,877,o),
(383,832.5,q),
(347,788,o),
(325.5,715.5,q),
(304,643,o),
(304,538,q),
(304,451,o),
(322,378,q),
(340,305,o),
(370,252.5,q),
(400,200,o),
(440,171,q),
(480,142,o),
(525,142,q)
);
}
);
width = 1183;
}
);
unicode = 100;
},
{
glyphname = e;
layers = (
{
layerId = "090b295d-3f71-4cfe-961f-4c3f744a43b8";
name = Fore;
shapes = (
{
closed = 1;
nodes = (
(93,606,o),
(129.5,705,q),
(166,804,o),
(232.5,879,q),
(299,954,o),
(393,998,q),
(487,1042,o),
(605,1042,q),
(701,1042,o),
(768.5,1012.5,q),
(836,983,o),
(879,928.5,q),
(922,874,o),
(941,797.5,q),
(960,721,o),
(958,627,q),
(957,613,o),
(956.5,594.5,q),
(956,576,o),
(955,559,q),
(954,540,o),
(952,519,q),
(299,519,l),
(297,433,o),
(312.5,371.5,q),
(328,310,o),
(354.5,267,q),
(381,224,o),
(416,198,q),
(451,172,o),
(487.5,158,q),
(524,144,o),
(560,139.5,q),
(596,135,o),
(626,135,q),
(670,146,o),
(718,159,q),
(760,170,o),
(811,186,q),
(862,202,o),
(915,222,q),
(949,136,l),
(894,105,o),
(846,79.5,q),
(798,54,o),
(753.5,33.5,q),
(709,13,o),
(667.5,-2.5,q),
(626,-18,o),
(584,-29,q),
(456,-29,o),
(362.5,7,q),
(269,43,o),
(207.5,110.5,q),
(146,178,o),
(117,275.5,q),
(88,373,o),
(91,496,q)
);
},
{
closed = 1;
nodes = (
(398,624,o),
(468,627,q),
(538,630,o),
(584.5,633,q),
(631,636,o),
(658,638.5,q),
(685,641,o),
(697,643,q),
(714,645,o),
(723.5,669,q),
(733,693,o),
(733,719,q),
(733,787,o),
(710,834,q),
(687,881,o),
(647,906,q),
(607,931,o),
(553.5,932.5,q),
(500,934,o),
(440,912,q),
(428,908,o),
(405.5,891,q),
(383,874,o),
(360,840,q),
(337,806,o),
(319,752.5,q),
(301,699,o),
(299,623,q)
);
}
);
width = 1039;
}
);
unicode = 101;
},
{
glyphname = f;
layers = (
{
layerId = "090b295d-3f71-4cfe-961f-4c3f744a43b8";
name = Fore;
shapes = (
{
closed = 1;
nodes = (
(157,96,o),
(193.5,108,q),
(230,120,o),
(248.5,141,q),
(267,162,o),
(272,197,q),
(277,232,o),
(277,292,q),
(279,885,l),
(119,885,l),
(119,1000,l),
(279,1020,l),
(279,1210,l),
(279,1310,o),
(319.5,1390,q),
(360,1470,o),
(429.5,1525.5,q),
(499,1581,o),
(592.5,1610.5,q),
(686,1640,o),
(791,1640,q),
(808,1640,o),
(831,1637,q),
(854,1634,o),
(874,1631,q),
(898,1627,o),
(921,1622,q),
(885,1342,l),
(798,1342,l),
(768,1459,l),
(763,1473,o),
(744,1481,q),
(725,1489,o),
(698.5,1492,q),
(672,1495,o),
(641.5,1494,q),
(611,1493,o),
(583.5,1489,q),
(556,1485,o),
(535,1478.5,q),
(514,1472,o),
(506,1465,q),
(502,1453,o),
(499,1421.5,q),
(496,1390,o),
(494,1347,q),
(492,1304,o),
(491,1255.5,q),
(490,1207,o),
(489.5,1161.5,q),
(489,1116,o),
(489,1078,q),
(489,1040,o),
(489,1020,q),
(770,1020,l),
(770,885,l),
(489,885,l),
(489,796,o),
(489,726.5,q),
(489,657,o),
(488.5,598,q),
(488,539,o),
(488,485,q),
(488,431,o),
(488,372,q),
(488,313,o),
(490,255.5,q),
(492,198,o),
(496,137,q),
(709,82,l),
(709,0,l),
(94,0,l),
(94,82,l)
);
}
);
width = 809;
}
);
unicode = 102;
},
{
glyphname = g;
layers = (
{
layerId = "090b295d-3f71-4cfe-961f-4c3f744a43b8";
name = Fore;
shapes = (
{
closed = 1;
nodes = (
(146,168,o),
(149,185.5,q),
(152,203,o),
(161,214,q),
(202,259,o),
(242.5,306.5,q),
(283,354,o),
(332,403,q),
(242,440,o),
(187.5,511,q),
(133,582,o),
(133,687,q),
(133,772,o),
(167,838,q),
(201,904,o),
(259.5,949.5,q),
(318,995,o),
(396.5,1018.5,q),
(475,1042,o),
(564,1042,q),
(664,1042,o),
(744.5,1022.5,q),
(825,1003,o),
(883,963,q),
(950,973,o),
(1010.5,992.5,q),
(1071,1012,o),
(1135,1039,q),
(1153,1022,o),
(1160.5,1000.5,q),
(1168,979,o),
(1168,963,q),
(1168,931,o),
(1162.5,906,q),
(1157,881,o),
(1148,866,q),
(1104,854,o),
(1062,851.5,q),
(1020,849,o),
(978,851,q),
(1004,794,o),
(1004,723,q),
(1004,637,o),
(970,569,q),
(936,501,o),
(877.5,454.5,q),
(819,408,o),
(741,383.5,q),
(663,359,o),
(574,359,q),
(539,359,o),
(505.5,362.5,q),
(472,366,o),
(440,371,q),
(427,357,o),
(412.5,341.5,q),
(398,326,o),
(386,310.5,q),
(374,295,o),
(367,279,q),
(360,263,o),
(362,250,q),
(365,224,o),
(389,209,q),
(413,194,o),
(446.5,185.5,q),
(480,177,o),
(518.5,174,q),
(557,171,o),
(589,169,q),
(647,166,o),
(709.5,162.5,q),
(772,159,o),
(832,150.5,q),
(892,142,o),
(946,127,q),
(1000,112,o),
(1041.5,86,q),
(1083,60,o),
(1109,22,q),
(1135,-16,o),
(1139,-71,q),
(1143,-137,o),
(1109.5,-212,q),
(1076,-287,o),
(999,-351.5,q),
(922,-416,o),
(798.5,-458.5,q),
(675,-501,o),
(501,-501,q),
(396,-501,o),
(323.5,-483.5,q),
(251,-466,o),
(204.5,-436,q),
(158,-406,o),
(135,-366.5,q),
(112,-327,o),
(105,-284,q),
(101,-252,o),
(104,-232,q),
(107,-210,o),
(133,-170.5,q),
(159,-131,o),
(207,-88,q),
(233,-65,o),
(261.5,-46,q),
(290,-27,o),
(316,2,q),
(324,10,o),
(321.5,15,q),
(319,20,o),
(311,23,q),
(300,26,o),
(292,29.5,q),
(284,33,o),
(277.5,36,q),
(271,39,o),
(263,42.5,q),
(255,46,o),
(244,51,q),
(230,57,o),
(213.5,67.5,q),
(197,78,o),
(183,91.5,q),
(169,105,o),
(159,121.5,q),
(149,138,o),
(148,156,q)
);
},
{
closed = 1;
nodes = (
(664,464,o),
(698,484.5,q),
(732,505,o),
(751.5,536.5,q),
(771,568,o),
(778.5,605.5,q),
(786,643,o),
(786,680,q),
(786,734,o),
(773,782,q),
(760,830,o),
(728.5,865.5,q),
(697,901,o),
(645.5,920.5,q),
(594,940,o),
(517,936,q),
(471,934,o),
(439,914,q),
(407,894,o),
(387.5,863.5,q),
(368,833,o),
(359,795.5,q),
(350,758,o),
(350,721,q),
(350,667,o),
(361.5,618.5,q),
(373,570,o),
(402.5,533.5,q),
(432,497,o),
(482.5,477,q),
(533,457,o),
(610,461,q)
);
},
{
closed = 1;
nodes = (
(366,-93,o),
(341,-152,q),
(316,-211,o),
(335.5,-259.5,q),
(355,-308,o),
(413,-339,q),
(471,-370,o),
(556,-370,q),
(649,-370,o),
(722,-359.5,q),
(795,-349,o),
(845,-323,q),
(895,-297,o),
(919.5,-252.5,q),
(944,-208,o),
(941,-140,q),
(939,-106,o),
(925,-81.5,q),
(911,-57,o),
(869,-41,q),
(827,-25,o),
(748.5,-16.5,q),
(670,-8,o),
(540,-4,q),
(521,-3,o),
(507,-6,q),
(493,-9,o),
(482.5,-14,q),
(472,-19,o),
(464,-25,q),
(456,-31,o),
(448,-37,q)
);
}
);
width = 1173;
}
);
unicode = 103;
},
{
glyphname = h;
layers = (
{
layerId = "090b295d-3f71-4cfe-961f-4c3f744a43b8";
name = Fore;
shapes = (
{
closed = 1;
nodes = (
(112,96,o),
(144.5,108,q),
(177,120,o),
(194,141,q),
(211,162,o),
(217,197,q),
(223,232,o),
(223,292,q),
(223,1287,l),
(223,1341,o),
(209,1370.5,q),
(195,1400,o),
(171.5,1416,q),
(148,1432,o),
(117.5,1439,q),
(87,1446,o),
(54,1454,q),
(54,1527,l),
(100,1536,o),
(134,1543,q),
(168,1550,o),
(195,1557,q),
(222,1564,o),
(245.5,1571.5,q),
(269,1579,o),
(293.5,1589,q),
(318,1599,o),
(346,1612.5,q),
(374,1626,o),
(411,1645,q),
(448,1624,l),
(441,1554,o),
(438,1478.5,q),
(435,1403,o),
(434,1314.5,q),
(433,1226,o),
(433,1119.5,q),
(433,1013,o),
(433,881,q),
(467,901,o),
(505,922,q),
(537,940,o),
(576.5,962.5,q),
(616,985,o),
(655,1007,q),
(664,1009,o),
(684,1015,q),
(704,1021,o),
(731,1027,q),
(758,1033,o),
(789.5,1037.5,q),
(821,1042,o),
(853,1042,q),
(926,1042,o),
(975.5,1027.5,q),
(1025,1013,o),
(1056.5,986.5,q),
(1088,960,o),
(1104.5,923,q),
(1121,886,o),
(1128,842,q),
(1135,798,o),
(1135.5,748.5,q),
(1136,699,o),
(1137,646,q),
(1139,137,l),
(1173,122,o),
(1204,111,q),
(1230,101,o),
(1257,92,q),
(1284,83,o),
(1300,80,q),
(1300,0,l),
(756,0,l),
(756,82,l),
(810,96,o),
(843.5,108,q),
(877,120,o),
(895.5,141,q),
(914,162,o),
(921,197.5,q),
(928,233,o),
(928,294,q),
(928,747,l),
(928,787,o),
(910.5,812,q),
(893,837,o),
(865.5,850.5,q),
(838,864,o),
(803.5,869,q),
(769,874,o),
(735,874,q),
(688,874,o),
(643,866,q),
(598,858,o),
(559,846,q),
(520,834,o),
(487.5,819,q),
(455,804,o),
(433,790,q),
(433,137,l),
(609,82,l),
(609,0,l),
(60,0,l),
(60,82,l)
);
}
);
width = 1336;
}
);
unicode = 104;
},
{
glyphname = k;
layers = (
{
layerId = "090b295d-3f71-4cfe-961f-4c3f744a43b8";
name = Fore;
shapes = (
{
closed = 1;
nodes = (
(113,96,o),
(145,108,q),
(177,120,o),
(194.5,141,q),
(212,162,o),
(217.5,197,q),
(223,232,o),
(223,292,q),
(223,1287,l),
(223,1341,o),
(209,1370.5,q),
(195,1400,o),
(171.5,1416,q),
(148,1432,o),
(118,1439,q),
(88,1446,o),
(55,1454,q),
(55,1527,l),
(100,1536,o),
(134,1543,q),
(168,1550,o),
(195.5,1557,q),
(223,1564,o),
(246,1571.5,q),
(269,1579,o),
(293.5,1589,q),
(318,1599,o),
(346,1612.5,q),
(374,1626,o),
(411,1645,q),
(448,1624,l),
(441,1554,o),
(437.5,1466.5,q),
(434,1379,o),
(433,1283.5,q),
(432,1188,o),
(432.5,1090,q),
(433,992,o),
(433,900,q),
(433,137,l),
(593,82,l),
(593,0,l),
(61,0,l),
(61,82,l)
);
},
{
closed = 1;
nodes = (
(513,542,o),
(544,569.5,q),
(575,597,o),
(608.5,631,q),
(642,665,o),
(674.5,701.5,q),
(707,738,o),
(732.5,771,q),
(758,804,o),
(774,830,q),
(790,856,o),
(790,868,q),
(790,883,o),
(778.5,894.5,q),
(767,906,o),
(750,914.5,q),
(733,923,o),
(712,928.5,q),
(691,934,o),
(673,938,q),
(673,1020,l),
(1194,1020,l),
(1194,938,l),
(1141,929,o),
(1107,921.5,q),
(1073,914,o),
(1051,905.5,q),
(1029,897,o),
(1014.5,886.5,q),
(1000,876,o),
(987,863,q),
(956,832,o),
(921.5,791,q),
(887,750,o),
(850.5,707,q),
(814,664,o),
(776.5,622.5,q),
(739,581,o),
(703,549,q),
(782,458,o),
(859,377,q),
(891,342,o),
(926,306.5,q),
(961,271,o),
(994.5,238,q),
(1028,205,o),
(1059.5,177,q),
(1091,149,o),
(1116,131,q),
(1136,117,o),
(1167,103.5,q),
(1198,90,o),
(1223,82,q),
(1223,0,l),
(942,-22,l),
(813,123,l),
(490,527,l)
);
}
);
width = 1203;
}
);
unicode = 107;
},
{
glyphname = l;
layers = (
{
layerId = "090b295d-3f71-4cfe-961f-4c3f744a43b8";
name = Fore;
shapes = (
{
closed = 1;
nodes = (
(148,96,o),
(180,108,q),
(212,120,o),
(229,141,q),
(246,162,o),
(251.5,197,q),
(257,232,o),
(257,292,q),
(257,1287,l),
(257,1341,o),
(243,1370.5,q),
(229,1400,o),
(206,1416,q),
(183,1432,o),
(153,1439,q),
(123,1446,o),
(90,1454,q),
(90,1527,l),
(135,1536,o),
(169,1543,q),
(203,1550,o),
(230,1557,q),
(257,1564,o),
(280,1571.5,q),
(303,1579,o),
(327,1589,q),
(351,1599,o),
(379,1612.5,q),
(407,1626,o),
(444,1645,q),
(481,1624,l),
(474,1554,o),
(471,1466.5,q),
(468,1379,o),
(467,1283.5,q),
(466,1188,o),
(466.5,1090,q),
(467,992,o),
(467,900,q),
(467,137,l),
(639,82,l),
(639,0,l),
(96,0,l),
(96,82,l)
);
}
);
width = 676;
}
);
unicode = 108;
},
{
glyphname = m;
layers = (
{
layerId = "090b295d-3f71-4cfe-961f-4c3f744a43b8";
name = Fore;
shapes = (
{
closed = 1;
nodes = (
(152,99,o),
(184.5,111.5,q),
(217,124,o),
(234,144.5,q),
(251,165,o),
(256,199,q),
(261,233,o),
(261,292,q),
(261,673,l),
(261,726,o),
(246.5,758.5,q),
(232,791,o),
(208,809.5,q),
(184,828,o),
(153.5,838,q),
(123,848,o),
(91,856,q),
(91,928,l),
(160,941,o),
(203,953,q),
(246,965,o),
(281.5,980,q),
(317,995,o),
(354,1014.5,q),
(391,1034,o),
(447,1062,q),
(487,1041,l),
(474,881,l),
(508,900,o),
(544,921,q),
(575,939,o),
(613.5,961,q),
(652,983,o),
(691,1005,q),
(701,1008,o),
(718.5,1014,q),
(736,1020,o),
(758.5,1026,q),
(781,1032,o),
(808,1037,q),
(835,1042,o),
(863,1042,q),
(928,1042,o),
(973.5,1030.5,q),
(1019,1019,o),
(1049.5,997,q),
(1080,975,o),
(1097.5,944.5,q),
(1115,914,o),
(1124,875,q),
(1130,878,o),
(1154,891,q),
(1178,904,o),
(1212,922.5,q),
(1246,941,o),
(1285,963,q),
(1324,985,o),
(1360,1005,q),
(1370,1008,o),
(1388,1014,q),
(1406,1020,o),
(1429,1026,q),
(1452,1032,o),
(1478.5,1037,q),
(1505,1042,o),
(1534,1042,q),
(1607,1042,o),
(1656,1027,q),
(1705,1012,o),
(1735.5,985.5,q),
(1766,959,o),
(1781.5,922,q),
(1797,885,o),
(1803,842,q),
(1809,799,o),
(1809,750.5,q),
(1809,702,o),
(1810,652,q),
(1811,137,l),
(1851,123,o),
(1886,112,q),
(1916,102,o),
(1945.5,93.5,q),
(1975,85,o),
(1991,82,q),
(1991,0,l),
(1446,0,l),
(1446,82,l),
(1484,95,o),
(1510.5,103,q),
(1537,111,o),
(1554,119.5,q),
(1571,128,o),
(1580.5,139,q),
(1590,150,o),
(1594.5,169.5,q),
(1599,189,o),
(1599.5,218.5,q),
(1600,248,o),
(1600,294,q),
(1600,763,l),
(1600,783,o),
(1595,802,q),
(1590,821,o),
(1581,830,q),
(1570,841,o),
(1557,849,q),
(1544,857,o),
(1525,862,q),
(1506,867,o),
(1479.5,869.5,q),
(1453,872,o),
(1416,872,q),
(1376,872,o),
(1336,864,q),
(1296,856,o),
(1259.5,843.5,q),
(1223,831,o),
(1191.5,816.5,q),
(1160,802,o),
(1137,789,q),
(1139,754,o),
(1139.5,716.5,q),
(1140,679,o),
(1140,642,q),
(1141,137,l),
(1181,123,o),
(1216,112,q),
(1246,102,o),
(1275.5,93.5,q),
(1305,85,o),
(1321,82,q),
(1321,0,l),
(775,0,l),
(775,82,l),
(814,95,o),
(840.5,103,q),
(867,111,o),
(884,119.5,q),
(901,128,o),
(910.5,139,q),
(920,150,o),
(924.5,169.5,q),
(929,189,o),
(929.5,218.5,q),
(930,248,o),
(930,294,q),
(930,763,l),
(930,783,o),
(924.5,802,q),
(919,821,o),
(911,830,q),
(900,841,o),
(887.5,849,q),
(875,857,o),
(857,862,q),
(839,867,o),
(813.5,869.5,q),
(788,872,o),
(751,872,q),
(709,872,o),
(668.5,864,q),
(628,856,o),
(591.5,843.5,q),
(555,831,o),
(524,816,q),
(493,801,o),
(471,787,q),
(471,137,l),
(644,82,l),
(644,0,l),
(97,0,l),
(97,82,l)
);
}
);
width = 2007;
}
);
unicode = 109;
},
{
glyphname = n;
layers = (
{
layerId = "090b295d-3f71-4cfe-961f-4c3f744a43b8";
name = Fore;
shapes = (
{
closed = 1;
nodes = (
(154,99,o),
(186.5,111.5,q),
(219,124,o),
(235.5,144.5,q),
(252,165,o),
(256.5,199,q),
(261,233,o),
(261,292,q),
(261,693,l),
(261,746,o),
(246.5,778.5,q),
(232,811,o),
(208.5,829.5,q),
(185,848,o),
(155,858,q),
(125,868,o),
(93,876,q),
(93,948,l),
(139,957,o),
(172.5,963.5,q),
(206,970,o),
(233,976.5,q),
(260,983,o),
(283,990.5,q),
(306,998,o),
(330,1007.5,q),
(354,1017,o),
(382,1030,q),
(410,1043,o),
(447,1062,q),
(487,1041,l),
(474,881,l),
(508,900,o),
(545,921,q),
(577,939,o),
(615.5,961,q),
(654,983,o),
(693,1005,q),
(703,1008,o),
(722,1014,q),
(741,1020,o),
(765.5,1026,q),
(790,1032,o),
(818.5,1037,q),
(847,1042,o),
(875,1042,q),
(951,1042,o),
(1001.5,1027,q),
(1052,1012,o),
(1083,985.5,q),
(1114,959,o),
(1129.5,922,q),
(1145,885,o),
(1150.5,842,q),
(1156,799,o),
(1156,750.5,q),
(1156,702,o),
(1156,652,q),
(1157,137,l),
(1195,123,o),
(1228,112,q),
(1257,102,o),
(1285,93.5,q),
(1313,85,o),
(1328,82,q),
(1328,0,l),
(787,0,l),
(787,82,l),
(828,94,o),
(856,101.5,q),
(884,109,o),
(901.5,117.5,q),
(919,126,o),
(928.5,137.5,q),
(938,149,o),
(941.5,168.5,q),
(945,188,o),
(945.5,218,q),
(946,248,o),
(946,294,q),
(946,765,l),
(946,785,o),
(940.5,804,q),
(935,823,o),
(927,832,q),
(915,843,o),
(901.5,851,q),
(888,859,o),
(868,864,q),
(848,869,o),
(820,871.5,q),
(792,874,o),
(753,874,q),
(711,874,o),
(670,865.5,q),
(629,857,o),
(592,844.5,q),
(555,832,o),
(524,816.5,q),
(493,801,o),
(471,787,q),
(471,137,l),
(644,82,l),
(644,0,l),
(99,0,l),
(99,82,l)
);
}
);
width = 1353;
}
);
unicode = 110;
},
{
glyphname = o;
layers = (
{
layerId = "090b295d-3f71-4cfe-961f-4c3f744a43b8";
name = Fore;
shapes = (
{
closed = 1;
nodes = (
(90,606,o),
(133,710.5,q),
(176,815,o),
(248.5,888.5,q),
(321,962,o),
(416,1002,q),
(511,1042,o),
(615,1042,q),
(728,1042,o),
(817,1013,q),
(906,984,o),
(967.5,924,q),
(1029,864,o),
(1061,773.5,q),
(1093,683,o),
(1093,560,q),
(1093,427,o),
(1053,319.5,q),
(1013,212,o),
(944,136,q),
(875,60,o),
(783,19,q),
(691,-22,o),
(586,-22,q),
(482,-22,o),
(391.5,8.5,q),
(301,39,o),
(234,100.5,q),
(167,162,o),
(128.5,255.5,q),
(90,349,o),
(90,476,q)
);
},
{
closed = 1;
nodes = (
(324,432,o),
(338.5,349.5,q),
(353,267,o),
(389,206.5,q),
(425,146,o),
(486,113,q),
(547,80,o),
(641,86,q),
(706,90,o),
(748.5,127.5,q),
(791,165,o),
(815.5,223,q),
(840,281,o),
(849.5,352,q),
(859,423,o),
(859,494,q),
(859,587,o),
(844.5,669,q),
(830,751,o),
(794,810.5,q),
(758,870,o),
(697,902.5,q),
(636,935,o),
(543,930,q),
(477,926,o),
(435,891,q),
(393,856,o),
(368,800,q),
(343,744,o),
(333.5,672.5,q),
(324,601,o),
(324,525,q)
);
}
);
width = 1183;
}
);
unicode = 111;
},
{
glyphname = p;
layers = (
{
layerId = "090b295d-3f71-4cfe-961f-4c3f744a43b8";
name = Fore;
shapes = (
{
closed = 1;
nodes = (
(212,765,o),
(201,795,q),
(190,825,o),
(170,841,q),
(150,857,o),
(123,864,q),
(96,871,o),
(63,879,q),
(63,951,l),
(112,959,o),
(154,969.5,q),
(196,980,o),
(235.5,993.5,q),
(275,1007,o),
(313,1024,q),
(351,1041,o),
(392,1062,q),
(430,1042,l),
(427,1004,o),
(425.5,965,q),
(424,926,o),
(422,881,q),
(450,900,o),
(490,928,q),
(530,956,o),
(574.5,981,q),
(619,1006,o),
(665,1024,q),
(711,1042,o),
(752,1042,q),
(770,1042,o),
(809,1037.5,q),
(848,1033,o),
(895,1014.5,q),
(942,996,o),
(991.5,958.5,q),
(1041,921,o),
(1081,855,q),
(1113,801,o),
(1138,726.5,q),
(1163,652,o),
(1163,548,q),
(1163,420,o),
(1132.5,327.5,q),
(1102,235,o),
(1053.5,171,q),
(1005,107,o),
(945.5,68.5,q),
(886,30,o),
(827.5,9,q),
(769,-12,o),
(718,-18.5,q),
(667,-25,o),
(637,-25,q),
(594,-25,o),
(536.5,-17.5,q),
(479,-10,o),
(422,0,q),
(422,-348,l),
(646,-404,l),
(646,-486,l),
(90,-486,l),
(90,-404,l),
(129,-393,o),
(153,-381.5,q),
(177,-370,o),
(190,-350.5,q),
(203,-331,o),
(207.5,-299,q),
(212,-267,o),
(212,-214,q),
(212,711,l)
);
},
{
closed = 1;
nodes = (
(479,143,o),
(548.5,122.5,q),
(618,102,o),
(691,102,q),
(762,102,o),
(811.5,130.5,q),
(861,159,o),
(891.5,209.5,q),
(922,260,o),
(935.5,328,q),
(949,396,o),
(949,474,q),
(949,557,o),
(932.5,631,q),
(916,705,o),
(886.5,760.5,q),
(857,816,o),
(816.5,848.5,q),
(776,881,o),
(728,881,q),
(692,881,o),
(647,868.5,q),
(602,856,o),
(558.5,839,q),
(515,822,o),
(478.5,804,q),
(442,786,o),
(422,775,q),
(422,172,l)
);
}
);
width = 1253;
}
);
unicode = 112;
},
{
glyphname = q;
layers = (
{
layerId = "090b295d-3f71-4cfe-961f-4c3f744a43b8";
name = Fore;
shapes = (
{
closed = 1;
nodes = (
(90,589,o),
(118,678.5,q),
(146,768,o),
(199,836,q),
(237,888,o),
(286.5,927,q),
(336,966,o),
(390.5,992,q),
(445,1018,o),
(503,1031.5,q),
(561,1045,o),
(616,1045,q),
(673,1045,o),
(727.5,1033.5,q),
(782,1022,o),
(826,1012,q),
(862,1008,o),
(889.5,1004,q),
(917,1000,o),
(951.5,997,q),
(986,994,o),
(1035,991.5,q),
(1084,989,o),
(1162,988,q),
(1162,916,l),
(1036,870,l),
(1036,-346,l),
(1057,-358,o),
(1077,-369,q),
(1094,-379,o),
(1114,-388.5,q),
(1134,-398,o),
(1150,-403,q),
(1150,-485,l),
(630,-485,l),
(630,-403,l),
(685,-389,o),
(722.5,-378.5,q),
(760,-368,o),
(783,-351,q),
(806,-334,o),
(816,-306,q),
(826,-278,o),
(826,-229,q),
(826,147,l),
(717,59,o),
(635.5,20,q),
(554,-19,o),
(501,-19,q),
(428,-19,o),
(368.5,2.5,q),
(309,24,o),
(263.5,61,q),
(218,98,o),
(185,147,q),
(152,196,o),
(131,251,q),
(110,306,o),
(100,364,q),
(90,422,o),
(90,477,q)
);
},
{
closed = 1;
nodes = (
(553,142,o),
(592.5,152,q),
(632,162,o),
(674,177.5,q),
(716,193,o),
(756,212,q),
(796,231,o),
(826,249,q),
(826,848,l),
(780,875,o),
(710.5,895.5,q),
(641,916,o),
(562,918,q),
(512,919,o),
(465.5,900,q),
(419,881,o),
(383,837.5,q),
(347,794,o),
(325.5,723.5,q),
(304,653,o),
(304,551,q),
(304,462,o),
(322,387,q),
(340,312,o),
(370,257.5,q),
(400,203,o),
(440,172.5,q),
(480,142,o),
(525,142,q)
);
}
);
width = 1207;
}
);
unicode = 113;
},
{
glyphname = r;
layers = (
{
layerId = "090b295d-3f71-4cfe-961f-4c3f744a43b8";
name = Fore;
shapes = (
{
closed = 1;
nodes = (
(151,99,o),
(183.5,111.5,q),
(216,124,o),
(233.5,144.5,q),
(251,165,o),
(256,199,q),
(261,233,o),
(261,292,q),
(261,681,l),
(261,734,o),
(246,766.5,q),
(231,799,o),
(207,817.5,q),
(183,836,o),
(152.5,846,q),
(122,856,o),
(91,864,q),
(91,936,l),
(159,949,o),
(202.5,960,q),
(246,971,o),
(281.5,984.5,q),
(317,998,o),
(354,1016,q),
(391,1034,o),
(447,1062,q),
(487,1041,l),
(474,869,l),
(504,894,o),
(536,920,q),
(563,942,o),
(596.5,967,q),
(630,992,o),
(664,1013,q),
(706,1034,o),
(753,1040.5,q),
(800,1047,o),
(840,1046,q),
(887,1045,o),
(931,1036,q),
(905,680,l),
(793,680,l),
(772,824,l),
(770,827,o),
(767,834,q),
(764,841,o),
(758.5,847.5,q),
(753,854,o),
(745.5,859.5,q),
(738,865,o),
(728,865,q),
(692,864,o),
(654.5,855,q),
(617,846,o),
(583,832.5,q),
(549,819,o),
(520,803.5,q),
(491,788,o),
(471,775,q),
(471,137,l),
(707,82,l),
(707,0,l),
(96,0,l),
(96,82,l)
);
}
);
width = 967;
}
);
unicode = 114;
},
{
glyphname = s;
layers = (
{
layerId = "090b295d-3f71-4cfe-961f-4c3f744a43b8";
name = Fore;
shapes = (
{
closed = 1;
nodes = (
(278,323,l),
(316,214,l),
(327,184,o),
(336,175,q),
(345,166,o),
(353,161,q),
(386,146,o),
(418,137,q),
(450,128,o),
(483,122.5,q),
(516,117,o),
(551,115.5,q),
(586,114,o),
(624,114,q),
(647,114,o),
(666,123.5,q),
(685,133,o),
(698,149.5,q),
(711,166,o),
(718,186.5,q),
(725,207,o),
(725,230,q),
(725,282,o),
(700.5,316,q),
(676,350,o),
(636,373,q),
(596,396,o),
(544.5,412,q),
(493,428,o),
(440,443,q),
(387,458,o),
(335.5,477,q),
(284,496,o),
(244,524.5,q),
(204,553,o),
(179.5,595.5,q),
(155,638,o),
(155,702,q),
(155,780,o),
(180.5,842.5,q),
(206,905,o),
(255.5,949,q),
(305,993,o),
(377.5,1016.5,q),
(450,1040,o),
(544,1040,q),
(627,1040,o),
(704,1032.5,q),
(781,1025,o),
(863,1014,q),
(837,745,l),
(739,745,l),
(709,820,l),
(698,849,o),
(687,865.5,q),
(676,882,o),
(655,891,q),
(613,909,o),
(556.5,920.5,q),
(500,932,o),
(444,932,q),
(420,932,o),
(400,919,q),
(380,906,o),
(366.5,885.5,q),
(353,865,o),
(345.5,840.5,q),
(338,816,o),
(338,792,q),
(338,743,o),
(362.5,711,q),
(387,679,o),
(427,657.5,q),
(467,636,o),
(518,621.5,q),
(569,607,o),
(622,592,q),
(675,577,o),
(726,558.5,q),
(777,540,o),
(817,510.5,q),
(857,481,o),
(881.5,437.5,q),
(906,394,o),
(906,329,q),
(906,235,o),
(873.5,169.5,q),
(841,104,o),
(785,62.5,q),
(729,21,o),
(653.5,2,q),
(578,-17,o),
(493,-17,q),
(455,-17,o),
(408,-10,q),
(361,-3,o),
(313,8.5,q),
(265,20,o),
(220,35.5,q),
(175,51,o),
(140,68,q),
(174,325,l)
);
}
);
width = 1000;
}
);
unicode = 115;
},
{
glyphname = t;
layers = (
{
layerId = "090b295d-3f71-4cfe-961f-4c3f744a43b8";
name = Fore;
shapes = (
{
closed = 1;
nodes = (
(68,885,l),
(68,986,l),
(166,1023,l),
(195,1034,o),
(215.5,1053.5,q),
(236,1073,o),
(242,1088,q),
(319,1280,l),
(443,1280,l),
(436,1020,l),
(755,1020,l),
(755,885,l),
(436,885,l),
(436,240,l),
(436,192,o),
(462.5,171.5,q),
(489,151,o),
(537,151,q),
(564,151,o),
(597,157,q),
(630,163,o),
(663,172.5,q),
(696,182,o),
(727,193.5,q),
(758,205,o),
(781,216,q),
(819,120,l),
(783,97,o),
(735.5,71,q),
(688,45,o),
(637,23,q),
(586,1,o),
(534.5,-13,q),
(483,-27,o),
(438,-27,q),
(362,-27,o),
(319.5,-7.5,q),
(277,12,o),
(256,51.5,q),
(235,91,o),
(230.5,151,q),
(226,211,o),
(226,292,q),
(226,885,l)
);
}
);
width = 823;
}
);
unicode = 116;
},
{
glyphname = u;
layers = (
{
layerId = "090b295d-3f71-4cfe-961f-4c3f744a43b8";
name = Fore;
shapes = (
{
closed = 1;
nodes = (
(236,845,o),
(220.5,873,q),
(205,901,o),
(183.5,914.5,q),
(162,928,o),
(137.5,932.5,q),
(113,937,o),
(94,941,q),
(94,1017,l),
(461,1042,l),
(458,1014,o),
(456,988,q),
(454,962,o),
(452,931.5,q),
(450,901,o),
(449.5,865,q),
(449,829,o),
(448,781.5,q),
(447,734,o),
(447,673,q),
(447,612,o),
(447,533,q),
(447,268,l),
(447,226,o),
(455.5,201.5,q),
(464,177,o),
(483.5,164.5,q),
(503,152,o),
(535.5,149,q),
(568,146,o),
(616,146,q),
(656,146,o),
(697,153,q),
(738,160,o),
(776,171.5,q),
(814,183,o),
(846,197,q),
(878,211,o),
(901,225,q),
(901,783,l),
(901,824,o),
(887,852.5,q),
(873,881,o),
(848,899,q),
(823,917,o),
(788.5,927,q),
(754,937,o),
(713,941,q),
(713,1017,l),
(1117,1042,l),
(1115,989,o),
(1113.5,925,q),
(1112,861,o),
(1111.5,793.5,q),
(1111,726,o),
(1111,659,q),
(1111,592,o),
(1111,533,q),
(1111,265,l),
(1111,212,o),
(1122.5,185,q),
(1134,158,o),
(1154,146,q),
(1174,134,o),
(1201,131,q),
(1228,128,o),
(1260,124,q),
(1260,52,l),
(1207,41,o),
(1171,33.5,q),
(1135,26,o),
(1104,17.5,q),
(1073,9,o),
(1042.5,-3,q),
(1012,-15,o),
(970,-34,q),
(930,-13,l),
(905,129,l),
(873,107,o),
(837,85,q),
(806,66,o),
(767.5,45.5,q),
(729,25,o),
(689,11,q),
(680,8,o),
(662,1,q),
(644,-6,o),
(621,-13,q),
(598,-20,o),
(570.5,-25,q),
(543,-30,o),
(515,-30,q),
(442,-30,o),
(392.5,-14.5,q),
(343,1,o),
(312,29,q),
(281,57,o),
(265.5,95,q),
(250,133,o),
(243.5,177.5,q),
(237,222,o),
(237,271,q),
(237,320,o),
(237,370,q),
(237,795,l)
);
}
);
width = 1329;
}
);
unicode = 117;
},
{
glyphname = v;
layers = (
{
layerId = "090b295d-3f71-4cfe-961f-4c3f744a43b8";
name = Fore;
shapes = (
{
closed = 1;
nodes = (
(128,884,l),
(3,938,l),
(3,1020,l),
(505,1020,l),
(499,939,l),
(451,924,o),
(420.5,912.5,q),
(390,901,o),
(373,885,q),
(602,315,l),
(613,289,o),
(623.5,277,q),
(634,265,o),
(644,263,q),
(905,898,l),
(775,938,l),
(775,1020,l),
(1194,1020,l),
(1194,939,l),
(1147,924,o),
(1120,914.5,q),
(1093,905,o),
(1075.5,891.5,q),
(1058,878,o),
(1044.5,857,q),
(1031,836,o),
(1013,798,q),
(684,50,l),
(683,50,l),
(647,-44,l),
(548,-27,l),
(489,131,l),
(145,871,l)
);
}
);
width = 1163;
}
);
unicode = 118;
},
{
glyphname = w;
layers = (
{
layerId = "090b295d-3f71-4cfe-961f-4c3f744a43b8";
name = Fore;
shapes = (
{
closed = 1;
nodes = (
(428,220,o),
(387.5,313,q),
(347,406,o),
(305,504,q),
(263,602,o),
(222.5,700,q),
(182,798,o),
(147,883,q),
(16,937,l),
(13,1020,l),
(525,1020,l),
(519,938,l),
(461,920,o),
(428.5,906.5,q),
(396,893,o),
(380,871,q),
(579,337,l),
(586,317,o),
(594,309,q),
(602,301,o),
(611,301,q),
(814,794,l),
(803,820,o),
(792.5,846,q),
(782,872,o),
(772,896,q),
(649,937,l),
(646,1020,l),
(1136,1020,l),
(1130,938,l),
(1083,924,o),
(1051,911.5,q),
(1019,899,o),
(997,883,q),
(1205,328,l),
(1215,301,o),
(1229,296,q),
(1447,889,l),
(1285,937,l),
(1282,1020,l),
(1734,1020,l),
(1728,938,l),
(1692,930,o),
(1667.5,923,q),
(1643,916,o),
(1625,904,q),
(1607,892,o),
(1593.5,874,q),
(1580,856,o),
(1566,826,q),
(1268,61,l),
(1239,-30,l),
(1145,-13,l),
(1084,145,l),
(1064,197,o),
(1040,256,q),
(1016,315,o),
(990,378.5,q),
(964,442,o),
(936,507.5,q),
(908,573,o),
(881,638,q),
(670,135,l),
(658,103,o),
(643,64.5,q),
(628,26,o),
(606,-30,q),
(512,-13,l),
(463,145,l),
(463,145,l)
);
}
);
width = 1710;
}
);
unicode = 119;
},
{
glyphname = x;
layers = (
{
layerId = "090b295d-3f71-4cfe-961f-4c3f744a43b8";
name = Fore;
shapes = (
{
closed = 1;
nodes = (
(190,136,l),
(282,220,l),
(492,496,l),
(198,886,l),
(36,938,l),
(33,1020,l),
(546,1020,l),
(546,939,l),
(508,932,o),
(478,925.5,q),
(448,919,o),
(426,909,q),
(635,630,l),
(827,903,l),
(718,938,l),
(717,1020,l),
(1147,1020,l),
(1141,939,l),
(1110,929,o),
(1086.5,922.5,q),
(1063,916,o),
(1044,912,q),
(1025,908,o),
(1009.5,905.5,q),
(994,903,o),
(979,901,q),
(713,540,l),
(1027,126,l),
(1156,81,l),
(1156,0,l),
(673,0,l),
(673,82,l),
(791,131,l),
(571,407,l),
(368,140,l),
(377,130,o),
(391,123,q),
(405,116,o),
(425,110,q),
(445,104,o),
(471,97,q),
(497,90,o),
(531,81,q),
(532,0,l),
(35,0,l),
(38,82,l)
);
},
{
closed = 1;
nodes = (
(879,886,l),
(867,884,l),
(887,884,l)
);
}
);
width = 1164;
}
);
unicode = 120;
},
{
glyphname = y;
layers = (
{
layerId = "090b295d-3f71-4cfe-961f-4c3f744a43b8";
name = Fore;
shapes = (
{
closed = 1;
nodes = (
(268,-405,o),
(322.5,-374.5,q),
(377,-344,o),
(420,-301.5,q),
(463,-259,o),
(495.5,-210,q),
(528,-161,o),
(550.5,-117.5,q),
(573,-74,o),
(585.5,-42,q),
(598,-10,o),
(601,0,q),
(606,12,l),
(538,0,l),
(485,132,o),
(429.5,257.5,q),
(374,383,o),
(321.5,497.5,q),
(269,612,o),
(221,713.5,q),
(173,815,o),
(136,899,q),
(7,938,l),
(4,1020,l),
(561,1020,l),
(555,939,l),
(514,926,o),
(486.5,916,q),
(459,906,o),
(441,894,q),
(423,882,o),
(413.5,865.5,q),
(404,849,o),
(399,824,q),
(599,325,l),
(612,289,o),
(624,268.5,q),
(636,248,o),
(647,238.5,q),
(658,229,o),
(669.5,229,q),
(681,229,o),
(693,235,q),
(900,885,l),
(721,938,l),
(718,1020,l),
(1220,1020,l),
(1214,939,l),
(1154,925,o),
(1112.5,907.5,q),
(1071,890,o),
(1054,856,q),
(981,658,o),
(925,508,q),
(869,358,o),
(826.5,244.5,q),
(784,131,o),
(752,48,q),
(720,-35,o),
(695,-98,q),
(670,-161,o),
(650,-210,q),
(630,-259,o),
(610.5,-305.5,q),
(591,-352,o),
(570,-401,q),
(549,-450,o),
(522,-513,q),
(226,-513,l),
(202,-412,l),
(202,-412,l)
);
}
);
width = 1177;
}
);
unicode = 121;
},
{
glyphname = z;
layers = (
{
layerId = "090b295d-3f71-4cfe-961f-4c3f744a43b8";
name = Fore;
shapes = (
{
closed = 1;
nodes = (
(654,850,l),
(718,922,l),
(657,919,o),
(594.5,915,q),
(532,911,o),
(479.5,906.5,q),
(427,902,o),
(390.5,897.5,q),
(354,893,o),
(345,889,q),
(334,884,o),
(324,876.5,q),
(314,869,o),
(301.5,850,q),
(289,831,o),
(272,797,q),
(255,763,o),
(230,705,q),
(140,705,l),
(151,1020,l),
(925,1020,l),
(959,925,l),
(401,170,l),
(341,104,l),
(403,106,o),
(467.5,109.5,q),
(532,113,o),
(588,117.5,q),
(644,122,o),
(687,128.5,q),
(730,135,o),
(749,144,q),
(753,146,o),
(760,150.5,q),
(767,155,o),
(781.5,175.5,q),
(796,196,o),
(819.5,240.5,q),
(843,285,o),
(881,367,q),
(977,367,l),
(952,0,l),
(132,0,l),
(95,99,l)
);
}
);
width = 1044;
}
);
unicode = 122;
},
{
glyphname = braceleft;
layers = (
{
layerId = "090b295d-3f71-4cfe-961f-4c3f744a43b8";
name = Fore;
shapes = (
{
closed = 1;
nodes = (
(340,193,o),
(342.5,261,q),
(345,329,o),
(342,387.5,q),
(339,446,o),
(325.5,494.5,q),
(312,543,o),
(280,578.5,q),
(248,614,o),
(193.5,636.5,q),
(139,659,o),
(53,667,q),
(53,784,l),
(139,791,o),
(193.5,819,q),
(248,847,o),
(280,889,q),
(312,931,o),
(325.5,984.5,q),
(339,1038,o),
(342,1096.5,q),
(345,1155,o),
(342.5,1215.5,q),
(340,1276,o),
(340,1333,q),
(340,1452,o),
(364.5,1536.5,q),
(389,1621,o),
(441.5,1676.5,q),
(494,1732,o),
(577,1761.5,q),
(660,1791,o),
(778,1801,q),
(778,1704,l),
(724,1692,o),
(673,1667.5,q),
(622,1643,o),
(568,1601,q),
(554,1545,o),
(547,1499.5,q),
(540,1454,o),
(537.5,1411.5,q),
(535,1369,o),
(535,1324,q),
(535,1279,o),
(535,1225,q),
(535,1196,o),
(535,1174,q),
(535,1152,o),
(534.5,1133,q),
(534,1114,o),
(533,1096.5,q),
(532,1079,o),
(531,1059,q),
(528,1017,o),
(521.5,985,q),
(515,953,o),
(501,930,q),
(487,904,o),
(467.5,874.5,q),
(448,845,o),
(415.5,817.5,q),
(383,790,o),
(334,767,q),
(285,744,o),
(212,731,q),
(212,726,l),
(285,712,o),
(334,688.5,q),
(383,665,o),
(415.5,636.5,q),
(448,608,o),
(467.5,577.5,q),
(487,547,o),
(501,521,q),
(515,498,o),
(521.5,466,q),
(528,434,o),
(531,392,q),
(534,352,o),
(534.5,303,q),
(535,254,o),
(535,196,q),
(535,142,o),
(535,102,q),
(535,62,o),
(537.5,24.5,q),
(540,-13,o),
(547,-53.5,q),
(554,-94,o),
(568,-150,q),
(622,-192,o),
(673,-216.5,q),
(724,-241,o),
(778,-253,q),
(778,-350,l),
(660,-340,o),
(577,-310.5,q),
(494,-281,o),
(441.5,-225.5,q),
(389,-170,o),
(364.5,-85.5,q),
(340,-1,o),
(340,118,q)
);
}
);
width = 853;
}
);
unicode = 123;
},
{
glyphname = bar;
layers = (
{
layerId = "090b295d-3f71-4cfe-961f-4c3f744a43b8";
name = Fore;
shapes = (
{
closed = 1;
nodes = (
(329,1742,l),
(329,-360,l),
(183,-360,l),
(183,1734,l)
);
}
);
width = 513;
}
);
unicode = 124;
},
{
glyphname = asciitilde;
layers = (
{
layerId = "090b295d-3f71-4cfe-961f-4c3f744a43b8";
name = Fore;
shapes = (
{
closed = 1;
nodes = (
(187,529,o),
(211,578,q),
(235,627,o),
(269.5,666,q),
(304,705,o),
(347.5,729,q),
(391,753,o),
(441,753,q),
(496,753,o),
(545.5,730.5,q),
(595,708,o),
(638.5,681,q),
(682,654,o),
(719.5,631.5,q),
(757,609,o),
(788,609,q),
(812,609,o),
(833,624,q),
(854,639,o),
(871.5,660.5,q),
(889,682,o),
(902,705,q),
(915,728,o),
(924,745,q),
(1017,711,l),
(1005,664,o),
(982.5,617,q),
(960,570,o),
(928,532.5,q),
(896,495,o),
(855,471,q),
(814,447,o),
(765,447,q),
(726,447,o),
(692.5,457,q),
(659,467,o),
(629.5,482,q),
(600,497,o),
(573.5,515,q),
(547,533,o),
(522,548,q),
(497,563,o),
(473,573.5,q),
(449,584,o),
(425,585,q),
(387,586,o),
(363,571,q),
(339,556,o),
(322.5,534,q),
(306,512,o),
(294.5,488,q),
(283,464,o),
(272,446,q),
(175,480,l),
(175,480,l)
);
}
);
width = 1193;
}
);
unicode = 126;
},
{
glyphname = dagger;
layers = (
{
layerId = "090b295d-3f71-4cfe-961f-4c3f744a43b8";
name = Fore;
shapes = (
{
closed = 1;
nodes = (
(601,1189,l),
(556,1649,l),
(762,1649,l),
(717,1189,l),
(601,1189,l),
(601,1073,l),
(160,1027,l),
(160,1231,l)
);
},
{
closed = 1;
nodes = (
(1155,1231,l),
(1155,1027,l),
(717,1073,l),
(717,1189,l)
);
},
{
closed = 1;
nodes = (
(717,1073,l),
(761,-298,l),
(761,-303,l),
(556,-303,l),
(556,-298,l),
(601,1073,l)
);
}
);
width = 1314;
}
);
unicode = 8224;
},
{
glyphname = degree;
layers = (
{
layerId = "090b295d-3f71-4cfe-961f-4c3f744a43b8";
name = Fore;
shapes = (
{
closed = 1;
nodes = (
(429,836,o),
(361.5,865.5,q),
(294,895,o),
(245.5,945,q),
(197,995,o),
(170.5,1061.5,q),
(144,1128,o),
(144,1202,q),
(144,1276,o),
(170.5,1342.5,q),
(197,1409,o),
(245.5,1459.5,q),
(294,1510,o),
(361.5,1539.5,q),
(429,1569,o),
(511,1569,q),
(593,1569,o),
(660.5,1539.5,q),
(728,1510,o),
(776.5,1460,q),
(825,1410,o),
(851.5,1343.5,q),
(878,1277,o),
(878,1203,q),
(878,1129,o),
(851.5,1062.5,q),
(825,996,o),
(776.5,945.5,q),
(728,895,o),
(660.5,865.5,q),
(593,836,o),
(511,836,q)
);
},
{
closed = 1;
nodes = (
(563,968,o),
(603.5,988,q),
(644,1008,o),
(671.5,1041,q),
(699,1074,o),
(713,1116,q),
(727,1158,o),
(727,1203,q),
(727,1248,o),
(713,1290,q),
(699,1332,o),
(671.5,1365,q),
(644,1398,o),
(603.5,1418,q),
(563,1438,o),
(511,1438,q),
(459,1438,o),
(418.5,1418,q),
(378,1398,o),
(350.5,1365,q),
(323,1332,o),
(309,1289.5,q),
(295,1247,o),
(295,1202,q),
(295,1157,o),
(309,1115,q),
(323,1073,o),
(350.5,1040.5,q),
(378,1008,o),
(418.5,988,q),
(459,968,o),
(511,968,q)
);
}
);
width = 1023;
}
);
unicode = 176;
},
{
glyphname = cent;
layers = (
{
layerId = "090b295d-3f71-4cfe-961f-4c3f744a43b8";
name = Fore;
shapes = (
{
closed = 1;
nodes = (
(382,13,o),
(314,52.5,q),
(246,92,o),
(197,152.5,q),
(148,213,o),
(120.5,294,q),
(93,375,o),
(93,476,q),
(93,602,o),
(131,700.5,q),
(169,799,o),
(234.5,869.5,q),
(300,940,o),
(386.5,982,q),
(473,1024,o),
(570,1036,q),
(596,1284,l),
(710,1284,l),
(685,1041,l),
(748,1038,o),
(811,1024.5,q),
(874,1011,o),
(937,986,q),
(936,979,o),
(933,954.5,q),
(930,930,o),
(926,896.5,q),
(922,863,o),
(917.5,826,q),
(913,789,o),
(909,757.5,q),
(905,726,o),
(902.5,705.5,q),
(900,685,o),
(899,685,q),
(815,685,l),
(802,739,o),
(793.5,774,q),
(785,809,o),
(779,830,q),
(773,851,o),
(768.5,860,q),
(764,869,o),
(758,871,q),
(735,876,o),
(713.5,880.5,q),
(692,885,o),
(669,888,q),
(593,154,l),
(604,152,o),
(614.5,152,q),
(625,152,o),
(636,152,q),
(651,152,o),
(685,158.5,q),
(719,165,o),
(760.5,174.5,q),
(802,184,o),
(844,195.5,q),
(886,207,o),
(918,218,q),
(951,134,l),
(895,100,o),
(837.5,72,q),
(780,44,o),
(731,23.5,q),
(682,3,o),
(647.5,-8.5,q),
(613,-20,o),
(605,-20,q),
(597,-20,o),
(590,-19.5,q),
(583,-19,o),
(575,-19,q),
(552,-247,l),
(438,-247,l),
(463,-5,l)
);
},
{
closed = 1;
nodes = (
(523,895,o),
(486,889.5,q),
(449,884,o),
(415,874,q),
(385,854,o),
(362.5,812.5,q),
(340,771,o),
(324.5,724.5,q),
(309,678,o),
(301.5,634,q),
(294,590,o),
(294,565,q),
(294,503,o),
(304.5,444.5,q),
(315,386,o),
(337.5,336,q),
(360,286,o),
(395.5,246.5,q),
(431,207,o),
(482,183,q),
(556,895,l)
);
}
);
width = 1051;
}
);
unicode = 162;
},
{
glyphname = sterling;
layers = (
{
layerId = "090b295d-3f71-4cfe-961f-4c3f744a43b8";
name = Fore;
shapes = (
{
closed = 1;
nodes = (
(213,147,o),
(271.5,197,q),
(330,247,o),
(379,311,q),
(428,375,o),
(459.5,445,q),
(491,515,o),
(491,580,q),
(491,610,o),
(485.5,637.5,q),
(480,665,o),
(470,691,q),
(204,691,l),
(234,811,l),
(407,811,l),
(381,850,o),
(354.5,889.5,q),
(328,929,o),
(305.5,971,q),
(283,1013,o),
(269,1059.5,q),
(255,1106,o),
(255,1160,q),
(255,1228,o),
(277.5,1287,q),
(300,1346,o),
(339,1394,q),
(378,1442,o),
(431,1479,q),
(484,1516,o),
(545,1541,q),
(606,1566,o),
(672.5,1579,q),
(739,1592,o),
(805,1592,q),
(908,1592,o),
(976,1578,q),
(1044,1564,o),
(1086,1543,q),
(1128,1522,o),
(1149,1497,q),
(1170,1472,o),
(1180,1450,q),
(1175,1433,o),
(1170.5,1410,q),
(1166,1387,o),
(1160.5,1361.5,q),
(1155,1336,o),
(1150,1309,q),
(1145,1282,o),
(1141,1257,q),
(1130,1197,o),
(1121,1133,q),
(1007,1133,l),
(1010,1163,o),
(1010,1190,q),
(1010,1260,o),
(1002.5,1310,q),
(995,1360,o),
(964,1392,q),
(933,1424,o),
(871,1438.5,q),
(809,1453,o),
(701,1453,q),
(659,1453,o),
(622.5,1446.5,q),
(586,1440,o),
(557,1430.5,q),
(528,1421,o),
(507,1410,q),
(486,1399,o),
(475,1390,q),
(462,1364,o),
(459,1339,q),
(456,1314,o),
(456,1291,q),
(456,1232,o),
(479,1179,q),
(502,1126,o),
(533.5,1070,q),
(565,1014,o),
(599,951.5,q),
(633,889,o),
(655,811,q),
(1045,811,l),
(1015,691,l),
(678,691,l),
(681,658,o),
(681,624,q),
(681,548,o),
(663,485.5,q),
(645,423,o),
(618,373.5,q),
(591,324,o),
(559.5,288,q),
(528,252,o),
(502,228.5,q),
(476,205,o),
(458.5,193.5,q),
(441,182,o),
(443,182,q),
(532,210,o),
(618,213,q),
(704,216,o),
(780,208.5,q),
(856,201,o),
(919,190,q),
(982,179,o),
(1025,179,q),
(1064,179,o),
(1085.5,193.5,q),
(1107,208,o),
(1107,238,q),
(1107,246,o),
(1104,262,q),
(1101,278,o),
(1096,295.5,q),
(1091,313,o),
(1084,330,q),
(1077,347,o),
(1069,358,q),
(1183,389,l),
(1202,369,o),
(1218.5,339.5,q),
(1235,310,o),
(1247,277,q),
(1259,244,o),
(1265.5,211.5,q),
(1272,179,o),
(1272,152,q),
(1272,116,o),
(1266,83,q),
(1260,50,o),
(1243,25,q),
(1226,0,o),
(1195.5,-15,q),
(1165,-30,o),
(1116,-30,q),
(1071,-30,o),
(1013.5,-14,q),
(956,2,o),
(880.5,21.5,q),
(805,41,o),
(708,57,q),
(611,73,o),
(488,73,q),
(429,73,o),
(361.5,54,q),
(294,35,o),
(231,-7,q),
(158,123,l),
(158,123,l)
);
}
);
width = 1362;
}
);
unicode = 163;
},
{
glyphname = section;
layers = (
{
layerId = "090b295d-3f71-4cfe-961f-4c3f744a43b8";
name = Fore;
shapes = (
{
closed = 1;
nodes = (
(299,322,l),
(337,190,l),
(348,160,o),
(357,151,q),
(366,142,o),
(374,137,q),
(440,107,o),
(504,96.5,q),
(568,86,o),
(645,86,q),
(668,86,o),
(687,100,q),
(706,114,o),
(719,135,q),
(732,156,o),
(739,181,q),
(746,206,o),
(746,229,q),
(746,281,o),
(721.5,315,q),
(697,349,o),
(657,372,q),
(617,395,o),
(565.5,410.5,q),
(514,426,o),
(461,441.5,q),
(408,457,o),
(356.5,476,q),
(305,495,o),
(265,525,q),
(225,555,o),
(200.5,600,q),
(176,645,o),
(176,711,q),
(176,809,o),
(216,882,q),
(256,955,o),
(334,997,q),
(300,1012,o),
(270.5,1032,q),
(241,1052,o),
(219.5,1079,q),
(198,1106,o),
(185.5,1141.5,q),
(173,1177,o),
(173,1223,q),
(173,1301,o),
(198.5,1363.5,q),
(224,1426,o),
(273.5,1470,q),
(323,1514,o),
(395.5,1537.5,q),
(468,1561,o),
(562,1561,q),
(645,1561,o),
(722,1553.5,q),
(799,1546,o),
(881,1535,q),
(855,1260,l),
(757,1272,l),
(727,1349,l),
(716,1378,o),
(705,1394.5,q),
(694,1411,o),
(673,1420,q),
(631,1438,o),
(574.5,1451.5,q),
(518,1465,o),
(462,1465,q),
(438,1465,o),
(418,1451,q),
(398,1437,o),
(384.5,1415,q),
(371,1393,o),
(363.5,1367.5,q),
(356,1342,o),
(356,1318,q),
(356,1269,o),
(380.5,1237.5,q),
(405,1206,o),
(445,1185,q),
(485,1164,o),
(536,1150,q),
(587,1136,o),
(640,1121,q),
(693,1106,o),
(744,1087,q),
(795,1068,o),
(835,1037,q),
(875,1006,o),
(899.5,959.5,q),
(924,913,o),
(924,843,q),
(924,740,o),
(886,670,q),
(848,600,o),
(782,558,q),
(813,542,o),
(839.5,521.5,q),
(866,501,o),
(885.5,474,q),
(905,447,o),
(916,411.5,q),
(927,376,o),
(927,331,q),
(927,237,o),
(894.5,170,q),
(862,103,o),
(806,60.5,q),
(750,18,o),
(674.5,-2,q),
(599,-22,o),
(514,-22,q),
(476,-22,o),
(429,-15,q),
(382,-8,o),
(334,3.5,q),
(286,15,o),
(241,30.5,q),
(196,46,o),
(161,63,q),
(195,324,l)
);
},
{
closed = 1;
nodes = (
(349,753,o),
(377.5,720.5,q),
(406,688,o),
(451.5,667,q),
(497,646,o),
(554.5,631.5,q),
(612,617,o),
(670,600,q),
(688,610,o),
(703.5,621.5,q),
(719,633,o),
(730,649.5,q),
(741,666,o),
(747,688,q),
(753,710,o),
(753,741,q),
(753,796,o),
(725.5,830.5,q),
(698,865,o),
(653,888.5,q),
(608,912,o),
(552,927.5,q),
(496,943,o),
(439,960,q),
(391,935,o),
(370,901,q),
(349,867,o),
(349,806,q)
);
}
);
width = 1051;
}
);
unicode = 167;
},
{
glyphname = bullet;
layers = (
{
layerId = "090b295d-3f71-4cfe-961f-4c3f744a43b8";
name = Fore;
shapes = (
{
closed = 1;
nodes = (
(460,526,o),
(417.5,545.5,q),
(375,565,o),
(343,597.5,q),
(311,630,o),
(293,673,q),
(275,716,o),
(275,763,q),
(275,810,o),
(293,853.5,q),
(311,897,o),
(343,930,q),
(375,963,o),
(417.5,982.5,q),
(460,1002,o),
(510,1002,q),
(560,1002,o),
(603.5,982.5,q),
(647,963,o),
(679,930,q),
(711,897,o),
(729,853.5,q),
(747,810,o),
(747,763,q),
(747,716,o),
(729,673,q),
(711,630,o),
(679,597.5,q),
(647,565,o),
(603.5,545.5,q),
(560,526,o),
(510,526,q)
);
}
);
width = 1023;
}
);
unicode = 8226;
},
{
glyphname = paragraph;
layers = (
{
layerId = "090b295d-3f71-4cfe-961f-4c3f744a43b8";
name = Fore;
shapes = (
{
closed = 1;
nodes = (
(569,-51,o),
(608,-46.5,q),
(647,-42,o),
(668,-22,q),
(689,-2,o),
(695.5,40.5,q),
(702,83,o),
(702,158,q),
(702,508,l),
(621,483,o),
(550,483,q),
(448,483,o),
(374,525,q),
(300,567,o),
(252,635,q),
(204,703,o),
(181,788.5,q),
(158,874,o),
(158,960,q),
(158,1050,o),
(197.5,1138.5,q),
(237,1227,o),
(318,1298,q),
(399,1369,o),
(521.5,1413,q),
(644,1457,o),
(809,1457,q),
(1322,1457,l),
(1307,1340,l),
(1263,1340,o),
(1235.5,1333,q),
(1208,1326,o),
(1191.5,1304,q),
(1175,1282,o),
(1169,1241,q),
(1163,1200,o),
(1163,1131,q),
(1163,-153,l),
(1025,-153,l),
(1024,1225,l),
(1025,1263,o),
(1034,1291,q),
(1043,1319,o),
(1059,1340,q),
(854,1340,l),
(854,88,l),
(854,21,o),
(840,-25.5,q),
(826,-72,o),
(798,-100.5,q),
(770,-129,o),
(728,-141,q),
(686,-153,o),
(630,-153,q),
(630,-152,l),
(505,-153,l),
(505,-51,l),
(505,-51,l)
);
}
);
width = 1323;
}
);
unicode = 182;
},
{
glyphname = germandbls;
layers = (
{
layerId = "090b295d-3f71-4cfe-961f-4c3f744a43b8";
name = Fore;
shapes = (
{
closed = 1;
nodes = (
(95,91,o),
(125,99.5,q),
(155,108,o),
(175,117.5,q),
(195,127,o),
(207,140.5,q),
(219,154,o),
(225.5,174.5,q),
(232,195,o),
(234,223.5,q),
(236,252,o),
(236,292,q),
(238,885,l),
(78,885,l),
(78,1000,l),
(238,1020,l),
(238,1071,l),
(245,1184,o),
(277,1282.5,q),
(309,1381,o),
(373,1453.5,q),
(437,1526,o),
(536,1568,q),
(635,1610,o),
(777,1610,q),
(882,1610,o),
(956,1587,q),
(1030,1564,o),
(1076.5,1523,q),
(1123,1482,o),
(1144.5,1425.5,q),
(1166,1369,o),
(1166,1301,q),
(1166,1220,o),
(1143,1164,q),
(1120,1108,o),
(1084.5,1069,q),
(1049,1030,o),
(1007,1005,q),
(965,980,o),
(926.5,960,q),
(888,940,o),
(858.5,922.5,q),
(829,905,o),
(820,881,q),
(820,835,o),
(842.5,803,q),
(865,771,o),
(901.5,747,q),
(938,723,o),
(984.5,703,q),
(1031,683,o),
(1079.5,661.5,q),
(1128,640,o),
(1174.5,614,q),
(1221,588,o),
(1257.5,552,q),
(1294,516,o),
(1316.5,466,q),
(1339,416,o),
(1339,346,q),
(1339,242,o),
(1307,172,q),
(1275,102,o),
(1220.5,60,q),
(1166,18,o),
(1092.5,0.5,q),
(1019,-17,o),
(936,-17,q),
(898,-17,o),
(860,-10,q),
(822,-3,o),
(787.5,8.5,q),
(753,20,o),
(724,35.5,q),
(695,51,o),
(674,68,q),
(700,327,l),
(812,327,l),
(861,156,l),
(871,142,o),
(894,134,q),
(917,126,o),
(945,121.5,q),
(973,117,o),
(1003,115.5,q),
(1033,114,o),
(1058,114,q),
(1079,114,o),
(1097.5,126,q),
(1116,138,o),
(1129.5,157.5,q),
(1143,177,o),
(1151,202.5,q),
(1159,228,o),
(1159,254,q),
(1159,306,o),
(1137.5,343.5,q),
(1116,381,o),
(1080.5,409.5,q),
(1045,438,o),
(1000,460,q),
(955,482,o),
(907.5,503.5,q),
(860,525,o),
(815,549,q),
(770,573,o),
(734.5,604,q),
(699,635,o),
(677.5,677,q),
(656,719,o),
(656,777,q),
(656,838,o),
(678,880.5,q),
(700,923,o),
(732.5,956.5,q),
(765,990,o),
(803.5,1019.5,q),
(842,1049,o),
(874.5,1085.5,q),
(907,1122,o),
(929,1170.5,q),
(951,1219,o),
(951,1290,q),
(951,1454,o),
(703,1484,q),
(664,1484,o),
(629,1470,q),
(594,1456,o),
(564,1435.5,q),
(534,1415,o),
(509,1390.5,q),
(484,1366,o),
(465,1345,q),
(460,1336,o),
(457,1289,q),
(454,1242,o),
(452.5,1168.5,q),
(451,1095,o),
(450.5,1002.5,q),
(450,910,o),
(450,809.5,q),
(450,709,o),
(451,607.5,q),
(452,506,o),
(453.5,416,q),
(455,326,o),
(456.5,253,q),
(458,180,o),
(459,137,q),
(566,82,l),
(566,0,l),
(53,0,l),
(53,82,l)
);
}
);
width = 1359;
}
);
unicode = 223;
},
{
glyphname = registered;
layers = (
{
layerId = "090b295d-3f71-4cfe-961f-4c3f744a43b8";
name = Fore;
shapes = (
{
closed = 1;
nodes = (
(115,887,o),
(143.5,990,q),
(172,1093,o),
(223.5,1183,q),
(275,1273,o),
(347.5,1347.5,q),
(420,1422,o),
(508,1475,q),
(596,1528,o),
(698,1557.5,q),
(800,1587,o),
(910,1587,q),
(1020,1587,o),
(1122,1559,q),
(1224,1531,o),
(1312,1480,q),
(1400,1429,o),
(1472.5,1356,q),
(1545,1283,o),
(1596.5,1193,q),
(1648,1103,o),
(1676.5,998,q),
(1705,893,o),
(1705,778,q),
(1705,667,o),
(1676.5,564,q),
(1648,461,o),
(1596.5,371,q),
(1545,281,o),
(1472.5,206.5,q),
(1400,132,o),
(1312,79,q),
(1224,26,o),
(1122,-3.5,q),
(1020,-33,o),
(910,-33,q),
(800,-33,o),
(698,-5,q),
(596,23,o),
(508,74,q),
(420,125,o),
(347.5,198,q),
(275,271,o),
(223.5,361,q),
(172,451,o),
(143.5,555.5,q),
(115,660,o),
(115,776,q)
);
},
{
closed = 1;
nodes = (
(549,416,o),
(572,423,q),
(595,430,o),
(608,441,q),
(621,452,o),
(626,471.5,q),
(631,491,o),
(631,524,q),
(631,1110,l),
(513,1140,l),
(513,1216,l),
(710,1216,l),
(747,1216,o),
(774,1218,q),
(801,1220,o),
(833,1222,q),
(865,1224,o),
(908.5,1226,q),
(952,1228,o),
(1021,1228,q),
(1068,1228,o),
(1113,1214.5,q),
(1158,1201,o),
(1193,1174,q),
(1228,1147,o),
(1249.5,1106.5,q),
(1271,1066,o),
(1271,1011,q),
(1271,967,o),
(1255,923,q),
(1239,879,o),
(1209,842,q),
(1179,805,o),
(1136.5,778.5,q),
(1094,752,o),
(1041,743,q),
(1071,704,o),
(1118,652,q),
(1165,600,o),
(1221.5,549.5,q),
(1278,499,o),
(1340.5,457,q),
(1403,415,o),
(1465,395,q),
(1514,480,o),
(1540.5,577.5,q),
(1567,675,o),
(1567,778,q),
(1567,875,o),
(1545,966,q),
(1523,1057,o),
(1482,1136.5,q),
(1441,1216,o),
(1382.5,1282,q),
(1324,1348,o),
(1251,1395,q),
(1178,1442,o),
(1092,1467.5,q),
(1006,1493,o),
(910,1493,q),
(814,1493,o),
(728,1466,q),
(642,1439,o),
(569,1390,q),
(496,1341,o),
(437.5,1274,q),
(379,1207,o),
(338,1127.5,q),
(297,1048,o),
(275,958.5,q),
(253,869,o),
(253,776,q),
(253,678,o),
(275,587.5,q),
(297,497,o),
(338,417,q),
(379,337,o),
(437.5,271.5,q),
(496,206,o),
(569,159,q),
(642,112,o),
(728,86,q),
(814,60,o),
(910,60,q),
(992,60,o),
(1067.5,80.5,q),
(1143,101,o),
(1209,137.5,q),
(1275,174,o),
(1330.5,225.5,q),
(1386,277,o),
(1430,340,q),
(1416,340,o),
(1403,340,q),
(1390,340,o),
(1378,341,q),
(1327,341,o),
(1279,347,q),
(1240,353,o),
(1210.5,369,q),
(1181,385,o),
(1155.5,407.5,q),
(1130,430,o),
(1107.5,458,q),
(1085,486,o),
(1061,515,q),
(1022,565,o),
(977,617.5,q),
(932,670,o),
(896,728,q),
(884,728,o),
(874,729,q),
(864,730,o),
(852.5,731,q),
(841,732,o),
(825,733.5,q),
(809,735,o),
(784,738,q),
(784,439,l),
(919,409,l),
(919,344,l),
(513,344,l),
(513,409,l)
);
},
{
closed = 1;
nodes = (
(850,816,o),
(910,815.5,q),
(970,815,o),
(1016,830.5,q),
(1062,846,o),
(1089.5,882,q),
(1117,918,o),
(1117,986,q),
(1117,1029,o),
(1101.5,1059,q),
(1086,1089,o),
(1059,1107,q),
(1032,1125,o),
(995.5,1133,q),
(959,1141,o),
(918,1141,q),
(871,1141,o),
(844,1135.5,q),
(817,1130,o),
(803.5,1116,q),
(790,1102,o),
(787,1077.5,q),
(784,1053,o),
(784,1015,q),
(784,823,l)
);
}
);
width = 1818;
}
);
unicode = 174;
},
{
glyphname = copyright;
layers = (
{
layerId = "090b295d-3f71-4cfe-961f-4c3f744a43b8";
name = Fore;
shapes = (
{
closed = 1;
nodes = (
(115,887,o),
(143.5,990,q),
(172,1093,o),
(223.5,1183,q),
(275,1273,o),
(347.5,1347.5,q),
(420,1422,o),
(508,1475,q),
(596,1528,o),
(698,1557.5,q),
(800,1587,o),
(910,1587,q),
(1020,1587,o),
(1122,1559,q),
(1224,1531,o),
(1312,1480,q),
(1400,1429,o),
(1472.5,1356,q),
(1545,1283,o),
(1596.5,1193,q),
(1648,1103,o),
(1676.5,998,q),
(1705,893,o),
(1705,778,q),
(1705,667,o),
(1676.5,564,q),
(1648,461,o),
(1596.5,371,q),
(1545,281,o),
(1472.5,206.5,q),
(1400,132,o),
(1312,79,q),
(1224,26,o),
(1122,-3.5,q),
(1020,-33,o),
(910,-33,q),
(800,-33,o),
(698,-5,q),
(596,23,o),
(508,74,q),
(420,125,o),
(347.5,198,q),
(275,271,o),
(223.5,361,q),
(172,451,o),
(143.5,555.5,q),
(115,660,o),
(115,776,q)
);
},
{
closed = 1;
nodes = (
(253,678,o),
(275,587.5,q),
(297,497,o),
(338,417,q),
(379,337,o),
(437.5,271.5,q),
(496,206,o),
(569,159,q),
(642,112,o),
(728,86,q),
(814,60,o),
(910,60,q),
(1006,60,o),
(1092,87.5,q),
(1178,115,o),
(1251,163.5,q),
(1324,212,o),
(1382.5,279,q),
(1441,346,o),
(1482,426,q),
(1523,506,o),
(1545,595.5,q),
(1567,685,o),
(1567,778,q),
(1567,875,o),
(1545,966,q),
(1523,1057,o),
(1482,1136.5,q),
(1441,1216,o),
(1382.5,1282,q),
(1324,1348,o),
(1251,1395,q),
(1178,1442,o),
(1092,1467.5,q),
(1006,1493,o),
(910,1493,q),
(814,1493,o),
(728,1466,q),
(642,1439,o),
(569,1390,q),
(496,1341,o),
(437.5,1274,q),
(379,1207,o),
(338,1127.5,q),
(297,1048,o),
(275,958.5,q),
(253,869,o),
(253,776,q)
);
},
{
closed = 1;
nodes = (
(456,849,o),
(485.5,939,q),
(515,1029,o),
(573.5,1099,q),
(632,1169,o),
(719,1211.5,q),
(806,1254,o),
(921,1254,q),
(987,1254,o),
(1046,1245,q),
(1105,1236,o),
(1151,1225,q),
(1205,1212,o),
(1251,1196,q),
(1224,929,l),
(1153,929,l),
(1120,1096,l),
(1084,1112,o),
(1040,1122.5,q),
(996,1133,o),
(947,1137,q),
(898,1141,o),
(845.5,1136.5,q),
(793,1132,o),
(741,1118,q),
(681,1060,o),
(652.5,984.5,q),
(624,909,o),
(624,820,q),
(624,729,o),
(652.5,658,q),
(681,587,o),
(730.5,538,q),
(780,489,o),
(847.5,463.5,q),
(915,438,o),
(993,438,q),
(1002,438,o),
(1023,445.5,q),
(1044,453,o),
(1071.5,464.5,q),
(1099,476,o),
(1130.5,489.5,q),
(1162,503,o),
(1192,515,q),
(1230,440,l),
(1147,384,o),
(1094,354.5,q),
(1041,325,o),
(1009,312,q),
(977,299,o),
(961.5,297,q),
(946,295,o),
(939,295,q),
(819,295,o),
(728.5,333.5,q),
(638,372,o),
(577.5,436,q),
(517,500,o),
(486.5,583,q),
(456,666,o),
(456,755,q)
);
}
);
width = 1809;
}
);
unicode = 169;
},
{
glyphname = trademark;
layers = (
{
layerId = "090b295d-3f71-4cfe-961f-4c3f744a43b8";
name = Fore;
shapes = (
{
closed = 1;
nodes = (
(292,741,o),
(315.5,746.5,q),
(339,752,o),
(354.5,762,q),
(370,772,o),
(377.5,787.5,q),
(385,803,o),
(385,829,q),
(385,1390,l),
(218,1383,l),
(167,1253,l),
(80,1253,l),
(94,1511,l),
(185,1498,l),
(736,1498,l),
(833,1511,l),
(819,1253,l),
(734,1253,l),
(704,1383,l),
(656,1385,o),
(628,1386.5,q),
(600,1388,o),
(584,1388.5,q),
(568,1389,o),
(561,1389.5,q),
(554,1390,o),
(547,1390,q),
(545,1384,o),
(545,1375,q),
(545,1366,o),
(545,1352,q),
(545,765,l),
(675,734,l),
(675,657,l),
(261,657,l),
(261,735,l)
);
},
{
closed = 1;
nodes = (
(897,740,o),
(913,746.5,q),
(929,753,o),
(938,763,q),
(947,773,o),
(952.5,788,q),
(958,803,o),
(964,828,q),
(964,830,o),
(965,834,q),
(966,838,o),
(968.5,854.5,q),
(971,871,o),
(975.5,904,q),
(980,937,o),
(988.5,996.5,q),
(997,1056,o),
(1009.5,1146.5,q),
(1022,1237,o),
(1040,1368,q),
(1035,1390,o),
(1015.5,1400,q),
(996,1410,o),
(950,1421,q),
(950,1498,l),
(1214,1498,l),
(1214,1462,l),
(1450,912,l),
(1676,1468,l),
(1676,1473,o),
(1675,1483.5,q),
(1674,1494,o),
(1674,1498,q),
(1940,1498,l),
(1940,1420,l),
(1914,1414,l),
(1894,1409,o),
(1880.5,1404,q),
(1867,1399,o),
(1858.5,1390.5,q),
(1850,1382,o),
(1846.5,1369,q),
(1843,1356,o),
(1843,1334,q),
(1852,1268,o),
(1862,1195.5,q),
(1872,1123,o),
(1882,1049,q),
(1892,975,o),
(1902,902,q),
(1912,829,o),
(1921,763,q),
(1946,756,o),
(1975,748.5,q),
(2004,741,o),
(2026,734,q),
(2026,657,l),
(1663,657,l),
(1663,734,l),
(1692,741,o),
(1710.5,747.5,q),
(1729,754,o),
(1740,763.5,q),
(1751,773,o),
(1755,788,q),
(1759,803,o),
(1759,828,q),
(1745,931,o),
(1731.5,1038,q),
(1718,1145,o),
(1706,1251,q),
(1482,699,l),
(1482,695,o),
(1480,691.5,q),
(1478,688,o),
(1469.5,683,q),
(1461,678,o),
(1443.5,669.5,q),
(1426,661,o),
(1395,648,q),
(1143,1251,l),
(1131,1126,o),
(1118,1008,q),
(1105,890,o),
(1093,763,q),
(1187,733,l),
(1187,657,l),
(869,657,l),
(869,733,l)
);
}
);
width = 2099;
}
);
unicode = 8482;
},
{
glyphname = acute;
layers = (
{
layerId = "090b295d-3f71-4cfe-961f-4c3f744a43b8";
name = Fore;
shapes = (
{
closed = 1;
nodes = (
(193,1329,o),
(266.5,1434,q),
(340,1539,o),
(417,1645,q),
(438,1641,o),
(464,1628,q),
(490,1615,o),
(516,1597,q),
(542,1579,o),
(566.5,1558.5,q),
(591,1538,o),
(609,1519,q),
(204,1164,l),
(114,1229,l)
);
}
);
width = 723;
}
);
unicode = 180;
},
{
glyphname = dieresis;
layers = (
{
layerId = "090b295d-3f71-4cfe-961f-4c3f744a43b8";
name = Fore;
shapes = (
{
closed = 1;
nodes = (
(689,1244,o),
(662,1247.5,q),
(635,1251,o),
(613.5,1264.5,q),
(592,1278,o),
(577.5,1299,q),
(563,1320,o),
(557,1346,q),
(551,1373,o),
(554,1400,q),
(557,1427,o),
(569,1450.5,q),
(581,1474,o),
(603,1492,q),
(625,1510,o),
(657,1519,q),
(718,1536,o),
(762.5,1509.5,q),
(807,1483,o),
(820,1426,q),
(826,1401,o),
(822.5,1374,q),
(819,1347,o),
(807,1323,q),
(795,1299,o),
(773,1280.5,q),
(751,1262,o),
(720,1253,q)
);
},
{
closed = 1;
nodes = (
(251,1244,o),
(224,1247.5,q),
(197,1251,o),
(175.5,1264.5,q),
(154,1278,o),
(139.5,1299,q),
(125,1320,o),
(119,1346,q),
(113,1373,o),
(116,1400,q),
(119,1427,o),
(131,1450.5,q),
(143,1474,o),
(165,1492,q),
(187,1510,o),
(219,1519,q),
(280,1536,o),
(324.5,1509.5,q),
(369,1483,o),
(382,1426,q),
(388,1401,o),
(384.5,1374,q),
(381,1347,o),
(369,1323,q),
(357,1299,o),
(335,1280.5,q),
(313,1262,o),
(282,1253,q)
);
}
);
width = 938;
}
);
unicode = 168;
},
{
glyphname = notequal;
layers = (
{
layerId = "090b295d-3f71-4cfe-961f-4c3f744a43b8";
name = Fore;
shapes = (
{
closed = 1;
nodes = (
(158,341,l),
(158,464,l),
(441,464,l),
(563,777,l),
(158,777,l),
(158,899,l),
(610,899,l),
(714,1164,l),
(867,1164,l),
(763,899,l),
(1037,899,l),
(1037,777,l),
(716,777,l),
(594,464,l),
(1037,464,l),
(1037,341,l),
(546,341,l),
(460,120,l),
(307,120,l),
(393,341,l)
);
}
);
width = 1195;
}
);
unicode = 8800;
},
{
glyphname = AE;
layers = (
{
layerId = "090b295d-3f71-4cfe-961f-4c3f744a43b8";
name = Fore;
shapes = (
{
closed = 1;
nodes = (
(-32,90,o),
(-3.5,96.5,q),
(25,103,o),
(52,110.5,q),
(79,118,o),
(103,126.5,q),
(127,135,o),
(147,147,q),
(693,1411,l),
(394,1431,l),
(394,1530,l),
(969,1530,l),
(1651,1529,l),
(1804,1549,l),
(1804,1137,l),
(1700,1135,l),
(1627,1384,l),
(1480,1390,o),
(1387,1393,q),
(1294,1396,o),
(1241,1398,q),
(1179,1400,o),
(1149,1399,q),
(1148,831,l),
(1590,860,l),
(1590,680,l),
(1148,715,l),
(1148,122,l),
(1729,143,l),
(1821,430,l),
(1929,430,l),
(1910,-18,l),
(1769,0,l),
(772,0,l),
(772,79,l),
(822,93,o),
(853.5,104.5,q),
(885,116,o),
(902.5,136.5,q),
(920,157,o),
(926,190.5,q),
(932,224,o),
(932,281,q),
(932,561,l),
(497,561,l),
(325,123,l),
(522,82,l),
(522,0,l),
(-60,0,l),
(-60,82,l)
);
},
{
closed = 1;
nodes = (
(932,1396,l),
(918,1396,o),
(899.5,1395.5,q),
(881,1395,o),
(860.5,1385.5,q),
(840,1376,o),
(820,1353.5,q),
(800,1331,o),
(783,1288,q),
(542,675,l),
(932,675,l)
);
}
);
width = 2023;
}
);
unicode = 198;
},
{
glyphname = infinity;
layers = (
{
layerId = "090b295d-3f71-4cfe-961f-4c3f744a43b8";
name = Fore;
shapes = (
{
closed = 1;
nodes = (
(432,127,o),
(366.5,158,q),
(301,189,o),
(258.5,243.5,q),
(216,298,o),
(195.5,372,q),
(175,446,o),
(175,531,q),
(175,617,o),
(207.5,699,q),
(240,781,o),
(295.5,844.5,q),
(351,908,o),
(424.5,946.5,q),
(498,985,o),
(579,985,q),
(647,985,o),
(704,965.5,q),
(761,946,o),
(809,911.5,q),
(857,877,o),
(896,830,q),
(935,783,o),
(968,728,q),
(974,714,l),
(1014,764,o),
(1051,812.5,q),
(1088,861,o),
(1131,899.5,q),
(1174,938,o),
(1227.5,961.5,q),
(1281,985,o),
(1354,985,q),
(1444,985,o),
(1509.5,954,q),
(1575,923,o),
(1617.5,868.5,q),
(1660,814,o),
(1680.5,740,q),
(1701,666,o),
(1701,581,q),
(1701,523,o),
(1686,467.5,q),
(1671,412,o),
(1644,361.5,q),
(1617,311,o),
(1580,268,q),
(1543,225,o),
(1498,193.5,q),
(1453,162,o),
(1402,144.5,q),
(1351,127,o),
(1297,127,q),
(1229,127,o),
(1172,146.5,q),
(1115,166,o),
(1067,200.5,q),
(1019,235,o),
(980,282,q),
(941,329,o),
(908,384,q),
(902,398,l),
(862,348,o),
(825,299,q),
(788,250,o),
(745,212,q),
(702,174,o),
(648.5,150.5,q),
(595,127,o),
(522,127,q)
);
},
{
closed = 1;
nodes = (
(1041,560,o),
(1074,505.5,q),
(1107,451,o),
(1152,409.5,q),
(1197,368,o),
(1251.5,344,q),
(1306,320,o),
(1366,320,q),
(1463,320,o),
(1516,378.5,q),
(1569,437,o),
(1569,546,q),
(1569,602,o),
(1550.5,647.5,q),
(1532,693,o),
(1501.5,725,q),
(1471,757,o),
(1431,774.5,q),
(1391,792,o),
(1349,792,q),
(1304,792,o),
(1258,778.5,q),
(1212,765,o),
(1169,741.5,q),
(1126,718,o),
(1089,687,q),
(1052,656,o),
(1024,621,q)
);
},
{
closed = 1;
nodes = (
(572,320,o),
(618,333.5,q),
(664,347,o),
(706.5,370,q),
(749,393,o),
(786.5,424.5,q),
(824,456,o),
(852,491,q),
(835,552,o),
(802,606.5,q),
(769,661,o),
(724,702.5,q),
(679,744,o),
(624.5,768,q),
(570,792,o),
(510,792,q),
(413,792,o),
(360,733.5,q),
(307,675,o),
(307,566,q),
(307,510,o),
(325.5,464.5,q),
(344,419,o),
(374.5,387,q),
(405,355,o),
(445,337.5,q),
(485,320,o),
(527,320,q)
);
}
);
width = 1876;
}
);
unicode = 8734;
},
{
glyphname = plusminus;
layers = (
{
layerId = "090b295d-3f71-4cfe-961f-4c3f744a43b8";
name = Fore;
shapes = (
{
closed = 1;
nodes = (
(515,702,l),
(515,1057,l),
(678,1057,l),
(678,702,l),
(1021,702,l),
(1021,539,l),
(678,539,l),
(678,243,l),
(515,243,l),
(515,539,l),
(171,539,l),
(171,702,l)
);
},
{
closed = 1;
nodes = (
(1021,132,l),
(1021,-31,l),
(171,-31,l),
(171,132,l)
);
}
);
width = 1303;
}
);
unicode = 177;
},
{
glyphname = lessequal;
layers = (
{
layerId = "090b295d-3f71-4cfe-961f-4c3f744a43b8";
name = Fore;
shapes = (
{
closed = 1;
nodes = (
(1104,1048,l),
(1104,904,l),
(336,655,l),
(1104,401,l),
(1104,260,l),
(219,569,l),
(219,740,l)
);
},
{
closed = 1;
nodes = (
(1104,158,l),
(1104,43,l),
(219,43,l),
(216,158,l)
);
}
);
width = 1327;
}
);
unicode = 8804;
},
{
glyphname = greaterequal;
layers = (
{
layerId = "090b295d-3f71-4cfe-961f-4c3f744a43b8";
name = Fore;
shapes = (
{
closed = 1;
nodes = (
(984,655,l),
(216,904,l),
(216,1048,l),
(1101,740,l),
(1101,569,l),
(216,260,l),
(216,401,l)
);
},
{
closed = 1;
nodes = (
(1104,158,l),
(1101,43,l),
(216,43,l),
(216,158,l)
);
}
);
width = 1306;
}
);
unicode = 8805;
},
{
glyphname = yen;
layers = (
{
layerId = "090b295d-3f71-4cfe-961f-4c3f744a43b8";
name = Fore;
shapes = (
{
closed = 1;
nodes = (
(670,466,l),
(670,679,l),
(250,679,l),
(250,781,l),
(656,781,l),
(234,1326,l),
(171,1393,l),
(40,1448,l),
(40,1530,l),
(605,1530,l),
(605,1448,l),
(519,1438,o),
(479.5,1419.5,q),
(440,1401,o),
(442,1360,q),
(789,867,l),
(1157,1408,l),
(1003,1448,l),
(1003,1530,l),
(1491,1530,l),
(1491,1448,l),
(1443,1434,o),
(1405.5,1423.5,q),
(1368,1413,o),
(1339,1396,q),
(886,781,l),
(1333,781,l),
(1333,679,l),
(886,679,l),
(886,466,l),
(1333,466,l),
(1333,364,l),
(886,364,l),
(886,138,l),
(1109,83,l),
(1109,1,l),
(448,1,l),
(448,83,l),
(512,93,o),
(554.5,104.5,q),
(597,116,o),
(622.5,138,q),
(648,160,o),
(659,196.5,q),
(670,233,o),
(670,293,q),
(670,364,l),
(250,364,l),
(250,466,l)
);
}
);
width = 1532;
}
);
unicode = 165;
},
{
glyphname = mu;
layers = (
{
layerId = "090b295d-3f71-4cfe-961f-4c3f744a43b8";
name = Fore;
shapes = (
{
closed = 1;
nodes = (
(175,-220,o),
(174.5,-107,q),
(174,6,o),
(174,151,q),
(174,296,o),
(174,468,q),
(174,640,o),
(174,828,q),
(174,900,o),
(179,946,q),
(184,992,o),
(206,1017,q),
(228,1042,o),
(272.5,1046.5,q),
(317,1051,o),
(395,1041,q),
(391,1006,o),
(389,949,q),
(387,892,o),
(386,817,q),
(385,742,o),
(384.5,652,q),
(384,562,o),
(384,462,q),
(384,237,l),
(391,218,o),
(406.5,200.5,q),
(422,183,o),
(447.5,169.5,q),
(473,156,o),
(508,148,q),
(543,140,o),
(589,140,q),
(624,140,o),
(652.5,142,q),
(681,144,o),
(707.5,149.5,q),
(734,155,o),
(762,163.5,q),
(790,172,o),
(824,184,q),
(824,828,l),
(824,900,o),
(831,946,q),
(838,992,o),
(860.5,1017,q),
(883,1042,o),
(925.5,1046.5,q),
(968,1051,o),
(1039,1041,q),
(1038,1011,o),
(1037,964.5,q),
(1036,918,o),
(1035.5,862.5,q),
(1035,807,o),
(1034.5,746.5,q),
(1034,686,o),
(1034,629.5,q),
(1034,573,o),
(1034,524,q),
(1034,475,o),
(1034,442,q),
(1034,227,l),
(1034,183,o),
(1047,164.5,q),
(1060,146,o),
(1079.5,145,q),
(1099,144,o),
(1121,156.5,q),
(1143,169,o),
(1161,187,q),
(1219,146,l),
(1203,104,o),
(1176,70,q),
(1149,36,o),
(1115,13.5,q),
(1081,-9,o),
(1043.5,-17.5,q),
(1006,-26,o),
(971,-17,q),
(936,-8,o),
(906,21,q),
(876,50,o),
(857,103,q),
(831,75,o),
(799.5,51,q),
(768,27,o),
(733,9,q),
(698,-9,o),
(660,-19.5,q),
(622,-30,o),
(584,-30,q),
(558,-30,o),
(525.5,-26.5,q),
(493,-23,o),
(459.5,-11,q),
(426,1,o),
(393,22.5,q),
(360,44,o),
(334,80,q),
(334,45,o),
(334.5,-3,q),
(335,-51,o),
(336.5,-97.5,q),
(338,-144,o),
(341,-182,q),
(344,-220,o),
(350,-235,q),
(367,-283,o),
(395.5,-306.5,q),
(424,-330,o),
(452,-338,q),
(484,-348,o),
(519,-344,q),
(522,-367,o),
(519,-392.5,q),
(516,-418,o),
(501,-439.5,q),
(486,-461,o),
(456.5,-475.5,q),
(427,-490,o),
(377,-490,q),
(338,-490,o),
(301.5,-478.5,q),
(265,-467,o),
(237,-443,q),
(209,-419,o),
(192,-381.5,q),
(175,-344,o),
(175,-292,q)
);
}
);
width = 1196;
}
);
unicode = 181;
},
{
glyphname = partialdiff;
layers = (
{
layerId = "090b295d-3f71-4cfe-961f-4c3f744a43b8";
name = Fore;
shapes = (
{
closed = 1;
nodes = (
(112,580,o),
(156,674,q),
(200,768,o),
(272,828.5,q),
(344,889,o),
(438.5,918.5,q),
(533,948,o),
(637,948,q),
(715,948,o),
(774,927.5,q),
(833,907,o),
(878,872,q),
(862,971,o),
(829.5,1068,q),
(797,1165,o),
(742,1242,q),
(687,1319,o),
(606,1366.5,q),
(525,1414,o),
(413,1414,q),
(383,1414,o),
(350.5,1409.5,q),
(318,1405,o),
(288,1398,q),
(258,1391,o),
(233.5,1383,q),
(209,1375,o),
(196,1368,q),
(178,1394,o),
(165,1414,q),
(154,1431,o),
(145,1445.5,q),
(136,1460,o),
(138,1462,q),
(165,1480,o),
(204.5,1495,q),
(244,1510,o),
(288.5,1520.5,q),
(333,1531,o),
(376.5,1536,q),
(420,1541,o),
(454,1539,q),
(550,1534,o),
(637.5,1500.5,q),
(725,1467,o),
(799,1407,q),
(873,1347,o),
(931.5,1262.5,q),
(990,1178,o),
(1029,1070,q),
(1068,962,o),
(1085.5,833,q),
(1103,704,o),
(1095,556,q),
(1091,491,o),
(1075,422.5,q),
(1059,354,o),
(1030,290,q),
(1001,226,o),
(959,169,q),
(917,112,o),
(862,69.5,q),
(807,27,o),
(738.5,2.5,q),
(670,-22,o),
(588,-22,q),
(475,-22,o),
(385,13,q),
(295,48,o),
(233,111,q),
(171,174,o),
(139,260.5,q),
(107,347,o),
(109,451,q)
);
},
{
closed = 1;
nodes = (
(329,388,o),
(342,319.5,q),
(355,251,o),
(390.5,197,q),
(426,143,o),
(487.5,111,q),
(549,79,o),
(643,86,q),
(697,90,o),
(738,121.5,q),
(779,153,o),
(808.5,204,q),
(838,255,o),
(857.5,322.5,q),
(877,390,o),
(888,465,q),
(893,500,o),
(896,548.5,q),
(899,597,o),
(897,656,q),
(883,691,o),
(858.5,722,q),
(834,753,o),
(798,777.5,q),
(762,802,o),
(714.5,818.5,q),
(667,835,o),
(608,841,q),
(542,847,o),
(492.5,815.5,q),
(443,784,o),
(409,729,q),
(375,674,o),
(356,601.5,q),
(337,529,o),
(333,453,q)
);
}
);
width = 1196;
}
);
unicode = 8706;
},
{
glyphname = summation;
layers = (
{
layerId = "090b295d-3f71-4cfe-961f-4c3f744a43b8";
name = Fore;
shapes = (
{
closed = 1;
nodes = (
(224,-81,o),
(241.5,-67.5,q),
(259,-54,o),
(274.5,-32,q),
(290,-10,o),
(309,23,q),
(328,56,o),
(358,106,q),
(645,659,l),
(296,1396,l),
(191,1450,l),
(191,1530,l),
(1086,1530,l),
(1228,1549,l),
(1228,1137,l),
(1124,1135,l),
(1052,1384,l),
(904,1390,o),
(803.5,1393,q),
(703,1396,o),
(640,1398,q),
(566,1400,o),
(522,1399,q),
(851,701,l),
(462,-36,l),
(1093,-30,l),
(1205,259,l),
(1323,259,l),
(1304,-189,l),
(1163,-171,l),
(196,-171,l),
(196,-91,l),
(196,-91,l)
);
}
);
width = 1493;
}
);
unicode = 8721;
},
{
glyphname = product;
layers = (
{
layerId = "090b295d-3f71-4cfe-961f-4c3f744a43b8";
name = Fore;
shapes = (
{
closed = 1;
nodes = (
(162,-75,o),
(196,-63,q),
(230,-51,o),
(249,-30,q),
(268,-9,o),
(275.5,26,q),
(283,61,o),
(283,121,q),
(283,1392,l),
(110,1448,l),
(110,1530,l),
(1467,1530,l),
(1467,1448,l),
(1414,1434,o),
(1379,1422,q),
(1344,1410,o),
(1322,1389,q),
(1300,1368,o),
(1291,1333,q),
(1282,1298,o),
(1282,1238,q),
(1282,-34,l),
(1479,-89,l),
(1479,-171,l),
(898,-171,l),
(898,-85,l),
(945,-72,o),
(977.5,-60,q),
(1010,-48,o),
(1029.5,-27,q),
(1049,-6,o),
(1057.5,28.5,q),
(1066,63,o),
(1066,121,q),
(1066,1397,l),
(499,1397,l),
(499,-34,l),
(648,-62,l),
(648,-171,l),
(110,-171,l),
(110,-89,l),
(110,-89,l)
);
}
);
width = 1536;
}
);
unicode = 8719;
},
{
glyphname = pi;
layers = (
{
layerId = "090b295d-3f71-4cfe-961f-4c3f744a43b8";
name = Fore;
shapes = (
{
closed = 1;
nodes = (
(107,92,o),
(131,91.5,q),
(155,91,o),
(177,99,q),
(199,107,o),
(219.5,126.5,q),
(240,146,o),
(258.5,183,q),
(277,220,o),
(293.5,277.5,q),
(310,335,o),
(324,420,q),
(407,882,l),
(317,882,l),
(275,882,o),
(249,875.5,q),
(223,869,o),
(206.5,855.5,q),
(190,842,o),
(180,822,q),
(170,802,o),
(160,776,q),
(71,776,l),
(78,825,o),
(93,876,q),
(108,927,o),
(137,969,q),
(166,1011,o),
(211,1038,q),
(256,1065,o),
(323,1065,q),
(1073,1065,l),
(1113,1065,o),
(1139.5,1070.5,q),
(1166,1076,o),
(1185.5,1088.5,q),
(1205,1101,o),
(1220,1121,q),
(1235,1141,o),
(1250,1170,q),
(1318,1170,l),
(1312,1100,o),
(1295.5,1046,q),
(1279,992,o),
(1245,955.5,q),
(1211,919,o),
(1157,900.5,q),
(1103,882,o),
(1021,882,q),
(1000,882,l),
(997,845,o),
(993,800.5,q),
(989,756,o),
(985,709,q),
(981,662,o),
(977,616,q),
(973,570,o),
(969.5,531,q),
(966,492,o),
(964,462.5,q),
(962,433,o),
(961,420,q),
(956,342,o),
(959.5,288.5,q),
(963,235,o),
(976.5,202.5,q),
(990,170,o),
(1014,158,q),
(1038,146,o),
(1073,152,q),
(1121,159,o),
(1149,200.5,q),
(1177,242,o),
(1185,297,q),
(1280,297,l),
(1277,220,o),
(1249.5,162.5,q),
(1222,105,o),
(1180,67,q),
(1138,29,o),
(1087,10,q),
(1036,-9,o),
(985,-9,q),
(944,-9,o),
(905,2.5,q),
(866,14,o),
(837,40,q),
(808,66,o),
(792,107.5,q),
(776,149,o),
(780,209,q),
(783,251,o),
(788,305,q),
(793,359,o),
(800,419.5,q),
(807,480,o),
(815,543.5,q),
(823,607,o),
(830.5,668,q),
(838,729,o),
(845,784,q),
(852,839,o),
(858,882,q),
(552,882,l),
(507,422,l),
(496,318,o),
(482,237.5,q),
(468,157,o),
(441.5,102,q),
(415,47,o),
(372,19,q),
(329,-9,o),
(262,-9,q),
(228,-9,o),
(195,-8,q),
(162,-7,o),
(134.5,-5.5,q),
(107,-4,o),
(87.5,-2.5,q),
(68,-1,o),
(61,0,q),
(82,95,l)
);
}
);
width = 1362;
}
);
unicode = 960;
},
{
glyphname = integral;
layers = (
{
layerId = "090b295d-3f71-4cfe-961f-4c3f744a43b8";
name = Fore;
shapes = (
{
closed = 1;
nodes = (
(157,-319,l),
(162,-333,o),
(179,-341,q),
(196,-349,o),
(219.5,-352,q),
(243,-355,o),
(269.5,-354,q),
(296,-353,o),
(320.5,-349,q),
(345,-345,o),
(364,-338.5,q),
(383,-332,o),
(391,-325,q),
(397,-307,o),
(400,-268.5,q),
(403,-230,o),
(404,-175.5,q),
(405,-121,o),
(404.5,-53.5,q),
(404,14,o),
(404,90,q),
(404,1180,l),
(404,1280,o),
(440,1360,q),
(476,1440,o),
(540.5,1495.5,q),
(605,1551,o),
(694,1580.5,q),
(783,1610,o),
(888,1610,q),
(905,1610,o),
(928,1607,q),
(951,1604,o),
(971,1601,q),
(995,1597,o),
(1018,1592,q),
(982,1312,l),
(895,1312,l),
(865,1429,l),
(860,1443,o),
(843,1451,q),
(826,1459,o),
(802.5,1462,q),
(779,1465,o),
(752.5,1464,q),
(726,1463,o),
(701.5,1459,q),
(677,1455,o),
(658,1448.5,q),
(639,1442,o),
(631,1435,q),
(625,1417,o),
(622,1377,q),
(619,1337,o),
(618,1281.5,q),
(617,1226,o),
(617.5,1159,q),
(618,1092,o),
(618,1020,q),
(618,-70,l),
(618,-171,o),
(582,-250.5,q),
(546,-330,o),
(481.5,-385.5,q),
(417,-441,o),
(328,-470.5,q),
(239,-500,o),
(134,-500,q),
(116,-500,o),
(93.5,-497.5,q),
(71,-495,o),
(51,-491,q),
(27,-487,o),
(4,-482,q),
(40,-202,l),
(127,-202,l)
);
}
);
width = 1023;
}
);
unicode = 8747;
},
{
glyphname = ordfeminine;
layers = (
{
layerId = "090b295d-3f71-4cfe-961f-4c3f744a43b8";
name = Fore;
shapes = (
{
closed = 1;
nodes = (
(355,622,o),
(314.5,634.5,q),
(274,647,o),
(241,672.5,q),
(208,698,o),
(186.5,737.5,q),
(165,777,o),
(165,831,q),
(165,862,o),
(170.5,888,q),
(176,914,o),
(192,936.5,q),
(208,959,o),
(237.5,979.5,q),
(267,1000,o),
(315.5,1020,q),
(364,1040,o),
(434,1060.5,q),
(504,1081,o),
(602,1105,q),
(602,1158,l),
(602,1192,o),
(597.5,1218.5,q),
(593,1245,o),
(579,1263.5,q),
(565,1282,o),
(539.5,1292,q),
(514,1302,o),
(471,1303,q),
(437,1303,o),
(414.5,1296,q),
(392,1289,o),
(376,1273,q),
(360,1257,o),
(348.5,1231,q),
(337,1205,o),
(325,1167,q),
(186,1167,l),
(201,1309,l),
(237,1324,o),
(280,1340.5,q),
(323,1357,o),
(364,1370.5,q),
(405,1384,o),
(438.5,1393,q),
(472,1402,o),
(489,1402,q),
(555,1402,o),
(609,1392.5,q),
(663,1383,o),
(701,1360,q),
(739,1337,o),
(760,1299,q),
(781,1261,o),
(781,1204,q),
(781,759,l),
(781,741,o),
(798,732.5,q),
(815,724,o),
(836,721,q),
(857,718,o),
(874,718,q),
(891,718,o),
(891,717,q),
(891,660,l),
(876,655,o),
(855.5,648.5,q),
(835,642,o),
(812.5,636,q),
(790,630,o),
(767,626,q),
(744,622,o),
(723,622,q),
(673,622,o),
(641.5,647.5,q),
(610,673,o),
(610,726,q),
(576,698,o),
(551.5,678.5,q),
(527,659,o),
(504.5,646.5,q),
(482,634,o),
(456,628,q),
(430,622,o),
(393,622,q)
);
},
{
closed = 1;
nodes = (
(510,744,o),
(541.5,762,q),
(573,780,o),
(602,808,q),
(602,1035,l),
(598,1032,o),
(577,1026.5,q),
(556,1021,o),
(526.5,1011.5,q),
(497,1002,o),
(464,988.5,q),
(431,975,o),
(403,956,q),
(375,937,o),
(356.5,912.5,q),
(338,888,o),
(338,857,q),
(338,823,o),
(346,801,q),
(354,779,o),
(370.5,766.5,q),
(387,754,o),
(412,749,q),
(437,744,o),
(471,744,q)
);
}
);
width = 1023;
}
);
unicode = 170;
},
{
glyphname = ordmasculine;
layers = (
{
layerId = "090b295d-3f71-4cfe-961f-4c3f744a43b8";
name = Fore;
shapes = (
{
closed = 1;
nodes = (
(415,665,o),
(347.5,688.5,q),
(280,712,o),
(231,757,q),
(182,802,o),
(154.5,867.5,q),
(127,933,o),
(127,1017,q),
(127,1107,o),
(159.5,1180,q),
(192,1253,o),
(246.5,1304.5,q),
(301,1356,o),
(371,1384,q),
(441,1412,o),
(516,1411,q),
(595,1411,o),
(664,1388,q),
(733,1365,o),
(784.5,1320,q),
(836,1275,o),
(865.5,1210,q),
(895,1145,o),
(895,1061,q),
(895,971,o),
(862,898,q),
(829,825,o),
(774,773.5,q),
(719,722,o),
(646,693.5,q),
(573,665,o),
(494,665,q)
);
},
{
closed = 1;
nodes = (
(599,767,o),
(632,788.5,q),
(665,810,o),
(684,845.5,q),
(703,881,o),
(710.5,927.5,q),
(718,974,o),
(718,1027,q),
(718,1084,o),
(706.5,1138.5,q),
(695,1193,o),
(667,1235,q),
(639,1277,o),
(592,1301,q),
(545,1325,o),
(473,1321,q),
(423,1318,o),
(390,1295.5,q),
(357,1273,o),
(338,1236,q),
(319,1199,o),
(311.5,1151,q),
(304,1103,o),
(304,1051,q),
(304,994,o),
(315.5,940.5,q),
(327,887,o),
(355,846.5,q),
(383,806,o),
(430,783,q),
(477,760,o),
(549,764,q)
);
}
);
width = 1023;
}
);
unicode = 186;
},
{
glyphname = Omega;
layers = (
{
layerId = "090b295d-3f71-4cfe-961f-4c3f744a43b8";
name = Fore;
shapes = (
{
closed = 1;
nodes = (
(195,392,l),
(203,335,o),
(214.5,292.5,q),
(226,250,o),
(248.5,221.5,q),
(271,193,o),
(309,179,q),
(347,165,o),
(409,165,q),
(605,165,l),
(605,275,l),
(513,309,o),
(434.5,379.5,q),
(356,450,o),
(297.5,542,q),
(239,634,o),
(206,741,q),
(173,848,o),
(173,955,q),
(173,1069,o),
(211.5,1176,q),
(250,1283,o),
(332,1366.5,q),
(414,1450,o),
(540.5,1500,q),
(667,1550,o),
(843,1550,q),
(963,1550,o),
(1058.5,1527,q),
(1154,1504,o),
(1227,1463,q),
(1300,1422,o),
(1351.5,1366,q),
(1403,1310,o),
(1435.5,1243.5,q),
(1468,1177,o),
(1483,1103.5,q),
(1498,1030,o),
(1498,955,q),
(1498,876,o),
(1479.5,801.5,q),
(1461,727,o),
(1429.5,658.5,q),
(1398,590,o),
(1355,529.5,q),
(1312,469,o),
(1262.5,419.5,q),
(1213,370,o),
(1159.5,333,q),
(1106,296,o),
(1054,275,q),
(1052,165,l),
(1226,165,l),
(1322,165,o),
(1383,220,q),
(1444,275,o),
(1449,388,q),
(1542,388,l),
(1499,0,l),
(941,0,l),
(941,353,l),
(1004,370,o),
(1053.5,408,q),
(1103,446,o),
(1140.5,497,q),
(1178,548,o),
(1203.5,610,q),
(1229,672,o),
(1245,737,q),
(1261,802,o),
(1268,867,q),
(1275,932,o),
(1275,991,q),
(1275,1032,o),
(1267,1081,q),
(1259,1130,o),
(1239.5,1179,q),
(1220,1228,o),
(1187.5,1273.5,q),
(1155,1319,o),
(1106.5,1354.5,q),
(1058,1390,o),
(990.5,1411,q),
(923,1432,o),
(835,1432,q),
(746,1432,o),
(678,1411,q),
(610,1390,o),
(560.5,1354.5,q),
(511,1319,o),
(478,1273.5,q),
(445,1228,o),
(425.5,1179,q),
(406,1130,o),
(398,1081,q),
(390,1032,o),
(390,991,q),
(390,933,o),
(394,872,q),
(398,811,o),
(410.5,750.5,q),
(423,690,o),
(445,632.5,q),
(467,575,o),
(503.5,523.5,q),
(540,472,o),
(593,428.5,q),
(646,385,o),
(719,353,q),
(714,0,l),
(163,0,l),
(104,388,l)
);
}
);
width = 1627;
}
);
unicode = 8486;
},
{
glyphname = ae;
layers = (
{
layerId = "090b295d-3f71-4cfe-961f-4c3f744a43b8";
name = Fore;
shapes = (
{
closed = 1;
nodes = (
(103,301,o),
(112.5,338,q),
(122,375,o),
(146.5,406,q),
(171,437,o),
(214.5,463,q),
(258,489,o),
(325.5,514.5,q),
(393,540,o),
(487.5,566.5,q),
(582,593,o),
(710,624,q),
(710,777,l),
(710,800,o),
(707,825,q),
(704,850,o),
(689,871,q),
(674,892,o),
(641,906,q),
(608,920,o),
(548,921,q),
(490,921,o),
(453,907.5,q),
(416,894,o),
(391.5,866,q),
(367,838,o),
(350.5,796.5,q),
(334,755,o),
(317,700,q),
(158,700,l),
(179,906,l),
(212,920,o),
(251,936,q),
(290,952,o),
(330.5,967,q),
(371,982,o),
(411,995.5,q),
(451,1009,o),
(485.5,1019.5,q),
(520,1030,o),
(547,1036,q),
(574,1042,o),
(589,1042,q),
(714,1042,o),
(787.5,1013,q),
(861,984,o),
(893,913,q),
(958,973,o),
(1043,1007.5,q),
(1128,1042,o),
(1233,1042,q),
(1329,1042,o),
(1396.5,1012.5,q),
(1464,983,o),
(1507,928.5,q),
(1550,874,o),
(1569,797.5,q),
(1588,721,o),
(1586,627,q),
(1585,613,o),
(1584.5,594.5,q),
(1584,576,o),
(1583,559,q),
(1582,540,o),
(1580,519,q),
(927,519,l),
(926,431,o),
(941,369,q),
(956,307,o),
(982.5,265.5,q),
(1009,224,o),
(1044,200,q),
(1079,176,o),
(1115.5,164,q),
(1152,152,o),
(1188,148.5,q),
(1224,145,o),
(1254,145,q),
(1298,153,o),
(1346,164,q),
(1388,174,o),
(1439,188,q),
(1490,202,o),
(1543,222,q),
(1577,136,l),
(1522,105,o),
(1474,79.5,q),
(1426,54,o),
(1381.5,33.5,q),
(1337,13,o),
(1295.5,-2.5,q),
(1254,-18,o),
(1212,-29,q),
(1062,-29,o),
(959.5,21.5,q),
(857,72,o),
(798,166,q),
(751,121,l),
(723,94,o),
(688.5,68,q),
(654,42,o),
(609.5,22,q),
(565,2,o),
(508,-10,q),
(451,-22,o),
(379,-20,q),
(331,-19,o),
(282,-1.5,q),
(233,16,o),
(193,50.5,q),
(153,85,o),
(128,135.5,q),
(103,186,o),
(103,254,q)
);
},
{
closed = 1;
nodes = (
(1026,625,o),
(1096,627.5,q),
(1166,630,o),
(1212.5,633,q),
(1259,636,o),
(1286,638.5,q),
(1313,641,o),
(1325,643,q),
(1333,644,o),
(1340,651.5,q),
(1347,659,o),
(1351.5,669.5,q),
(1356,680,o),
(1358.5,693,q),
(1361,706,o),
(1361,719,q),
(1361,787,o),
(1338,834,q),
(1315,881,o),
(1275,906,q),
(1235,931,o),
(1181.5,932.5,q),
(1128,934,o),
(1068,912,q),
(1056,908,o),
(1033.5,891,q),
(1011,874,o),
(988,840,q),
(965,806,o),
(947,752.5,q),
(929,699,o),
(927,623,q)
);
},
{
closed = 1;
nodes = (
(323,199,o),
(374.5,163.5,q),
(426,128,o),
(510,128,q),
(542,128,o),
(575.5,140.5,q),
(609,153,o),
(641,171.5,q),
(673,190,o),
(702,212.5,q),
(731,235,o),
(754,256,q),
(734,311,o),
(725.5,375,q),
(717,439,o),
(719,511,q),
(719,523,l),
(698,518,o),
(665,509,q),
(632,500,o),
(593,489,q),
(554,478,o),
(511.5,464,q),
(469,450,o),
(429,435,q),
(383,412,o),
(353,375,q),
(323,338,o),
(323,279,q)
);
}
);
width = 1667;
}
);
unicode = 230;
},
{
glyphname = oslash;
layers = (
{
layerId = "090b295d-3f71-4cfe-961f-4c3f744a43b8";
name = Fore;
shapes = (
{
closed = 1;
nodes = (
(304,42,o),
(253,83,q),
(202,124,o),
(166,181,q),
(130,238,o),
(110,311.5,q),
(90,385,o),
(90,476,q),
(90,606,o),
(133,710.5,q),
(176,815,o),
(248.5,888.5,q),
(321,962,o),
(416,1002,q),
(511,1042,o),
(615,1042,q),
(639,1042,o),
(661.5,1040.5,q),
(684,1039,o),
(706,1037,q),
(766,1215,l),
(889,1215,l),
(821,1011,l),
(952,966,o),
(1022.5,855,q),
(1093,744,o),
(1093,560,q),
(1093,427,o),
(1053,319.5,q),
(1013,212,o),
(944,136,q),
(875,60,o),
(783,19,q),
(691,-22,o),
(586,-22,q),
(530,-22,o),
(479,-13,q),
(419,-193,l),
(296,-193,l),
(366,17,l)
);
},
{
closed = 1;
nodes = (
(613,933,o),
(543,930,q),
(477,926,o),
(435,891,q),
(393,856,o),
(368,800,q),
(343,744,o),
(333.5,672.5,q),
(324,601,o),
(324,525,q),
(324,415,o),
(344,321.5,q),
(364,228,o),
(416,167,q),
(666,915,l)
);
},
{
closed = 1;
nodes = (
(571,82,o),
(641,86,q),
(706,90,o),
(748.5,127.5,q),
(791,165,o),
(815.5,223,q),
(840,281,o),
(849.5,352,q),
(859,423,o),
(859,494,q),
(859,604,o),
(838.5,696,q),
(818,788,o),
(766,848,q),
(517,100,l)
);
}
);
width = 1183;
}
);
unicode = 248;
},
{
glyphname = logicalnot;
layers = (
{
layerId = "090b295d-3f71-4cfe-961f-4c3f744a43b8";
name = Fore;
shapes = (
{
closed = 1;
nodes = (
(1167,702,l),
(1166,700,l),
(1167,700,l),
(1167,196,l),
(1010,196,l),
(1010,539,l),
(198,539,l),
(198,702,l)
);
}
);
width = 1366;
}
);
unicode = 172;
},
{
glyphname = radical;
layers = (
{
layerId = "090b295d-3f71-4cfe-961f-4c3f744a43b8";
name = Fore;
shapes = (
{
closed = 1;
nodes = (
(417,567,l),
(691,-299,l),
(1223,1764,l),
(1454,1690,l),
(761,-499,l),
(628,-499,l),
(266,366,l),
(111,307,l),
(63,422,l)
);
}
);
width = 1455;
}
);
unicode = 8730;
},
{
glyphname = florin;
layers = (
{
layerId = "090b295d-3f71-4cfe-961f-4c3f744a43b8";
name = Fore;
shapes = (
{
closed = 1;
nodes = (
(244,-129,o),
(246.5,-160.5,q),
(249,-192,o),
(255.5,-223.5,q),
(262,-255,o),
(273.5,-282.5,q),
(285,-310,o),
(304,-325,q),
(321,-338,o),
(349.5,-341.5,q),
(378,-345,o),
(409,-341,q),
(440,-337,o),
(469.5,-325,q),
(499,-313,o),
(518,-295,q),
(542,-219,o),
(558.5,-124.5,q),
(575,-30,o),
(587,75.5,q),
(599,181,o),
(608,293,q),
(617,405,o),
(626,518,q),
(428,518,l),
(452,646,l),
(638,646,l),
(649,762,o),
(663.5,869.5,q),
(678,977,o),
(701,1071,q),
(725,1143,o),
(759,1194.5,q),
(793,1246,o),
(832,1280.5,q),
(871,1315,o),
(912,1335.5,q),
(953,1356,o),
(989.5,1366.5,q),
(1026,1377,o),
(1055,1380,q),
(1084,1383,o),
(1100,1383,q),
(1108,1383,o),
(1129.5,1380,q),
(1151,1377,o),
(1178.5,1372.5,q),
(1206,1368,o),
(1236,1362.5,q),
(1266,1357,o),
(1290.5,1351.5,q),
(1315,1346,o),
(1331,1342,q),
(1347,1338,o),
(1347,1336,q),
(1347,1336,o),
(1345,1321.5,q),
(1343,1307,o),
(1339.5,1283,q),
(1336,1259,o),
(1331.5,1228,q),
(1327,1197,o),
(1323,1165,q),
(1312,1089,o),
(1299,992,q),
(1193,995,l),
(1196,1024,o),
(1197,1052,q),
(1197,1076,o),
(1194.5,1103.5,q),
(1192,1131,o),
(1181,1152,q),
(1171,1171,o),
(1150,1186.5,q),
(1129,1202,o),
(1101.5,1212.5,q),
(1074,1223,o),
(1044,1228,q),
(1014,1233,o),
(986.5,1232,q),
(959,1231,o),
(937,1223.5,q),
(915,1216,o),
(905,1202,q),
(880,1071,o),
(865.5,931,q),
(851,791,o),
(839,646,q),
(1095,646,l),
(1071,518,l),
(829,518,l),
(814,340,o),
(794,169.5,q),
(774,-1,o),
(736,-156,q),
(719,-225,o),
(687.5,-276.5,q),
(656,-328,o),
(617,-366,q),
(578,-404,o),
(535.5,-428.5,q),
(493,-453,o),
(453.5,-468,q),
(414,-483,o),
(381.5,-489,q),
(349,-495,o),
(330,-495,q),
(290,-495,o),
(250,-485,q),
(210,-475,o),
(178,-462,q),
(140,-448,o),
(105,-429,q),
(142,-108,l),
(242,-108,l)
);
}
);
width = 1506;
}
);
unicode = 402;
},
{
glyphname = Delta;
layers = (
{
layerId = "090b295d-3f71-4cfe-961f-4c3f744a43b8";
name = Fore;
shapes = (
{
closed = 1;
nodes = (
(825,1577,l),
(1466,0,l),
(77,0,l),
(744,1577,l)
);
},
{
closed = 1;
nodes = (
(738,1261,l),
(279,107,l),
(1215,107,l)
);
}
);
width = 1548;
}
);
unicode = 8710;
},
{
glyphname = OE;
layers = (
{
layerId = "090b295d-3f71-4cfe-961f-4c3f744a43b8";
name = Fore;
shapes = (
{
closed = 1;
nodes = (
(100,913,o),
(148,1063,q),
(196,1213,o),
(293,1321,q),
(390,1429,o),
(535.5,1489.5,q),
(681,1550,o),
(876,1550,q),
(973,1550,o),
(1053,1530,q),
(1862,1530,l),
(2005,1549,l),
(2005,1137,l),
(1900,1135,l),
(1828,1384,l),
(1277,1402,l),
(1322,1354,o),
(1352,1292.5,q),
(1382,1231,o),
(1400.5,1159,q),
(1419,1087,o),
(1427.5,1006,q),
(1436,925,o),
(1438,837,q),
(1790,860,l),
(1790,680,l),
(1437,705,l),
(1431,516,o),
(1391.5,371,q),
(1352,226,o),
(1265,131,q),
(1340,122,l),
(1929,143,l),
(2021,430,l),
(2129,430,l),
(2110,-18,l),
(1959,2,l),
(1055,2,l),
(965,-24,o),
(855,-24,q),
(685,-24,o),
(546,28.5,q),
(407,81,o),
(308,179,q),
(209,277,o),
(154.5,417.5,q),
(100,558,o),
(100,734,q)
);
},
{
closed = 1;
nodes = (
(349,599,o),
(382.5,486,q),
(416,373,o),
(483,289.5,q),
(550,206,o),
(651,159.5,q),
(752,113,o),
(886,116,q),
(980,118,o),
(1041,144.5,q),
(1102,171,o),
(1138.5,217,q),
(1175,263,o),
(1192,327,q),
(1209,391,o),
(1214.5,469,q),
(1220,547,o),
(1218.5,636.5,q),
(1217,726,o),
(1217,823,q),
(1217,944,o),
(1203.5,1053,q),
(1190,1162,o),
(1152,1244.5,q),
(1114,1327,o),
(1045.5,1375.5,q),
(977,1424,o),
(868,1424,q),
(710,1424,o),
(609,1374.5,q),
(508,1325,o),
(450.5,1234,q),
(393,1143,o),
(371,1014.5,q),
(349,886,o),
(349,728,q)
);
}
);
width = 2223;
}
);
unicode = 338;
},
{
glyphname = oe;
layers = (
{
layerId = "090b295d-3f71-4cfe-961f-4c3f744a43b8";
name = Fore;
shapes = (
{
closed = 1;
nodes = (
(90,599,o),
(133,704.5,q),
(176,810,o),
(248.5,885,q),
(321,960,o),
(416,1001,q),
(511,1042,o),
(615,1042,q),
(762,1042,o),
(866.5,992,q),
(971,942,o),
(1029,839,q),
(1062,885,o),
(1104.5,922.5,q),
(1147,960,o),
(1198,986.5,q),
(1249,1013,o),
(1308,1027.5,q),
(1367,1042,o),
(1433,1042,q),
(1529,1042,o),
(1596.5,1012.5,q),
(1664,983,o),
(1707,928.5,q),
(1750,874,o),
(1769,797.5,q),
(1788,721,o),
(1786,627,q),
(1785,613,o),
(1784.5,594.5,q),
(1784,576,o),
(1783,559,q),
(1782,540,o),
(1780,519,q),
(1127,519,l),
(1126,433,o),
(1141,372,q),
(1156,311,o),
(1182.5,269.5,q),
(1209,228,o),
(1244,203.5,q),
(1279,179,o),
(1315.5,166,q),
(1352,153,o),
(1388,149,q),
(1424,145,o),
(1454,145,q),
(1498,153,o),
(1546,164,q),
(1588,174,o),
(1639,188,q),
(1690,202,o),
(1743,222,q),
(1777,136,l),
(1722,105,o),
(1674,79.5,q),
(1626,54,o),
(1581.5,33.5,q),
(1537,13,o),
(1495.5,-2.5,q),
(1454,-18,o),
(1412,-29,q),
(1253,-29,o),
(1147,28,q),
(1041,85,o),
(984,191,q),
(914,89,o),
(810.5,33.5,q),
(707,-22,o),
(586,-22,q),
(482,-22,o),
(391.5,8,q),
(301,38,o),
(234,99,q),
(167,160,o),
(128.5,252.5,q),
(90,345,o),
(90,469,q)
);
},
{
closed = 1;
nodes = (
(324,427,o),
(338.5,346,q),
(353,265,o),
(389,205,q),
(425,145,o),
(486,112.5,q),
(547,80,o),
(641,86,q),
(706,90,o),
(748.5,127,q),
(791,164,o),
(815.5,221,q),
(840,278,o),
(849.5,348,q),
(859,418,o),
(859,487,q),
(859,580,o),
(844.5,663,q),
(830,746,o),
(794,807,q),
(758,868,o),
(697,901.5,q),
(636,935,o),
(543,930,q),
(477,926,o),
(435,890,q),
(393,854,o),
(368,796.5,q),
(343,739,o),
(333.5,666.5,q),
(324,594,o),
(324,518,q)
);
},
{
closed = 1;
nodes = (
(1226,624,o),
(1296,627,q),
(1366,630,o),
(1412.5,633,q),
(1459,636,o),
(1486,638.5,q),
(1513,641,o),
(1525,643,q),
(1542,645,o),
(1551.5,669,q),
(1561,693,o),
(1561,719,q),
(1561,787,o),
(1538,834,q),
(1515,881,o),
(1475,906,q),
(1435,931,o),
(1381.5,932.5,q),
(1328,934,o),
(1268,912,q),
(1256,908,o),
(1233.5,891,q),
(1211,874,o),
(1188,840,q),
(1165,806,o),
(1147,752.5,q),
(1129,699,o),
(1127,623,q)
);
}
);
width = 1867;
}
);
unicode = 339;
},
{
glyphname = endash;
layers = (
{
layerId = "090b295d-3f71-4cfe-961f-4c3f744a43b8";
name = Fore;
shapes = (
{
closed = 1;
nodes = (
(1175,702,l),
(1175,539,l),
(191,539,l),
(191,702,l)
);
}
);
width = 1366;
}
);
unicode = 8211;
},
{
glyphname = emdash;
layers = (
{
layerId = "090b295d-3f71-4cfe-961f-4c3f744a43b8";
name = Fore;
shapes = (
{
closed = 1;
nodes = (
(1851,702,l),
(1851,539,l),
(191,539,l),
(191,702,l)
);
}
);
width = 2042;
}
);
unicode = 8212;
},
{
glyphname = quoteleft;
layers = (
{
layerId = "090b295d-3f71-4cfe-961f-4c3f744a43b8";
name = Fore;
shapes = (
{
closed = 1;
nodes = (
(271,1079,o),
(227,1125,q),
(183,1171,o),
(183,1258,q),
(183,1318,o),
(198.5,1367,q),
(214,1416,o),
(238,1456,q),
(262,1496,o),
(290.5,1526.5,q),
(319,1557,o),
(345.5,1579.5,q),
(372,1602,o),
(392.5,1615.5,q),
(413,1629,o),
(421,1635,q),
(483,1558,l),
(445,1539,o),
(415,1510,q),
(389,1485,o),
(368.5,1446,q),
(348,1407,o),
(348,1351,q),
(348,1313,o),
(368,1298,q),
(388,1283,o),
(412,1280,q),
(440,1276,o),
(476,1285,q),
(481,1246,o),
(485,1215,q),
(488,1189,o),
(491,1166.5,q),
(494,1144,o),
(493,1143,q),
(492,1142,o),
(482.5,1132,q),
(473,1122,o),
(455,1110,q),
(437,1098,o),
(409.5,1088.5,q),
(382,1079,o),
(345,1079,q)
);
}
);
width = 683;
}
);
unicode = 8216;
},
{
glyphname = divide;
layers = (
{
layerId = "090b295d-3f71-4cfe-961f-4c3f744a43b8";
name = Fore;
shapes = (
{
closed = 1;
nodes = (
(555,874,o),
(532.5,886,q),
(510,898,o),
(493.5,918,q),
(477,938,o),
(468,963.5,q),
(459,989,o),
(459,1015,q),
(459,1042,o),
(468,1067,q),
(477,1092,o),
(493,1111.5,q),
(509,1131,o),
(531.5,1143,q),
(554,1155,o),
(581,1155,q),
(608,1155,o),
(631.5,1143,q),
(655,1131,o),
(672,1111.5,q),
(689,1092,o),
(699,1067,q),
(709,1042,o),
(709,1015,q),
(709,988,o),
(699,962.5,q),
(689,937,o),
(672,917.5,q),
(655,898,o),
(631.5,886,q),
(608,874,o),
(581,874,q)
);
},
{
closed = 1;
nodes = (
(999,702,l),
(999,539,l),
(169,539,l),
(169,702,l)
);
},
{
closed = 1;
nodes = (
(459,250,o),
(468,276,q),
(477,302,o),
(493.5,322.5,q),
(510,343,o),
(532.5,355,q),
(555,367,o),
(581,367,q),
(609,367,o),
(632.5,355,q),
(656,343,o),
(673,322.5,q),
(690,302,o),
(699.5,276,q),
(709,250,o),
(709,223,q),
(709,196,o),
(699.5,170.5,q),
(690,145,o),
(673,125.5,q),
(656,106,o),
(632.5,94,q),
(609,82,o),
(581,82,q),
(554,82,o),
(531.5,94,q),
(509,106,o),
(493,125.5,q),
(477,145,o),
(468,170.5,q),
(459,196,o),
(459,223,q)
);
}
);
width = 1168;
}
);
unicode = 247;
},
{
glyphname = lozenge;
layers = (
{
layerId = "090b295d-3f71-4cfe-961f-4c3f744a43b8";
name = Fore;
shapes = (
{
closed = 1;
nodes = (
(508,1637,l),
(685,1637,l),
(1065,819,l),
(685,-20,l),
(507,-20,l),
(128,819,l)
);
},
{
closed = 1;
nodes = (
(595,1505,l),
(295,819,l),
(595,129,l),
(900,819,l)
);
}
);
width = 1193;
}
);
unicode = 9674;
},
{
glyphname = fraction;
layers = (
{
layerId = "090b295d-3f71-4cfe-961f-4c3f744a43b8";
name = Fore;
shapes = (
{
closed = 1;
nodes = (
(969,1410,l),
(88,-80,l),
(-24,-32,l),
(865,1466,l)
);
}
);
width = 1023;
}
);
unicode = 8260;
},
{
glyphname = guilsinglleft;
layers = (
{
layerId = "090b295d-3f71-4cfe-961f-4c3f744a43b8";
name = Fore;
shapes = (
{
closed = 1;
nodes = (
(459,78,o),
(418.5,141,q),
(378,204,o),
(336.5,268,q),
(295,332,o),
(253.5,394.5,q),
(212,457,o),
(170,511,q),
(212,564,o),
(255,624,q),
(298,684,o),
(341,745.5,q),
(384,807,o),
(426,868,q),
(468,929,o),
(507,985,q),
(637,921,l),
(615,883,o),
(583,830,q),
(551,777,o),
(521,719,q),
(505,690,o),
(490.5,661,q),
(476,632,o),
(464.5,605,q),
(453,578,o),
(446.5,554,q),
(440,530,o),
(440,511,q),
(440,491,o),
(446.5,466,q),
(453,441,o),
(464.5,413,q),
(476,385,o),
(490.5,355,q),
(505,325,o),
(521,296,q),
(536,267,o),
(552,239,q),
(568,211,o),
(583,184.5,q),
(598,158,o),
(611,134.5,q),
(624,111,o),
(634,93,q),
(499,23,l),
(499,23,l)
);
}
);
width = 853;
}
);
unicode = 8249;
},
{
glyphname = daggerdbl;
layers = (
{
layerId = "090b295d-3f71-4cfe-961f-4c3f744a43b8";
name = Fore;
shapes = (
{
closed = 1;
nodes = (
(601,1196,l),
(556,1649,l),
(762,1649,l),
(717,1196,l),
(601,1196,l),
(601,1080,l),
(160,1027,l),
(160,1231,l)
);
},
{
closed = 1;
nodes = (
(1155,1231,l),
(1155,1027,l),
(717,1080,l),
(717,1196,l)
);
},
{
closed = 1;
nodes = (
(556,626,l),
(601,1080,l),
(717,1080,l),
(761,626,l),
(761,621,l),
(717,173,l),
(1155,208,l),
(1155,4,l),
(717,57,l),
(717,173,l),
(601,173,l),
(556,621,l)
);
},
{
closed = 1;
nodes = (
(601,173,l),
(601,57,l),
(160,4,l),
(160,208,l)
);
},
{
closed = 1;
nodes = (
(762,-401,l),
(556,-401,l),
(601,57,l),
(717,57,l)
);
}
);
width = 1314;
}
);
unicode = 8225;
},
{
glyphname = periodcentered;
layers = (
{
layerId = "090b295d-3f71-4cfe-961f-4c3f744a43b8";
name = Fore;
shapes = (
{
closed = 1;
nodes = (
(276,633,o),
(249,645,q),
(222,657,o),
(202,677,q),
(182,697,o),
(171,723,q),
(160,749,o),
(160,778,q),
(160,807,o),
(171,833.5,q),
(182,860,o),
(202,880.5,q),
(222,901,o),
(249,913,q),
(276,925,o),
(308,925,q),
(341,925,o),
(368,912.5,q),
(395,900,o),
(414.5,879.5,q),
(434,859,o),
(445,832.5,q),
(456,806,o),
(456,778,q),
(456,749,o),
(445,723,q),
(434,697,o),
(414.5,677,q),
(395,657,o),
(367.5,645,q),
(340,633,o),
(308,633,q)
);
}
);
width = 616;
}
);
unicode = 183;
},
{
glyphname = perthousand;
layers = (
{
layerId = "090b295d-3f71-4cfe-961f-4c3f744a43b8";
name = Fore;
shapes = (
{
closed = 1;
nodes = (
(1955,458,o),
(1977.5,536,q),
(2000,614,o),
(2047,677,q),
(2094,740,o),
(2166,779.5,q),
(2238,819,o),
(2336,819,q),
(2432,819,o),
(2501.5,783,q),
(2571,747,o),
(2615.5,689,q),
(2660,631,o),
(2681,558.5,q),
(2702,486,o),
(2702,413,q),
(2702,336,o),
(2679.5,259,q),
(2657,182,o),
(2610.5,120,q),
(2564,58,o),
(2491.5,19,q),
(2419,-20,o),
(2320,-20,q),
(2219,-20,o),
(2149.5,15.5,q),
(2080,51,o),
(2037,108,q),
(1994,165,o),
(1974.5,236.5,q),
(1955,308,o),
(1955,381,q)
);
},
{
closed = 1;
nodes = (
(2126,369,o),
(2137,304,q),
(2148,239,o),
(2175,189,q),
(2202,139,o),
(2247,108.5,q),
(2292,78,o),
(2360,78,q),
(2374,78,o),
(2404,85,q),
(2434,92,o),
(2461,109,q),
(2499,166,o),
(2517,233.5,q),
(2535,301,o),
(2535,362,q),
(2535,430,o),
(2525,494.5,q),
(2515,559,o),
(2490,609,q),
(2465,659,o),
(2422,689,q),
(2379,719,o),
(2314,719,q),
(2311,719,o),
(2295,718,q),
(2279,717,o),
(2259.5,713.5,q),
(2240,710,o),
(2220,703.5,q),
(2200,697,o),
(2188,687,q),
(2168,659,o),
(2156,628,q),
(2144,597,o),
(2137.5,564.5,q),
(2131,532,o),
(2128.5,499.5,q),
(2126,467,o),
(2126,437,q)
);
},
{
closed = 1;
nodes = (
(1358,1576,l),
(779,-166,l),
(636,-166,l),
(1209,1576,l)
);
},
{
closed = 1;
nodes = (
(384,579,o),
(314.5,614.5,q),
(245,650,o),
(202,707,q),
(159,764,o),
(139.5,835.5,q),
(120,907,o),
(120,980,q),
(120,1057,o),
(142.5,1135,q),
(165,1213,o),
(212,1276,q),
(259,1339,o),
(331,1378.5,q),
(403,1418,o),
(501,1418,q),
(597,1418,o),
(666.5,1382,q),
(736,1346,o),
(780.5,1288,q),
(825,1230,o),
(846,1157.5,q),
(867,1085,o),
(867,1012,q),
(867,935,o),
(844.5,858,q),
(822,781,o),
(775.5,719,q),
(729,657,o),
(656.5,618,q),
(584,579,o),
(485,579,q)
);
},
{
closed = 1;
nodes = (
(539,677,o),
(569,684,q),
(599,691,o),
(626,708,q),
(645,736,o),
(657.5,767.5,q),
(670,799,o),
(677,832,q),
(684,865,o),
(687,898,q),
(690,931,o),
(690,961,q),
(690,1029,o),
(681.5,1093.5,q),
(673,1158,o),
(649.5,1208,q),
(626,1258,o),
(585,1288,q),
(544,1318,o),
(479,1318,q),
(476,1318,o),
(460,1317,q),
(444,1316,o),
(424.5,1312.5,q),
(405,1309,o),
(385,1302.5,q),
(365,1296,o),
(353,1286,q),
(333,1258,o),
(321,1227,q),
(309,1196,o),
(302.5,1163.5,q),
(296,1131,o),
(293.5,1098.5,q),
(291,1066,o),
(291,1036,q),
(291,968,o),
(302,903,q),
(313,838,o),
(340,788,q),
(367,738,o),
(412,707.5,q),
(457,677,o),
(525,677,q)
);
},
{
closed = 1;
nodes = (
(1123,458,o),
(1145.5,536,q),
(1168,614,o),
(1215,677,q),
(1262,740,o),
(1334,779.5,q),
(1406,819,o),
(1504,819,q),
(1600,819,o),
(1669.5,783,q),
(1739,747,o),
(1783.5,689,q),
(1828,631,o),
(1849,558.5,q),
(1870,486,o),
(1870,413,q),
(1870,336,o),
(1847.5,259,q),
(1825,182,o),
(1778.5,120,q),
(1732,58,o),
(1659.5,19,q),
(1587,-20,o),
(1488,-20,q),
(1387,-20,o),
(1317.5,15.5,q),
(1248,51,o),
(1205,108,q),
(1162,165,o),
(1142.5,236.5,q),
(1123,308,o),
(1123,381,q)
);
},
{
closed = 1;
nodes = (
(1294,369,o),
(1305,304,q),
(1316,239,o),
(1343,189,q),
(1370,139,o),
(1415,108.5,q),
(1460,78,o),
(1528,78,q),
(1542,78,o),
(1572,85,q),
(1602,92,o),
(1629,109,q),
(1667,166,o),
(1685,233.5,q),
(1703,301,o),
(1703,362,q),
(1703,430,o),
(1693,494.5,q),
(1683,559,o),
(1658,609,q),
(1633,659,o),
(1590,689,q),
(1547,719,o),
(1482,719,q),
(1479,719,o),
(1463,718,q),
(1447,717,o),
(1427.5,713.5,q),
(1408,710,o),
(1388,703.5,q),
(1368,697,o),
(1356,687,q),
(1336,659,o),
(1324,628,q),
(1312,597,o),
(1305.5,564.5,q),
(1299,532,o),
(1296.5,499.5,q),
(1294,467,o),
(1294,437,q)
);
}
);
width = 2822;
}
);
unicode = 8240;
},
{
glyphname = dotlessi;
layers = (
{
layerId = "090b295d-3f71-4cfe-961f-4c3f744a43b8";
name = Fore;
shapes = (
{
closed = 1;
nodes = (
(139,96,o),
(172.5,108,q),
(206,120,o),
(225.5,141,q),
(245,162,o),
(252.5,197,q),
(260,232,o),
(260,292,q),
(260,705,l),
(260,758,o),
(246,791.5,q),
(232,825,o),
(209,845.5,q),
(186,866,o),
(156,877,q),
(126,888,o),
(94,896,q),
(94,968,l),
(162,981,o),
(214,990.5,q),
(266,1000,o),
(308,1009.5,q),
(350,1019,o),
(385.5,1031.5,q),
(421,1044,o),
(457,1062,q),
(494,1043,l),
(487,1002,o),
(482.5,963,q),
(478,924,o),
(475,883.5,q),
(472,843,o),
(471,799.5,q),
(470,756,o),
(470,707,q),
(470,137,l),
(652,82,l),
(652,0,l),
(86,0,l),
(86,82,l)
);
}
);
width = 675;
}
);
unicode = 305;
},
{
glyphname = circumflex;
layers = (
{
layerId = "090b295d-3f71-4cfe-961f-4c3f744a43b8";
name = Fore;
shapes = (
{
closed = 1;
nodes = (
(153,1302,o),
(191,1343,q),
(229,1384,o),
(266.5,1424.5,q),
(304,1465,o),
(341.5,1508.5,q),
(379,1552,o),
(417,1605,q),
(529,1605,l),
(567,1552,o),
(604.5,1508.5,q),
(642,1465,o),
(679.5,1424.5,q),
(717,1384,o),
(755,1343,q),
(793,1302,o),
(832,1254,q),
(744,1189,l),
(473,1395,l),
(202,1189,l),
(114,1254,l)
);
}
);
width = 946;
}
);
unicode = 710;
},
{
glyphname = tilde;
layers = (
{
layerId = "090b295d-3f71-4cfe-961f-4c3f744a43b8";
name = Fore;
shapes = (
{
closed = 1;
nodes = (
(602,1256,o),
(561.5,1274,q),
(521,1292,o),
(485,1313,q),
(449,1334,o),
(415.5,1352,q),
(382,1370,o),
(346,1370,q),
(323,1370,o),
(304.5,1360,q),
(286,1350,o),
(269.5,1335,q),
(253,1320,o),
(238.5,1301.5,q),
(224,1283,o),
(211,1266,q),
(114,1325,l),
(128,1355,o),
(150.5,1393,q),
(173,1431,o),
(202,1464.5,q),
(231,1498,o),
(264.5,1521,q),
(298,1544,o),
(334,1544,q),
(380,1544,o),
(423,1525,q),
(466,1506,o),
(505,1483,q),
(544,1460,o),
(577,1441,q),
(610,1422,o),
(636,1422,q),
(657,1422,o),
(677,1433.5,q),
(697,1445,o),
(714,1462,q),
(731,1479,o),
(744.5,1498.5,q),
(758,1518,o),
(768,1534,q),
(868,1476,l),
(854,1449,o),
(833.5,1411,q),
(813,1373,o),
(786,1338.5,q),
(759,1304,o),
(725.5,1280,q),
(692,1256,o),
(653,1256,q)
);
}
);
width = 982;
}
);
unicode = 732;
},
{
glyphname = macron;
layers = (
{
layerId = "090b295d-3f71-4cfe-961f-4c3f744a43b8";
name = Fore;
shapes = (
{
closed = 1;
nodes = (
(712,1412,l),
(712,1267,l),
(114,1267,l),
(114,1412,l)
);
}
);
width = 826;
}
);
unicode = 175;
},
{
glyphname = breve;
layers = (
{
layerId = "090b295d-3f71-4cfe-961f-4c3f744a43b8";
name = Fore;
shapes = (
{
closed = 1;
nodes = (
(374,1187,o),
(307.5,1213,q),
(241,1239,o),
(194.5,1288.5,q),
(148,1338,o),
(127,1409,q),
(106,1480,o),
(121,1569,q),
(230,1569,l),
(230,1518,o),
(248,1478.5,q),
(266,1439,o),
(296.5,1411.5,q),
(327,1384,o),
(367,1369.5,q),
(407,1355,o),
(451,1355,q),
(495,1355,o),
(536,1369.5,q),
(577,1384,o),
(608,1411.5,q),
(639,1439,o),
(658,1478.5,q),
(677,1518,o),
(677,1569,q),
(786,1569,l),
(801,1480,o),
(779.5,1409,q),
(758,1338,o),
(710.5,1288.5,q),
(663,1239,o),
(595.5,1213,q),
(528,1187,o),
(451,1187,q)
);
}
);
width = 907;
}
);
unicode = 728;
},
{
glyphname = dotaccent;
layers = (
{
layerId = "090b295d-3f71-4cfe-961f-4c3f744a43b8";
name = Fore;
shapes = (
{
closed = 1;
nodes = (
(222,1267,o),
(196,1278,q),
(170,1289,o),
(152,1307.5,q),
(134,1326,o),
(124,1350.5,q),
(114,1375,o),
(114,1403,q),
(114,1428,o),
(124,1453.5,q),
(134,1479,o),
(155,1499,q),
(176,1519,o),
(207.5,1532,q),
(239,1545,o),
(281,1545,q),
(309,1545,o),
(334.5,1535.5,q),
(360,1526,o),
(378.5,1509,q),
(397,1492,o),
(408,1467.5,q),
(419,1443,o),
(419,1413,q),
(419,1380,o),
(405.5,1353.5,q),
(392,1327,o),
(369,1307.5,q),
(346,1288,o),
(316,1277.5,q),
(286,1267,o),
(254,1267,q)
);
}
);
width = 533;
}
);
unicode = 729;
},
{
glyphname = ring;
layers = (
{
layerId = "090b295d-3f71-4cfe-961f-4c3f744a43b8";
name = Fore;
shapes = (
{
closed = 1;
nodes = (
(317,1168,o),
(271,1186,q),
(225,1204,o),
(190,1236.5,q),
(155,1269,o),
(134.5,1313,q),
(114,1357,o),
(114,1410,q),
(114,1464,o),
(134.5,1509,q),
(155,1554,o),
(190,1586.5,q),
(225,1619,o),
(271,1637,q),
(317,1655,o),
(367,1655,q),
(418,1655,o),
(463.5,1637,q),
(509,1619,o),
(543.5,1586.5,q),
(578,1554,o),
(598.5,1509,q),
(619,1464,o),
(619,1410,q),
(619,1358,o),
(598,1314,q),
(577,1270,o),
(542.5,1237.5,q),
(508,1205,o),
(462,1186.5,q),
(416,1168,o),
(367,1168,q)
);
},
{
closed = 1;
nodes = (
(392,1260,o),
(418.5,1270.5,q),
(445,1281,o),
(465.5,1300.5,q),
(486,1320,o),
(498,1348,q),
(510,1376,o),
(510,1410,q),
(510,1437,o),
(501,1464.5,q),
(492,1492,o),
(474.5,1514.5,q),
(457,1537,o),
(430,1551.5,q),
(403,1566,o),
(367,1566,q),
(332,1566,o),
(305,1551.5,q),
(278,1537,o),
(260,1514.5,q),
(242,1492,o),
(232.5,1464.5,q),
(223,1437,o),
(223,1410,q),
(223,1377,o),
(235,1349,q),
(247,1321,o),
(266.5,1301.5,q),
(286,1282,o),
(311.5,1271,q),
(337,1260,o),
(364,1260,q)
);
}
);
width = 733;
}
);
unicode = 730;
},
{
glyphname = cedilla;
layers = (
{
layerId = "090b295d-3f71-4cfe-961f-4c3f744a43b8";
name = Fore;
shapes = (
{
closed = 1;
nodes = (
(450,-9,o),
(446,-18,q),
(439,-35,o),
(431,-53,q),
(423,-72,o),
(433.5,-86.5,q),
(444,-101,o),
(465.5,-114,q),
(487,-127,o),
(514,-140,q),
(541,-153,o),
(564.5,-169.5,q),
(588,-186,o),
(604.5,-207,q),
(621,-228,o),
(621,-256,q),
(621,-312,o),
(595.5,-356,q),
(570,-400,o),
(524,-431.5,q),
(478,-463,o),
(415,-479.5,q),
(352,-496,o),
(277,-496,q),
(223,-496,o),
(191,-491,q),
(159,-486,o),
(142,-479,q),
(122,-472,o),
(114,-462,q),
(166,-311,l),
(193,-323,o),
(221,-333,q),
(245,-341,o),
(274.5,-348,q),
(304,-355,o),
(333,-355,q),
(395,-355,o),
(419.5,-333.5,q),
(444,-312,o),
(439,-285,q),
(436,-275,o),
(421.5,-263.5,q),
(407,-252,o),
(386,-239.5,q),
(365,-227,o),
(341,-213.5,q),
(317,-200,o),
(297,-185,q),
(277,-170,o),
(263.5,-153.5,q),
(250,-137,o),
(250,-118,q),
(250,-103,o),
(263,-85,q),
(276,-67,o),
(292.5,-50,q),
(309,-33,o),
(325.5,-19.5,q),
(342,-6,o),
(348,0,q),
(397,20,l),
(453,0,l)
);
}
);
width = 735;
}
);
unicode = 184;
},
{
glyphname = hungarumlaut;
layers = (
{
layerId = "090b295d-3f71-4cfe-961f-4c3f744a43b8";
name = Fore;
shapes = (
{
closed = 1;
nodes = (
(614,1329,o),
(687.5,1434,q),
(761,1539,o),
(838,1645,q),
(859,1641,o),
(882,1631.5,q),
(905,1622,o),
(928,1608,q),
(951,1594,o),
(972.5,1576.5,q),
(994,1559,o),
(1012,1540,q),
(615,1174,l),
(535,1229,l)
);
},
{
closed = 1;
nodes = (
(186,1329,o),
(258,1434,q),
(330,1539,o),
(407,1645,q),
(428,1641,o),
(451,1631.5,q),
(474,1622,o),
(497,1608,q),
(520,1594,o),
(541.5,1576.5,q),
(563,1559,o),
(581,1540,q),
(194,1174,l),
(114,1229,l)
);
}
);
width = 1126;
}
);
unicode = 733;
},
{
glyphname = ogonek;
layers = (
{
layerId = "090b295d-3f71-4cfe-961f-4c3f744a43b8";
name = Fore;
shapes = (
{
closed = 1;
nodes = (
(538,35,l),
(429,-24,o),
(370,-86.5,q),
(311,-149,o),
(295,-204,q),
(285,-242,o),
(291,-266.5,q),
(297,-291,o),
(309.5,-306,q),
(322,-321,o),
(337.5,-327,q),
(353,-333,o),
(362,-333,q),
(375,-333,o),
(391.5,-332.5,q),
(408,-332,o),
(425,-329,q),
(442,-326,o),
(460.5,-320,q),
(479,-314,o),
(497,-303,q),
(544,-435,l),
(533,-444,o),
(512,-455,q),
(491,-466,o),
(463.5,-475.5,q),
(436,-485,o),
(403,-491.5,q),
(370,-498,o),
(334,-498,q),
(279,-498,o),
(234,-479,q),
(189,-460,o),
(159.5,-426,q),
(130,-392,o),
(119,-345.5,q),
(108,-299,o),
(122,-243,q),
(132,-197,o),
(159.5,-156.5,q),
(187,-116,o),
(223,-81.5,q),
(259,-47,o),
(301,-20,q),
(343,7,o),
(384,25,q),
(457,60,l)
);
}
);
width = 658;
}
);
unicode = 731;
},
{
glyphname = caron;
layers = (
{
layerId = "090b295d-3f71-4cfe-961f-4c3f744a43b8";
name = Fore;
shapes = (
{
closed = 1;
nodes = (
(379,1235,o),
(341.5,1278,q),
(304,1321,o),
(266.5,1363,q),
(229,1405,o),
(191,1447.5,q),
(153,1490,o),
(114,1540,q),
(202,1605,l),
(473,1394,l),
(744,1605,l),
(832,1540,l),
(793,1490,o),
(755,1447.5,q),
(717,1405,o),
(679.5,1363,q),
(642,1321,o),
(604.5,1278,q),
(567,1235,o),
(529,1184,q),
(417,1184,l),
(417,1184,l)
);
}
);
width = 946;
}
);
unicode = 711;
},
{
glyphname = Eth;
layers = (
{
layerId = "090b295d-3f71-4cfe-961f-4c3f744a43b8";
name = Fore;
shapes = (
{
closed = 1;
nodes = (
(159,96,o),
(193,108,q),
(227,120,o),
(246,141,q),
(265,162,o),
(272.5,197,q),
(280,232,o),
(280,292,q),
(280,745,l),
(69,745,l),
(89,850,l),
(280,850,l),
(280,1392,l),
(107,1448,l),
(107,1530,l),
(385,1530,l),
(445,1530,o),
(497.5,1532,q),
(550,1534,o),
(600.5,1536,q),
(651,1538,o),
(703.5,1540,q),
(756,1542,o),
(816,1542,q),
(1007,1542,o),
(1152,1489.5,q),
(1297,1437,o),
(1395,1345.5,q),
(1493,1254,o),
(1542.5,1129.5,q),
(1592,1005,o),
(1592,861,q),
(1592,743,o),
(1568.5,631.5,q),
(1545,520,o),
(1498.5,422.5,q),
(1452,325,o),
(1383.5,243.5,q),
(1315,162,o),
(1225,104,q),
(1135,46,o),
(1024,13.5,q),
(913,-19,o),
(783,-19,q),
(736,-19,o),
(662.5,-13.5,q),
(589,-8,o),
(512,0,q),
(107,0,l),
(107,82,l)
);
},
{
closed = 1;
nodes = (
(512,169,o),
(540,159.5,q),
(568,150,o),
(606,141,q),
(644,132,o),
(690,126,q),
(736,120,o),
(788,120,q),
(828,120,o),
(875.5,125,q),
(923,130,o),
(971,139,q),
(1019,148,o),
(1062.5,161,q),
(1106,174,o),
(1138,191,q),
(1173,221,o),
(1213.5,268,q),
(1254,315,o),
(1288.5,383,q),
(1323,451,o),
(1346,543.5,q),
(1369,636,o),
(1369,757,q),
(1369,923,o),
(1325.5,1048,q),
(1282,1173,o),
(1199,1256,q),
(1116,1339,o),
(994.5,1381,q),
(873,1423,o),
(717,1423,q),
(702,1423,o),
(660,1421.5,q),
(618,1420,o),
(564,1415,q),
(546,1408,o),
(533.5,1397.5,q),
(521,1387,o),
(512.5,1370.5,q),
(504,1354,o),
(500,1329,q),
(496,1304,o),
(496,1268,q),
(496,850,l),
(1000,850,l),
(980,745,l),
(496,745,l),
(496,177,l)
);
}
);
width = 1706;
}
);
unicode = 208;
},
{
glyphname = currency;
layers = (
{
layerId = "090b295d-3f71-4cfe-961f-4c3f744a43b8";
name = Fore;
shapes = (
{
closed = 1;
nodes = (
(280,431,l),
(235,493,o),
(211,566.5,q),
(187,640,o),
(187,721,q),
(187,802,o),
(211.5,875.5,q),
(236,949,o),
(281,1012,q),
(106,1196,l),
(211,1307,l),
(390,1121,l),
(448,1163,o),
(516.5,1186.5,q),
(585,1210,o),
(662,1210,q),
(740,1210,o),
(809,1186,q),
(878,1162,o),
(936,1120,q),
(1118,1307,l),
(1222,1196,l),
(1045,1010,l),
(1090,948,o),
(1114.5,874.5,q),
(1139,801,o),
(1139,721,q),
(1139,640,o),
(1115,567.5,q),
(1091,495,o),
(1047,433,q),
(1222,248,l),
(1118,138,l),
(938,323,l),
(879,280,o),
(809.5,256,q),
(740,232,o),
(662,232,q),
(584,232,o),
(514.5,256,q),
(445,280,o),
(387,322,q),
(207,138,l),
(105,248,l)
);
},
{
closed = 1;
nodes = (
(732,377,o),
(793,404.5,q),
(854,432,o),
(899,479,q),
(944,526,o),
(970,588.5,q),
(996,651,o),
(996,721,q),
(996,791,o),
(970,853,q),
(944,915,o),
(899,962,q),
(854,1009,o),
(793,1036.5,q),
(732,1064,o),
(662,1064,q),
(592,1064,o),
(531,1036.5,q),
(470,1009,o),
(425,962,q),
(380,915,o),
(354,853,q),
(328,791,o),
(328,721,q),
(328,651,o),
(354,588.5,q),
(380,526,o),
(425,479,q),
(470,432,o),
(531,404.5,q),
(592,377,o),
(662,377,q)
);
}
);
width = 1327;
}
);
unicode = 164;
},
{
glyphname = eth;
layers = (
{
layerId = "090b295d-3f71-4cfe-961f-4c3f744a43b8";
name = Fore;
shapes = (
{
closed = 1;
nodes = (
(90,614,o),
(133,717.5,q),
(176,821,o),
(248.5,893,q),
(321,965,o),
(416,1003.5,q),
(511,1042,o),
(615,1042,q),
(664,1042,o),
(708.5,1032,q),
(753,1022,o),
(793,1004,q),
(769,1054,o),
(742,1099,q),
(715,1144,o),
(686,1176,q),
(652,1213,o),
(616,1246.5,q),
(580,1280,o),
(543,1309,q),
(366,1181,l),
(288,1276,l),
(438,1386,l),
(391,1418,o),
(351,1441.5,q),
(311,1465,o),
(280,1482,q),
(244,1501,o),
(214,1516,q),
(222,1543,o),
(229,1564,q),
(235,1582,o),
(240,1597,q),
(245,1612,o),
(247,1612,q),
(323,1588,o),
(399.5,1556,q),
(476,1524,o),
(554,1479,q),
(758,1630,l),
(834,1535,l),
(665,1407,l),
(705,1378,o),
(744.5,1344.5,q),
(784,1311,o),
(824,1272,q),
(883,1214,o),
(925.5,1151,q),
(968,1088,o),
(997.5,1024.5,q),
(1027,961,o),
(1045,900,q),
(1063,839,o),
(1073,784.5,q),
(1083,730,o),
(1086.5,684.5,q),
(1090,639,o),
(1090,607,q),
(1093,586,o),
(1093,568,q),
(1093,435,o),
(1053,326.5,q),
(1013,218,o),
(944,140.5,q),
(875,63,o),
(783,20.5,q),
(691,-22,o),
(586,-22,q),
(482,-22,o),
(391.5,9.5,q),
(301,41,o),
(234,104,q),
(167,167,o),
(128.5,262,q),
(90,357,o),
(90,484,q)
);
},
{
closed = 1;
nodes = (
(321,478,o),
(327.5,422.5,q),
(334,367,o),
(348.5,316,q),
(363,265,o),
(387,221.5,q),
(411,178,o),
(446.5,146.5,q),
(482,115,o),
(530,98.5,q),
(578,82,o),
(641,86,q),
(706,90,o),
(750.5,129,q),
(795,168,o),
(822,227,q),
(849,286,o),
(860.5,358.5,q),
(872,431,o),
(872,502,q),
(872,622,o),
(855.5,706,q),
(839,790,o),
(800.5,841.5,q),
(762,893,o),
(699,914,q),
(636,935,o),
(543,930,q),
(477,926,o),
(434.5,892,q),
(392,858,o),
(366.5,803.5,q),
(341,749,o),
(331,679,q),
(321,609,o),
(321,533,q)
);
}
);
width = 1181;
}
);
unicode = 240;
},
{
glyphname = acute.cap;
layers = (
{
layerId = "090b295d-3f71-4cfe-961f-4c3f744a43b8";
name = Fore;
shapes = (
{
closed = 1;
nodes = (
(153,1751,o),
(191,1785.5,q),
(229,1820,o),
(266.5,1854,q),
(304,1888,o),
(341.5,1924,q),
(379,1960,o),
(417,2000,q),
(438,1996,o),
(460.5,1980,q),
(483,1964,o),
(505.5,1942.5,q),
(528,1921,o),
(549.5,1897,q),
(571,1873,o),
(589,1854,q),
(204,1639,l),
(114,1714,l)
);
}
);
width = 703;
}
);
},
{
glyphname = grave.cap;
layers = (
{
layerId = "090b295d-3f71-4cfe-961f-4c3f744a43b8";
name = Fore;
shapes = (
{
closed = 1;
nodes = (
(132,1873,o),
(153,1897,q),
(174,1921,o),
(196.5,1942.5,q),
(219,1964,o),
(242,1980,q),
(265,1996,o),
(286,2000,q),
(324,1960,o),
(361.5,1924,q),
(399,1888,o),
(436.5,1854,q),
(474,1820,o),
(512,1785.5,q),
(550,1751,o),
(589,1714,q),
(499,1639,l),
(114,1854,l)
);
}
);
width = 703;
}
);
},
{
glyphname = tilde.cap;
layers = (
{
layerId = "090b295d-3f71-4cfe-961f-4c3f744a43b8";
name = Fore;
shapes = (
{
closed = 1;
nodes = (
(602,1676,o),
(561.5,1694,q),
(521,1712,o),
(485,1733,q),
(449,1754,o),
(415.5,1772,q),
(382,1790,o),
(346,1790,q),
(323,1790,o),
(304.5,1780,q),
(286,1770,o),
(269.5,1755,q),
(253,1740,o),
(238.5,1721.5,q),
(224,1703,o),
(211,1686,q),
(114,1745,l),
(128,1775,o),
(150.5,1813,q),
(173,1851,o),
(202,1884.5,q),
(231,1918,o),
(264.5,1941,q),
(298,1964,o),
(334,1964,q),
(380,1964,o),
(423,1945,q),
(466,1926,o),
(505,1903,q),
(544,1880,o),
(577,1861,q),
(610,1842,o),
(636,1842,q),
(657,1842,o),
(677,1853.5,q),
(697,1865,o),
(714,1882,q),
(731,1899,o),
(744.5,1918.5,q),
(758,1938,o),
(768,1954,q),
(868,1896,l),
(854,1869,o),
(833.5,1831,q),
(813,1793,o),
(786,1758.5,q),
(759,1724,o),
(725.5,1700,q),
(692,1676,o),
(653,1676,q)
);
}
);
width = 982;
}
);
},
{
glyphname = circumflex.cap;
layers = (
{
layerId = "090b295d-3f71-4cfe-961f-4c3f744a43b8";
name = Fore;
shapes = (
{
closed = 1;
nodes = (
(429,2000,l),
(541,2000,l),
(832,1733,l),
(764,1668,l),
(485,1805,l),
(182,1668,l),
(114,1733,l)
);
}
);
width = 946;
}
);
},
{
glyphname = commaaccent;
layers = (
{
layerId = "090b295d-3f71-4cfe-961f-4c3f744a43b8";
name = Fore;
shapes = (
{
closed = 1;
nodes = (
(335,-147,o),
(378.5,-183,q),
(422,-219,o),
(422,-279,q),
(422,-315,o),
(412,-345,q),
(402,-375,o),
(386.5,-400,q),
(371,-425,o),
(350.5,-445,q),
(330,-465,o),
(309,-480,q),
(259,-516,o),
(196,-537,q),
(135,-483,l),
(164,-465,o),
(187,-443,q),
(207,-425,o),
(223,-400.5,q),
(239,-376,o),
(239,-348,q),
(239,-321,o),
(220.5,-310.5,q),
(202,-300,o),
(180,-298,q),
(154,-296,o),
(122,-302,q),
(118,-248,l),
(116,-228,o),
(115,-210.5,q),
(114,-193,o),
(115,-192,q),
(116,-191,o),
(125,-184,q),
(134,-177,o),
(152.5,-169,q),
(171,-161,o),
(198,-154,q),
(225,-147,o),
(262,-147,q)
);
}
);
width = 536;
}
);
unicode = 63171;
},
{
glyphname = aogonek;
layers = (
{
layerId = "090b295d-3f71-4cfe-961f-4c3f744a43b8";
name = Fore;
shapes = (
{
closed = 1;
nodes = (
(103,296,o),
(110.5,331,q),
(118,366,o),
(140.5,396.5,q),
(163,427,o),
(204.5,454.5,q),
(246,482,o),
(313.5,509,q),
(381,536,o),
(478,564,q),
(575,592,o),
(710,624,q),
(710,777,l),
(710,805,o),
(706.5,830.5,q),
(703,856,o),
(685,875.5,q),
(667,895,o),
(629.5,907.5,q),
(592,920,o),
(525,921,q),
(477,921,o),
(445,907.5,q),
(413,894,o),
(390.5,866,q),
(368,838,o),
(351.5,796.5,q),
(335,755,o),
(318,700,q),
(158,700,l),
(179,906,l),
(212,920,o),
(251,936,q),
(290,952,o),
(330.5,967,q),
(371,982,o),
(411,995.5,q),
(451,1009,o),
(485.5,1019.5,q),
(520,1030,o),
(547,1036,q),
(574,1042,o),
(589,1042,q),
(679,1042,o),
(741.5,1028,q),
(804,1014,o),
(844,980.5,q),
(884,947,o),
(902,891.5,q),
(920,836,o),
(920,754,q),
(920,179,l),
(920,152,o),
(944,140,q),
(968,128,o),
(996.5,124,q),
(1025,120,o),
(1049,120,q),
(1073,120,o),
(1073,118,q),
(1073,35,l),
(1054,27,l),
(951,-30,o),
(895,-90,q),
(839,-150,o),
(824,-204,q),
(814,-242,o),
(820,-266.5,q),
(826,-291,o),
(838.5,-306,q),
(851,-321,o),
(866.5,-327,q),
(882,-333,o),
(891,-333,q),
(904,-333,o),
(920.5,-332.5,q),
(937,-332,o),
(954,-329,q),
(971,-326,o),
(989.5,-320,q),
(1008,-314,o),
(1026,-303,q),
(1073,-435,l),
(1062,-444,o),
(1041,-455,q),
(1020,-466,o),
(992.5,-475.5,q),
(965,-485,o),
(932,-491.5,q),
(899,-498,o),
(863,-498,q),
(808,-498,o),
(763,-479,q),
(718,-460,o),
(688.5,-426,q),
(659,-392,o),
(648,-345.5,q),
(637,-299,o),
(651,-243,q),
(659,-209,o),
(676.5,-177,q),
(694,-145,o),
(718,-116.5,q),
(742,-88,o),
(771,-63.5,q),
(800,-39,o),
(831,-19,q),
(771,-14,o),
(745.5,22.5,q),
(720,59,o),
(720,130,q),
(672,90,o),
(635.5,61.5,q),
(599,33,o),
(564.5,15,q),
(530,-3,o),
(491,-11.5,q),
(452,-20,o),
(400,-20,q),
(348,-20,o),
(295,-4,q),
(242,12,o),
(199.5,45.5,q),
(157,79,o),
(130,131,q),
(103,183,o),
(103,254,q)
);
},
{
closed = 1;
nodes = (
(323,239,o),
(337.5,210.5,q),
(352,182,o),
(377,163.5,q),
(402,145,o),
(436.5,136.5,q),
(471,128,o),
(510,128,q),
(564,128,o),
(616,156.5,q),
(668,185,o),
(710,225,q),
(710,522,l),
(674,509,o),
(631,498.5,q),
(588,488,o),
(545,476.5,q),
(502,465,o),
(462,450,q),
(422,435,o),
(391,412.5,q),
(360,390,o),
(341.5,357.5,q),
(323,325,o),
(323,279,q)
);
}
);
width = 1098;
}
);
unicode = 261;
},
{
glyphname = Aogonek;
layers = (
{
layerId = "090b295d-3f71-4cfe-961f-4c3f744a43b8";
name = Fore;
shapes = (
{
closed = 1;
nodes = (
(9,96,o),
(49.5,107,q),
(90,118,o),
(119,138,q),
(630,1424,l),
(543,1456,l),
(542,1506,l),
(585,1516,o),
(614.5,1523,q),
(644,1530,o),
(672,1537.5,q),
(700,1545,o),
(733,1554,q),
(766,1563,o),
(817,1578,q),
(830,1543,o),
(841.5,1516,q),
(853,1489,o),
(867,1457.5,q),
(881,1426,o),
(900,1383.5,q),
(919,1341,o),
(947,1276,q),
(975,1211,o),
(1014.5,1117,q),
(1054,1023,o),
(1110,887,q),
(1166,751,o),
(1240.5,567.5,q),
(1315,384,o),
(1413,141,q),
(1402,137,l),
(1568,82,l),
(1568,0,l),
(1439,0,l),
(1366,-46,o),
(1324.5,-98,q),
(1283,-150,o),
(1271,-194,q),
(1260,-235,o),
(1269.5,-261.5,q),
(1279,-288,o),
(1297,-304,q),
(1315,-320,o),
(1336.5,-326.5,q),
(1358,-333,o),
(1372,-333,q),
(1385,-333,o),
(1401.5,-332.5,q),
(1418,-332,o),
(1435,-329,q),
(1452,-326,o),
(1470.5,-320,q),
(1489,-314,o),
(1507,-303,q),
(1554,-435,l),
(1543,-444,o),
(1522,-455,q),
(1501,-466,o),
(1473.5,-475.5,q),
(1446,-485,o),
(1413,-491.5,q),
(1380,-498,o),
(1344,-498,q),
(1281,-498,o),
(1229,-477,q),
(1177,-456,o),
(1142.5,-419.5,q),
(1108,-383,o),
(1095,-333,q),
(1082,-283,o),
(1098,-225,q),
(1106,-190,o),
(1123,-157,q),
(1140,-124,o),
(1163.5,-95,q),
(1187,-66,o),
(1215.5,-42,q),
(1244,-18,o),
(1275,0,q),
(972,0,l),
(972,82,l),
(1007,91,o),
(1036,99,q),
(1065,107,o),
(1087.5,117,q),
(1110,127,o),
(1127,140.5,q),
(1144,154,o),
(1155,174,q),
(1138,219,o),
(1107,299.5,q),
(1076,380,o),
(1025,510,q),
(425,510,l),
(287,129,l),
(490,82,l),
(490,0,l),
(-42,0,l),
(-42,82,l)
);
},
{
closed = 1;
nodes = (
(713,1297,l),
(701,1274,o),
(688,1235,q),
(469,631,l),
(978,631,l)
);
}
);
width = 1535;
}
);
unicode = 260;
},
{
glyphname = Eogonek;
layers = (
{
layerId = "090b295d-3f71-4cfe-961f-4c3f744a43b8";
name = Fore;
shapes = (
{
closed = 1;
nodes = (
(163,94,o),
(194.5,105.5,q),
(226,117,o),
(243.5,137,q),
(261,157,o),
(267,190.5,q),
(273,224,o),
(273,281,q),
(273,1396,l),
(108,1450,l),
(108,1530,l),
(1003,1530,l),
(1145,1549,l),
(1145,1137,l),
(1041,1135,l),
(969,1384,l),
(821,1390,o),
(728.5,1393,q),
(636,1396,o),
(582,1398,q),
(520,1400,o),
(489,1399,q),
(489,834,l),
(931,863,l),
(931,673,l),
(489,704,l),
(489,122,l),
(1070,143,l),
(1162,430,l),
(1270,430,l),
(1251,-18,l),
(1159,-6,l),
(1084,-54,o),
(1042.5,-102,q),
(1001,-150,o),
(988,-194,q),
(975,-235,o),
(982.5,-261.5,q),
(990,-288,o),
(1006.5,-304,q),
(1023,-320,o),
(1043,-326.5,q),
(1063,-333,o),
(1075,-333,q),
(1088,-333,o),
(1104.5,-332.5,q),
(1121,-332,o),
(1138,-329,q),
(1155,-326,o),
(1173.5,-320,q),
(1192,-314,o),
(1210,-303,q),
(1257,-435,l),
(1246,-444,o),
(1225,-455,q),
(1204,-466,o),
(1176.5,-475.5,q),
(1149,-485,o),
(1116,-491.5,q),
(1083,-498,o),
(1047,-498,q),
(987,-498,o),
(937.5,-478.5,q),
(888,-459,o),
(856,-424,q),
(824,-389,o),
(812,-341,q),
(800,-293,o),
(815,-235,q),
(824,-200,o),
(842,-165.5,q),
(860,-131,o),
(884.5,-100.5,q),
(909,-70,o),
(939,-44,q),
(969,-18,o),
(1002,0,q),
(113,0,l),
(113,80,l)
);
}
);
width = 1364;
}
);
unicode = 280;
},
{
glyphname = caronvertical;
layers = (
{
layerId = "090b295d-3f71-4cfe-961f-4c3f744a43b8";
name = Fore;
shapes = (
{
closed = 1;
nodes = (
(182,1164,o),
(195,1193,q),
(206,1218,o),
(216,1255,q),
(226,1292,o),
(226,1340,q),
(226,1378,o),
(211,1393,q),
(196,1408,o),
(179,1411,q),
(158,1415,o),
(132,1406,q),
(127,1451,o),
(123,1486,q),
(119,1516,o),
(116.5,1541,q),
(114,1566,o),
(115,1568,q),
(116,1569,o),
(125.5,1579,q),
(135,1589,o),
(153,1601,q),
(171,1613,o),
(198.5,1622.5,q),
(226,1632,o),
(263,1632,q),
(300,1632,o),
(323.5,1614.5,q),
(347,1597,o),
(360.5,1570.5,q),
(374,1544,o),
(379.5,1512.5,q),
(385,1481,o),
(385,1453,q),
(385,1375,o),
(366,1311.5,q),
(347,1248,o),
(322.5,1200.5,q),
(298,1153,o),
(273.5,1124,q),
(249,1095,o),
(237,1086,q),
(165,1143,l)
);
}
);
width = 499;
}
);
},
{
glyphname = iogonek;
layers = (
{
layerId = "090b295d-3f71-4cfe-961f-4c3f744a43b8";
name = Fore;
shapes = (
{
closed = 1;
nodes = (
(322,1267,o),
(296,1278,q),
(270,1289,o),
(252,1307.5,q),
(234,1326,o),
(224,1350.5,q),
(214,1375,o),
(214,1403,q),
(214,1428,o),
(224,1453.5,q),
(234,1479,o),
(255,1499,q),
(276,1519,o),
(307.5,1532,q),
(339,1545,o),
(381,1545,q),
(409,1545,o),
(434.5,1535.5,q),
(460,1526,o),
(478.5,1509,q),
(497,1492,o),
(508,1467.5,q),
(519,1443,o),
(519,1413,q),
(519,1380,o),
(505.5,1353.5,q),
(492,1327,o),
(469,1307.5,q),
(446,1288,o),
(416,1277.5,q),
(386,1267,o),
(354,1267,q)
);
},
{
closed = 1;
nodes = (
(139,96,o),
(172.5,108,q),
(206,120,o),
(225.5,141,q),
(245,162,o),
(252.5,197,q),
(260,232,o),
(260,292,q),
(260,705,l),
(260,758,o),
(246,791.5,q),
(232,825,o),
(209,845.5,q),
(186,866,o),
(156,877,q),
(126,888,o),
(94,896,q),
(94,968,l),
(162,981,o),
(214,990.5,q),
(266,1000,o),
(308,1009.5,q),
(350,1019,o),
(385.5,1031.5,q),
(421,1044,o),
(457,1062,q),
(494,1043,l),
(487,1002,o),
(482.5,963,q),
(478,924,o),
(475,883.5,q),
(472,843,o),
(471,799.5,q),
(470,756,o),
(470,707,q),
(470,137,l),
(652,82,l),
(652,0,l),
(468,0,l),
(398,-51,o),
(359,-104,q),
(320,-157,o),
(308,-204,q),
(298,-242,o),
(304,-266.5,q),
(310,-291,o),
(322.5,-306,q),
(335,-321,o),
(350.5,-327,q),
(366,-333,o),
(375,-333,q),
(388,-333,o),
(404.5,-332.5,q),
(421,-332,o),
(438,-329,q),
(455,-326,o),
(473.5,-320,q),
(492,-314,o),
(510,-303,q),
(557,-435,l),
(546,-444,o),
(525,-455,q),
(504,-466,o),
(476.5,-475.5,q),
(449,-485,o),
(416,-491.5,q),
(383,-498,o),
(347,-498,q),
(292,-498,o),
(247.5,-479,q),
(203,-460,o),
(174,-426.5,q),
(145,-393,o),
(134,-346,q),
(123,-299,o),
(135,-243,q),
(144,-204,o),
(162.5,-168.5,q),
(181,-133,o),
(206.5,-102.5,q),
(232,-72,o),
(262,-46,q),
(292,-20,o),
(323,0,q),
(86,0,l),
(86,82,l)
);
}
);
width = 675;
}
);
unicode = 303;
},
{
glyphname = Iogonek;
layers = (
{
layerId = "090b295d-3f71-4cfe-961f-4c3f744a43b8";
name = Fore;
shapes = (
{
closed = 1;
nodes = (
(136,96,o),
(166,108,q),
(196,120,o),
(211,141,q),
(226,162,o),
(229.5,197,q),
(233,232,o),
(233,292,q),
(233,1390,l),
(89,1446,l),
(89,1528,l),
(606,1528,l),
(606,1446,l),
(553,1432,o),
(522,1420,q),
(491,1408,o),
(475,1387,q),
(459,1366,o),
(454,1331,q),
(449,1296,o),
(449,1236,q),
(449,137,l),
(606,82,l),
(606,0,l),
(442,0,l),
(372,-51,o),
(333,-104,q),
(294,-157,o),
(282,-204,q),
(272,-242,o),
(278,-266.5,q),
(284,-291,o),
(296.5,-306,q),
(309,-321,o),
(324.5,-327,q),
(340,-333,o),
(349,-333,q),
(362,-333,o),
(378.5,-332.5,q),
(395,-332,o),
(412,-329,q),
(429,-326,o),
(447.5,-320,q),
(466,-314,o),
(484,-303,q),
(531,-435,l),
(520,-444,o),
(499,-455,q),
(478,-466,o),
(450.5,-475.5,q),
(423,-485,o),
(390,-491.5,q),
(357,-498,o),
(321,-498,q),
(266,-498,o),
(221.5,-479,q),
(177,-460,o),
(148,-426.5,q),
(119,-393,o),
(108,-346,q),
(97,-299,o),
(109,-243,q),
(118,-204,o),
(136.5,-168.5,q),
(155,-133,o),
(180.5,-102.5,q),
(206,-72,o),
(236,-46,q),
(266,-20,o),
(297,0,q),
(84,0,l),
(84,82,l)
);
}
);
width = 684;
}
);
unicode = 302;
},
